<mxfile host="app.diagrams.net" modified="2021-12-04T06:07:46.340Z" agent="5.0 (Windows NT 10.0; Win64; x64) AppleWebKit/537.36 (KHTML, like Gecko) Chrome/96.0.4664.45 Safari/537.36" etag="5YNOxhUSdC5I8AooDX6I" version="15.8.9" type="github">
  <diagram id="ROHf7ydkRdwpoNtV1X_K" name="Page-1">
    <mxGraphModel dx="1422" dy="705" grid="1" gridSize="10" guides="1" tooltips="1" connect="1" arrows="1" fold="1" page="1" pageScale="1" pageWidth="850" pageHeight="1100" math="0" shadow="0">
      <root>
        <mxCell id="0" />
        <mxCell id="1" parent="0" />
        <mxCell id="DRRDU8zETurhCZoYTLGE-1" value="" style="shape=image;verticalLabelPosition=bottom;labelBackgroundColor=#ffffff;verticalAlign=top;aspect=fixed;imageAspect=0;image=data:image/png,iVBORw0KGgoAAAANSUhEUgAAAjcAAAJUCAYAAADpSAdaAAAAAXNSR0IArs4c6QAAAARnQU1BAACxjwv8YQUAAAAJcEhZcwAADsMAAA7DAcdvqGQAAP+lSURBVHhe7L0PoF1Fde+/zjn3T+69+Qv5nxAJAgYQDAY11rwUVB4CxqIPabRKH9VShNeCPnkUnr8CrY+WQhWxoKKWPmw1T3mQNgJFtKE0+qIlEkEggJiYhCQkgfy/N/fPOee3vmvN7D17n33OPffmJLl/1uecOTN79syaP3v2zNqz5+yd+5sbniyTYRwmyvyJKAdb4uatyNawZd4Wl9j1k+OPcxw9tBiUq5qH5I5cEDDhToWT+lGHuOO6Ubt62Ss8Ung5hwqnA1FShrLmp1rSLsmscoCBHvd6qSY3rPeQav6gVh6z9tWSVWtfSL31Uikvvd3I+uUj7dLzx1xt/Kqt+/CjbiD7hjFR/od3MQaPa0JRvzREyX3hhjVDO4fGsCXR+Llzli3XSZfLJd3P3xK7JTTCyH5vA28r3ruiDweRX5VeJ5LZIBKZcLLLlWlXG3BC/1wu72y3z4VxtVZRL347QoKHw0Yo2zkYjR7EY+K6HhjIq48p+XYbWoYg0QThsfVpVz/enkFmMcLXYxpfY2EdhXkPj5EnK6/eKyudxFGJnLXTAJXHpVJ2kmoy4e4vbiWV6SuxbC6Zc8NGG5ayyhc/+PW2BJKwwPkMX7RAw70UAyZq3wNvTkccU26Mw0Kik+dOUrbEZhdsNkmlhpUdMdgNf9nj4tSB62VgZXU5dUo5BJCmTyOZfkV+XKcf9/Vw88AQdv7OHQ4wvp6kNKgapAeHBA1SSQwiSSJpTm7d9RLkIymfFRzeho94s3Knefd2jJYFefey0AbYzSbKR5gOk9waKClZKdnJ/KlbfgP/oFYj0nmNpSblJwll4qd2GiBxbKrUSyJmlsywjCkZ/ZFIP0Bks1z5iHjY2n79sc9DWZdgXuGRX7E9zmf4oQUZrrk/ZOL2r9ZQJfeF/2nKjdF4wgEgamDsLpWLclJAsYkVmpIMcur2trolWiCrFn72o7HUTlPRbg4h0x1eOIBG3aF09OwOOnzkPS9h4fZxYLs6kPrwNhv1FLeGc7AzM00mOBIcD24vO/YfCH4g0zSQb/Hkrw5omg2fPvLq8uDyLTlA/rEt+5P5kLAh6XwG5axKEKdCnkPyj3xHecVm4A78vYzMvKbz53GyQjnAp5H2B2Few7SyypAlN0ump1o9ZJEuZ5TnUGkRo+1X/CMT7+NfDauRRQZwPsOMINfDMfuHgmsOA2lDRwtWbn4+9HNpDDuixs+do7hgy8CsMzZlVnJKJSg17C4VnT/7yT4Nxz+yrcTNNN3hAlUMGLHw04hep3aaMWXpxDFrgVDSoYfpJzpz/Lj9zsZVrh8MkvviHGidaL0kbITweVPhGh8uyAvwZQjjuJiKl1Mnml/UPZRKpBWXBZu+HALyK+nC6Y47PmzrviCMONN5SW97nPxMIL9avCRaV5xjqfcg30yYQkJaRX5rpRXIlk21I9lBeirX4fIvKdUoS03ZAbVyWEG19JCWS8+323yuQLk8FBw2eXZLmLhde7dGj3MGGcONKMfiGH75HzyuPSStIUvui6bcGA0m6pp9xyydNTpnHtRYoQkVm1Kpj40qNWKLouMGPzYQVSHPbwdIJ+n6Gd+JeuBdGaM+kgOKS9/5+U4aW3EXh5zEeQFRB45OHh8XL+z8ZUCQfTpA+CgCJ+DrI64brU+pIyDh40hwhYOIz7P8Ii5c3va4MHXhysIjGpySby4Fl8OVCZ8gfRC2A7j9sQ79E9kJNzzIY0qu5CNFFNfJjkB8j5Oj5Yjdku9wH2ze9nUIKuQHYjNRMSovnVYGvk4S+ZdkKhPyeRTR8iOS1S8gETeshxqk0/PyVYnlLbFVoYGCg+Ofzzc5Jcftg+LjwvKP5oztSN5wRAsxXHM/aMK2ONQx5cZoOHICuM4Tv34Q9gNarMyoYlP0dpFtVnzKfkYnMl6Syg4HmQjuZdDVSAeqm4dMIhVOMyxXAumoYeIZHNd3M3D7DXXLFmzp+HVg8AME9mMw0CDxgIp60DpLKn+6X3KWKnNyS/F1Bzu57cms2xRaHlcWuF055MqdPyiLGrefSZTDHX/Jvyi7KA/yEs/SVc8GdsRlc+IdfsOnpW58dLtSqM8fFDN1+jzHeVdvdQvIa+SEC/mtlB3iZdWUG+LSSMqHjZ0gTA8yIcor9XEaIXEew7i18ekqcd1Et6BktqZAhQIrNE7BKUC5gVsM6hX+vj0kFRznGl5o5odjzhtC1Prrb0ZHhdwXP2fKjdE44obvXLBlIHO3naC4BEoNFBqx4Sdur/yokqNx2Ygo31Szm2w0QPnORzbUPXCQb0lVt8RSP1eyCO2icUsKafrk1U9w+ZBt8YcFZcZ1/BggeCDAoCD+UG5cVCBpunqIFAOx4Q9lxwUEQTzvjHa7vEOOulW2DwG3rzP1z8YPUr4cKAPsAsojAxz8YBAulufL4ZU0GL8txxr5QBiXn/5I128aX05xy3alXMmjc0OOlot9vL/YlfKjPEp+1RbL+zu8LHXjJ5YlkmXb+3HsUE4gO95WO4HPY2CLt/zGeFnqTslgJK4jMx3g0vBKTdh2VcFh25k8bxd4H+pUFR9tFyojljX8CHI9HLN/KLgmkdV+hhqs3Dw19HNpDBuiRi8dMSwdlNFp+wENRhWbXupjAxvbUwoHaPG4nTRnTDe150vo+6R/7SzmaHtPnp7e10I/3d1K3UWi90w+SBdMPShJHejL0T2bxtKWg1AKctSaz9Fls/fRG9t7ZX8vj3EPvDqOfr5vDP3u9L301vHd4l8NpPeNVybSK10FumT6PlowIQ7/684muuc3bdQb/OV7RmuR/ugNXTSuSWceeti6f9tYWsvphZ13e6FMVxy3m6a19jkfov/YO5Ye2jXVDQoYLNQADHx+sJN643p8Z8d2eveEneKXgIN1c5529DbR6j1j6Rf72xPdj8rhY4LjwuadEw7Q+6fs5wFH9+/ry9M3No+jrd1N6uGYyXn9w9l7qaPJ5YOtH73WTj98vUPyhwFr/vge+uDkXdScL9Nrfc103/bjqLPcKvvlIAKXLtrClKZO+viUV7g+tL4efW0crXytTfaD9xx7gN57bKfmjb3W7Gul720dRx9OHYss5NhtnkSvcFv43RnVj3Ufy93RU6CVO8fIcUI+8fnUnN10fJu2mw1dzXTPK5PFLceRw1w89XU6c1yX+CGtb245lpZM3hPF6Q/E+bstk+ldEw+wnE7x28nH7BtbpsgxQD2BxZP20XnH7hN3bylH93P7fWpvS7T/TR299NvHdtEsPj5tXO/IHo5NZynP50GTlOkZbgMoJ/DH/7cmdmYc9wm0LXXcx3Nbvpzb6pQWPtkca/a00ne3jZfjCoV2VluR/mDGTjmOncU8fWfXXHqtNE7aclOhOaXgqCKkSi8USMa1jfAcGQ5EuR1e2W4cvk2pNWSRNm7GzGEx3KF6t3TKroOV2QZctTuDmZz/NHY7fXLaZjqlo4s6uLP0YyJsDKxz24t0/pQumtfWSX19B0UhiilTb18P9fQepD42vzN1L73RDTY6GLfSz17PUZHDYOaoP5DNvr5eltkteQ2ZzYPJG9sOUk+Pmt7ebjpj3EEa5wZqD/LXy3np7e1Sw3k+rrWTjmmOFRtwIpdnLHVy+J7A9EqdYCZL7XhbZiOy4Hpq5UFudmsvXTxlF10+czuNI64PLjPy6G2YIpdrXntXNMAB5P/NHZ28H3mODZTPEMQ5a8JBmpTj49DLMllueCxQd8irKKzIP/Lu3PCDPOzHMfOgXMhfH+frLR376OxJTrFhftVZoPtfaaGejGORBdIvlpBO7WPdxPKhlC6deUDaC9KGSdQvC0O+NN/IX09yP4NySaIDAOUPywLFA21T6gDpIO+Q6+AzRtJB28axu3jaHvoDVjhPZOW9jRVmPcH02Izl43hyRw9dOHkfHVOIj6eW72DmcT+944C0z6SBUpgs16lje+j4VoRVWTiuYRg5lzmfel7rRY3UDRtZau+yin4BhP3DcDKCc6hKPHo+rtCRNZSNv0lrGI2DO624y9P+TXo2Ntrp6b+g9DYVKwute+id43ZRIQd/op/vaaEbXxhLVz/dRjc930L/uj1PB1xfj4ELSgxuX4VgQECnixmdBRM4MFo3y3pyd4H+ZWsu2h8OTtu7c/Rnz4+hazida55pV8Pu//ncGPrNfh1w0wNkS4FYPg920sF3U3vuIL1lPOcF6QVgEEc+YZAulIo3j+2m5tQZh9meE8YckLQQp48HB68YyK06Lqe/VafbcX4wC3DHhol07bpJ9OcvTaCVrMThKh95OW5ML3105m7Kl5xigzw4M62pk2aNSSkKHAezAVTk/DolCAZx9djFTOI8/9akrqgOkNf4iGMgdrNxvhyuLNj2ik4Iyod8zW49SO+fdlDqGLzKx+dbv+Fj36MDvzwTx4Fj9//xcUIbiY4dm//5fBsfO6zf6q041p97tpn+eG0z3fFSE+3gbYCB/szxvfQGThttxM8eAcQXZQPHRo5Psj0gaInb453r2+gzz46LzJO741mQHT15uvnFcfTfn5sg5s9emEAbD0DBD+tU6yxMC+dHCNJB+0C9nzWxT5R+zBD+cHuB/vvTKFcL/dULzfSzXQXqcYfWt3koK2iH05sPVj3uuWJ8vL1J5pFEkTr7WChYLozUl9spZYjbrCpwfK6zG3JUFpuUTIC2E7efYYA2HbacYxSRVnCGMjo/aMbM4TLotFhpiT7i5k6PDQYrdOJvGrOfWjC1zuzuy9NDrzbRrm50lL20vauPvrepSJ9/rkS/3l+SzjO++lfQcaKznc9KzX+eWo6uTF86kKPvbCxTrwwcPKiyvHDAAzLoljUtMezu82500JzPNCeOJXpDOw/I3Lm/dWKRprS6HR7Ojw7mGAAwA9RD4wvddEK75hkKnL9dgBmEN4/tYj/NAwaxIpQ+2eaBIuFO5gfjhOzjQWV3d5H+eWsTfXdLswx64LjWIg9GnVweHYhUeeqhN4/vow6nQCAfyA+YzuU4iQc6DasGZfCDHG7vvQ5dh/N85sQSHdemMjGYeRDW1ynypvnHYKfl6vPlcGkC7O/I99BHZnM9Navf3t4yKzasHBzE8dZ0MFDGIB13nOTYslwZVONbnj7fCofndKBIvbivSN/fqsoBaOe6mNOmdYzW6YFLlA5Jx8tMtgdZL8TGpw0Tpgu3+qnROtGBP0Tzr3lAemH7Bsg36uGMCcWofW/pIlq+uY86e/WYbeQrgL9fX6YvvZxnxRDKhj+W7riP68087tNay3Rihx5vrwCjzWgNKK/iDjBvvrGjxMo89qNOkopSdKxh5PzmuonOd/fBNpuKfmI4GbHYkfYfDUasyDGkjc3cGEcI7dy4V5cOX40ODCGYFfjorIN01oQeGluIO/ydPMjd/nwP/WS7u20TDCBgfKFES2bmo6v+bdwZ3/vrPurqRXwdLKAEVF4R4yofYXTgg0EYsTlOOFAd5L68l0cEDMALjy1TgfrorElYd8KDBfv7wQJALgYVPwC/aVyJJrbgrNOBG7fJPNNZCZnSpLNRPt1kPvwsF+orWW7x8/vZ/MeuPG3qcqc1J3FKBw+GZc4Dysj5gfuUsVwQl/ya10u0q0dlou5OG8+KogyGapC+B2mvfq1EnTwyjmsievcU3H5AnaYGuSjPSaODu+5LwH4fmFEU5Qpg5uH+TWV6aY8eMzluOBZoPw5Ug8rydRYcP5d2um3pLILu39rFSq/fzXWB2yaSr6B+kZ6WJTbJ2kdwTkvkxmlWhMFAjzwFJjyOcCOu5p/LyuVNH2fIRT2ww/kQzW4n+uQJrByPL9KYvK+rXnp5bx/99fNl2rBPt2EK1EunchusdtyxL1IWYSQPslt4ZneRXuPwLdy03j21RE0sD8ckxNdFVA9iUP6RRaTYjEZcuYfDrBX3y/axz5H76GnhXcrLXWP0dgqD6XZcHV76hhL91elEd56Zo+tPbaJ3HMOdJAYFGRx49OOO09PErfjDb2imGW0qYw93wn//616+6ncDEmsdvrMNmcpXrH95epnufiubM0uR+e8n6SCnceKu+dWuEm0/qNunTSjQ4qlNPMDkuTMn+vnruOKOw8qABSUFgwTnAUoQZmnAFla8/t+OIisJuj2+UKa3jOvR8iFdyBHb50O3IxPC2zwsyYCCQbNYLNJmXe8qjG8u0zFsZNBhM29cmaaN0X0HWUlZvaOP1u+P6+W08XkO7wYp1F2qzjYfKNIvdqvfqeNYeeJBMTkQqzuqO2ekXHC6MoacMYHobXx80SCKvOtfthXp/+1UpckfNx0w43goA9qHHLu3luiuM4ts+ugzJ6kCkE7Db6p/meawYtDqFGHM4Ozq4cRTcSI5YgflifDlisMBd5gDKn3SiHzUjdRPsqyQK2nw5/k9qAv1RnuaPzFHV51UoC+e2UR3nJmnT78pL8dEFL9I+eujeWOTx/2nOO4HwuOuFxaR8sXxUD4Pzqkfc5tF2rPbiN55DNoU4msYLT5+/IZ4ixsTNQC14M/+4fzBVwl9R8fHFdtZQ/tjMzfGEcb3ejG/PNBGq/fG/+wIaSnkaG5Hjj75xha67s1j3G0LN5g4xvAgNYuVDE8n98u7ut0gIWHR2cNGX5uRSAZZ4Xq4Z39qFxQromNb83TR7GbJ32uc1ov7kkqAH6Bg5rTnxAAoQLhq3nCgTK/6P/LwLtwOasq5PDvjy6nbsqXhA+Dn00EgfPbgjoIDA2CBlR+fnzMnlnlQ17y8yorac3t66Re7+mRGCkxoIXoTKzhh+gl4+1+29NFuHuygHJw3neW7zs7j8wIT5U13qM1yQ47viGWgfnYc1LwimJYIMpL1WwuEzybH6fDgz4op8u2Vze2sbD6/jzf8KvYESDs73yH+n2PoVNPE3a1+MpF60jpPz0oCKRP7/2BbiZ7k9pMRhNq4QPPG5+hPTm6iT56QpxZpT5r/t7Jy7Y/7Nj7uz+7m484KeXzcc3QyK6vaTvR8SVKmH71apFc6S3KsfnsK1ou5XQ7kUfI5kokOX9UjOaKJSj0MCm9rbswcYcM/KXeZB4V/eW08fXHDRPqP3c20pzcnV4gJONzJY/N04Wwefb2MAOmLXRzM4PzBG5tpTBP+dsqnozyTg21Ew48D6wj+9BmiK3+eU/OUmr95UePo31aDhNj9H6+VaHevruvpcKuDn91dpAPsF6J/l9U033psgca6kZR1CVq3tyx/JX9hP/u5aNNainRih5vKCZKEW/IQ+gVoGi6f4s6JguKBstCHv63z91isqeE69Dy3t6T52FsUZQU0c8HeMRnP21F5FemyH2aentrF4fn7hvYyD4qpsqNyXFzNnxMCS4zb9kCUE4EB+MNzmujE8aw5BfHl+SgBcuyeLtOnfs7H76k8XfVUQcwXf4W/HLOiwSZKl5GZnjOI7lpAdPVJ5Wid1D4+Hg9uLchfqPFX5TTSDqLyJGUig8hXvqB/39ewLCMIE+Uf+fEG+xNyGBdGbNnv/B3sK/t6+Hh9/eU+uvX5Pnrq9SLnH8qLC+RA9AXH5Omdk7UO5biPiwU+z8cbzfUFPv6YkQE47gunNEva3iTgbSxg//FrWLuEdTpEbz8mqXBG8RB1pBpBjkblvtFgxIocQ9pUns2GcVjAKaGdnxodkGVwEHdenvfxf7Z20I0vtNGnn2mhz6/L079uxxoM13tzg5071g0kHN6D/cs29tLq1zCVrrxpXJ4uPq5JZHv5eMAc8uBB+rKfByQxeBaHex6Hf+ZMIjx/thzM0cv749EE609+9npZZIeIbPZrbSrQ6RN1kAHHtubof53RRF89K0/vm8ZynD9mQU7t6JF4kibbMN6NYNgn/gl4X1RGLc/stjh/u3rzYlCu0zgfEzl9z/kzm+jvFrbTX7+1naaMievzuI48zRnr6y5ZLn1WSYFW7iB6jRUDDIpvnViOZkGQH58nOUYuz3H+cOySZVi7J0ff3hgf5/HNOfrYGwo0vgV5iI9JGA9ufWAgDOoaxxCyY8M/LnQlWD/1y70F+puXW+lXnc3yADqYsF1JGq4ckndOI0RmKXiflknT1wcxJtOFv7ySAIbDShi3zxOmlU6HPanEMbRNom020frOHH3l5TL997VFumpNH/3V80Vaw+3QnyqYXTlhLGTm6M0Tm/i4xzLPn9lMf/fODj7ubTQ5OO6z23NsfFmSefD5+3+v5fS2J8ufPxH/oPL74aWlCm2pCxjDOMKkziLDaDCuY/OdnHZ43Im7jg+D3geO3UkfnLqHWnAFjI7VDU6vdjfRA1sKtJkVihh08jrwerBm4qV9RP/0SkkWEgsc5beOxdUrBhUMChhUIDfZ0fp9OviEbj/YxeHhbmpqoZ/t4itop0dtOIAH+6nsEB2QWbGZ1EIzggGkFie099KEZk1HBhjUE9xSV26QRcECZFCXsDpovm1SmY4boyMcZr+e2oNlzwVq4rpdwINRrIRUZwIHmj8JA74O+iFIBw9o29lbYGVSZ9iwyBSTDh7JU5QvNTp7hjpRO2RjV55+uruJ88qC3OA8uw0zODyQu1kRHI+KYwfZ0fHSY+CVlLSigr+C3/RCB33m2bFiblg3ju7d3EH7Sq1cnhYxhXwzvc6KoIergKbx6I169Qa3fjwHinnqKmsdhQ+tQ75iuL0iPy6+7Od87uxl4a6s45vKNL1NlRZto3nqaIpl4KGVeOAgynn1yQW6YCaOAYd1psz1+ZvOPN3/ivs3mwMzok0c56xj2K73uB+jdYg8yknk8Me9l5pYsS3IOZc+7nKMkX9vu3pAEG23dWTCMBpEeBYaxmHBD0o6SKvxgxw6QXS8C8bup/9x/E66YFoPzeSrRww27c1N9J+n8dWkWwiJgXQtD4BQMNDReyAPfnuKLfToq/lI8cC/QD40q0wnjefBh/djsA4HPIAOWwY33l9h2D+ckUE6zU2t9Nz+Vvrvv2ym/7a2ie5ez/E5LAYmDuADSlpNHPb0ifE/uF7rJrrx+Wb6k6db6epnxtCnf9lBj2xvjQa5SU1FOqm9R8rmBznUT2h8XQI44Ye0xnEiH5jRR5fM7InSW89K10/36OA9i+t0plv3g/R+sL0g+b9Kbunk6YZf5kUBENh6y6Q8178O2FGabCO9piats5/sHkPbupP1ibB+IPfKkR/c9Wm1OnAGxWA/LhvLe2R7M72Khb2ArbdPIroQA7kci2ZpLyHeXxULpMVutuV44tgFiaAuJd98TGBwHKPjLHLUfqlrTPQX8UnNZW6PfTS+tZlaOe67J/fRmzpc4+I6fLmrhTpLiOvSdnKS6fq24MK4dNZ3t9H+ktYd1oydP7WXprADsnBLaeExLh1mc3eBdvQhHueDtYkPzCjTn59G9J+nF+jYMZou8vi+GbztbklCIXp6b4FmdzTRLLfQHnn+l1dx6zUfmetTx33+xAIfd3+uxOXQ465l/cW+FnqZ21YaOY4wfJwQVw2XUWytC/8xjMNN4fzfvuIm5zaMxiCdmNo6cvt1AfGCQ1noKO4yndi6m6Y1d8sTdo9v66HfmnSQ/vOUbjp3iv6FusD9IxSb1bsK9C/bodgU6MSxOdkH8JdePBq+k6+it/U00wQelOa0sScnj9s9U8fk6BlWSIgHvjPG99HMMRqP+306e3IvnTe1h86bEptFk3rp1wfb6ECpmU4f18vhdaDZ3Vegn+9r1wE6GrD1ShcDCP6Si9sBuDXw3P5m6uOr3PdPL0ZT9y91NsnrIxAPgzDidZebOF6vlB1XwVBMnj04kcsI5c/NeLDxA8MbxnTTCWP071BY8rNwYjf958lddM6x3fIUZ9QVqnX9wSb6x63j6WAJA06eFk8u0ilY08NpYMH1D3eOoT1cPigFKAuuyGeMKdNxqDcGz37Z0tPK/gV628SiXKWjXM8faKXtvVCYmqmUg4KZp5PbeyXvoJPTe7pzPPXlWC6XUwY8Xw7YXA7MVLylY3/0QEMoCb852Mp1UaBdXMenjeXc8D40nxl8rDZ1c177miqO3Tl87N7HSoEcPzmG3bTomB56+WA7HzuuVz52M9yrLro4X2v3j5V8of69wuUN2hTsHVy2Cc1FmtHSq+m3FrluD9J7Jx+kk8f2RQufN3Y30/dfOyaSp+0BSlqBTu04SNM5PpD6OMD1QagPf0wLtK/IygMfqDeM6RGZk5pL9J+O4WPJZZjP5UR9g509eXpgWwcrQpwOKw1v57Y5qaUsx+eUcWV695QSXTC9ROdOLdHx7WXJM5SzH+xopif5nDib9586Vs8FHPfHdrbSXk7blxttFHV8nLuViba6pUeVtrdN7JV6Brh1h2OE447jinMDTyz2x7CvnKdfHpxEB2lMVLd6/LVuoeSo4VaMTMJGRLhh6dYwweddNowhCroQtsyYOTyGr/XVcMeG5qbrIdT2HeATB2bTqv1TaGsPrpoRz8H9bVcxx1eJLXTv5nH04PYJfMXdRi3NbdKBxmBGpYWam8fwvjH0L6+P56vdeP8JbX108cxeauGrdVmL0Q/ofHGVClnomD0YmJo5baTvTWtzu9gIH4Ir9DeNL8hADjDgPHegTeIjn2I4P6+XOmg7K2Seac0YkKGkQOlQ5cMbnRWokn9OppvrbnN3C92/YyJ9c8sU6uKBBmm0NbfSyZhxcFW7vbeZNvd28D7NB/IP94vBX/KhFJ4+vsTlctNmDpRT869xnuniumYlyIO6k3xjhgIDoXOr0TLIrIDPDIOySV4kDx3yzzmUB4zlw3jJzIM0tR2Dav/HDiBd5BHKRAyOKWZstI2gXnyaoV+BzUOvT6V/3D5VBvOwPRbLOXqtt4l+8PpE+vtXZ/JAzscd5USdcDyZFSq0SjvxoD505kbTQ336OP9v/7H0zVdncJnbuJ1zHFdmKPJ7+/L077vH0ldfmULb+3CsOD7n8YEdk2jV7nZuM03RDBPAxQPesfbLfS1098YJ9MTucXzcuQ06xQa8ynnf3NMu+QjNi13tyeM+oSz51XNWwTGSdiL1NIZ+0zOWXuB8h4jChOPtzutIqYnOf04DtvghPTXY793DweBXf0By38g2oZXeN/RM7s4/+4U7pQyjMciMjMzMYINt+Wup/1tq/NA1eQaHPCjOPYAMDzDz/uzGMz/0WScQoz25/FXVjwIh3J5xwmlnisbN22oxkYP9YrfEiLbhds4MkAf+FTfQvwfrtp+FEr9UuCSanhhxc17lat5N50du7ezDvOpfdPXBdVov+pddTVvrBG7EQDhFHZpXcemvbHs3XPjR7QQufeRVbLG8GwOWyyMbyTf7yS0JVw7d7wdI5M/9JR/HGG53rNVfyyMhJSsZ+REgM3JJ2j6NuF5dgITb7fdhJa44FVcPvm6kXqM68bZG8DIT6Xq/UGiQtgCZkBWl5Y6fSxN1oGEcPrxHwimyRzbVz8vIIi5HJWH9KPG27ou3sXAbZZIP2155ga2KjZupCWbFtF07w2GlzkQGI/KRQpzGsCDK7rDL+SETtcfqTWrIkLvzRlNujMYiJ4DrUPErgxZv+wFMHhTmHzDGSg0edqcKjfrFAzgGPnTiOgiovKRsEHcw2ukmuhzXgYKkv7MZiSHhAs+quLQT+REnW35w9jmrxKcj+cTAgA6flYHILQbKgg4CnnggdHUYuKMsSLpx2ul8JPPqHXAlw4Uk60xqCp5iJ8vCJhjAfBlkMGM07bgNSBmidoB64xBSJuSlen4UzZOm722XB+xTb+f2fmprFNgukMOnC8vnVepWfcUWOeJQWbVlJuUrvnwQD6lxOurWtMI68OHTxP4+vMYdDFKWgKxyhH5Sz3xc/fEVpTxQZEKlRteOqaIr4bHt5LCnWqn0hwfDM9eNYLDt7Ehjyo3RcKLGj447svkjgxoPcKLAsNspNPAPZ2rkCakubNzxqwyhRotNdMyh2xF2SelOXDcr4ySJE+csOZBP3ajIa4CkzYl4W66EseUGCFEKZDsI5xCJSINNrPTB6ACsxGkiaCXqmcirOJKBvX+YfpgfrTfekk31l7znnS3lQDi4Yxk+v95OKDrIA/yr5CmBk4l04RYb22IhDz7N2A1bwgXhXYQoLUnb5cHXrxLmJZYJMuWCIEyEkx2mod6w/TZs8ZYwCfwOJtrnZUTbatUkI2ueamXwZfRuKbc7vlBi4Iby4pUaMW4W0u9jh8YRISnZwwqX4+GW7UYQNbN6GtrRJfflG58e+rk0hhWJhs+dr2yJrYqNDhxucPOKDrYjpQYmvsrX6HU006izUUe/fU+6gx1ghxuVE/mM3GrVwg+O2tEjXUz5FyT9WOHx6cNGfUEwbP71dRT5yx7sYJePl42EC0nVa2pvpTTOV1Q3UX4Rjm3sk4EMfr4MLqyg+VXj84+yqJ/fPxDCNOCO84Yvftw+55aPC6JgQ9NE0sgTHAlbdqolYuRHhVS4Hck0FF+0zDTkyx8fSAjdSrX6GVy91U/YHqN6xhdt2B1zv55Ob6/CjpUedohbpARpi5zhSJTtYZr/QePa2cCa21Eh9+WbTLkxGk/c2aqNTVVUvNKCjtwN0s4d3mpRP8SNbY9uVxJ1nhH9dzzJTj52x97VZIT5kVz6rar5A5qeytRBQhz89YqO+iXzpWUWqbBRP9jyfurtpPZHMm+VeU1vJ6WG+Qe6iVtP+KeOlkHKFeU/jK91gxRQBs2/85N8aNqVeapOZX60/tih29gSPxfG708RpejyBFs2A7eQkutJb1clJVds8VBX7bIn9yXDcvwacePj4ek/r9XihHUsHxx3uMX2io66Y3/EgFsi4keoTGO4wGVxrtGGtrJa7XRokPvbm54Z+rk0hh2VHa+34VBbjQ7UoUITD94SEhHZ4exGEnSsia4q1WtV68aivIEwryArv+jovazI4k/U8XtbdiVQcagbOFS21BXcGUlVI5HHkHrq12VsYGWIHIzPN4wquukyRPkbTH4AO/12PHCG294tVkScnOap0h2TLVdczq6FykunEZdbrWpE4TxB/ir2MYm6GQipCqpex6Hi4o1TasRvJCo2xnAg97c3m3JjHB6SAwM6cbXlFx16SonxCk46LEjKaiyVnWxyu1YfnMxW7fwm0/GdPVCHHxCqIXUFO1FHoDKtgVJP/abz71HvjDIkwjtcOnq8q5ejMj9+OykzK0/JZFHPsUeifsOAQXph3qoTyHRyah07D2R7wjSSxa2Vbkz1OgrpP0/VSNYtCMvsHCg1b0jZYTu3xg1tDeuplG0YjcWUG+OwkuyA/UCmfsnOXQeUqPMP4oUDQgjC19NJJvMQUy0uOucE/aWRkl8tvyAhO5Cb9Hd2Fix6IHUEKsrjqBWnGpmyuBzp/NeVJjvTZcnKU73HL5mH2B35h7vDDUecF29lp+upkFEpMptAbLr8If2lH1KtjkAjFInKssIn8GOn+Eha3gZwq+1pRH4Moz9MuTEOO8mOV93q5d2wQze21E6Q4dUwavS3iU68CgMZiDxpufV0+mFdDibNRlI7/9XKEuS/v7LUW7yMpKrnrVq+QDLBZLvNZrADdVr2oI/lQKINLqsVhHWbPuZhPce7qoU3jMOHKTfGEaFyoODuPPJK7sseVI5EM62v4w076HoGwP4YaIffiDQbSfX8Z/lX5v3Qj3f1+svO26HkS2nUIH1ox3KgcRuTZ0+tutVdyf2NqjPDqAdTbowjRmVHHm9X9vFDsVlW65wPJa+VMrPGgKFbP9l1Umscyx7PD0d5kpmoZ2ytL2/VBfWXxpEr++Eku5DJsifDmGJjHGlYufnlcDuzjGFO9atVa4pK1kAwnOqmv4HsaJRlIIPrYPNXbxojsZ1nl92UGuNokbvLlBvjKHJo0/KGMTjCQdfaYGMxhcYYCuTu+vPays2OP7vfuQzj8HC0F8Yao4/0gmNrg40hXa+GcTiY8ucXO1d19K12hnEUQYd4uD/1Esaxz9H/DIQwXn+fNOE++wz+YxhDhdxdf/5sPzM33xN7Mv0XsYcqO+n/ij3U82kYhjHSsP7XONz4Ngam/PmHnas6eejatYxhGIZhGMZQIUtXSZt8pm9oDMMwDMMwhgpZukrK2JobwzAMwzBGFKbcGIZhGIYxojDlxjAMwzCMEYUpN4ZhGIZhjChMuTEMwzAMY0SRDx/AlPUxDMMwDMMYKoQ6SrWPzdwYhmEYhjGisOfcGIZhGIYxfMjSVVLGZm4MwzAMwxhRHNU1N+c8/2a6qsxm11yaD49Pz6VPYrt8Cv3OpyWIYYxKonPj+VnOxzAMwwChjlLtcxhmbibT7+xyHXPaWEdtDHMipSNhTqJz3H7DMIYW8//1lMrzNLqQPlrnbzxOfvJfJzs/o5Ec3jU363bRXblfstlFu7A9b1LiQK48BfvYTFpPa52fYQxNZtFHuSM6dR47o3bN5t5u9milN1oHZRjDBFYs/qyDz1pm9wH6ce4lWin+xrAhS1dJmSO05qabDuxWV+sMaVKCTb0bw4ZPt1C7OIq0+Z5XxCX8wUt012cOUKfbFP7uJHdF6E3qNmvF/owwFahylY4XXixEV6i75tI50dUqjM0sGYbnnOen0+yJcHXTc+kL68SMjpqP/p3bx8Rj1knJ8zEYw7JmitJLMOI88Jh4zvRARnyeR+d2kKc4L9l3SPz+OA+hCfuBOJ2P/l2ybxkpM0lHSLlppQ45kKmBwTCGC1/scQpMgWZ/gTsBv04MfHE9ffvdO9UNxeUyKPDccUazlhon6pigEPmZHxhWjrolTC0l5BX6dhgnt4028wUDOsaw8xUmdtAbaUcUBuffqXYBYRg0ngd9mX2V8zM1Y4Nz9wsd1CqzOTjH9I7DpMsyLjxYxtYgTPquRH+sPMWfm5yTldv0nD6l3rERio0qR1FcZ779Bxpi7bufT/j7GeZTw37LMemydi2LhEGfMmVErHk9vMoNH3DVBifRJGzvPki/+aLsMYxhBisX7uQXWIF4V3S145US7nQ+qDOT3St3uY7zFdq6Thw06YNBxxLO3qBDFc8mGl/37E185dd+fKpT5c75SVG2dtLebeplGEYrzT6noM51nalbUcG5+9Q+N5vjz90CTVmSOsei+PH53XrmuArF4fDgJwugiEyqekGUmL2RCy5mYpOOxQG77nVK3jN9rPKNHA6vchOsTfjxyqIbEGyK3BimJGZc3BWb4GdG4k4nZNdWbvsBMkVdMbvTD6IM6UXCrns1D8+5TrUuprccoY7XMIYqRdr8mWozLaHC4G4TsdFZntqkz+/Dzyv0HMZTgfser8BEt7b1ltW7oMj5WSiZHa6XAnWc7pzDmHyZf2qZRrF2xUFXuf1dnRrGEISVi+TtH71NFCkYojzEa8tCJs1wV4vCLJrhOsx4dqd/znmnu/Lizuo5N/VsGMZA6KO9X4wVg+Qt3fjcTd/qgfmGv+2cQfL8PjKEt51k4kAo0OzL+SLr0+NoilPUdj04Mv+sk6WrpE2ecjmqaRrE/CVjWMcEaGDiMIxhxaTL+OoosXYlUFRkKnsn/dOD/r61ny6Ow2hHk7G4/u/aK6aK00RXh9G0cizXMIz6WfvuHdF6l3g9TXjuJtec4PZO1fU0n55Lb0yc3yx/Q5961LyQj28Zh3+yCZWspH91wvJ0b+UyROsD41vW8fg7QsjSVVLmCK25CafI7G93xjDkD17SWZqgTettIkx1B1d2uHXlF++lwuhiP+5EJ8VT4yLnndwxYrsGuFLTWSIvt51oILelDMNw8Dn45/42DRbyOwXH/fNRF/f7c9yNXWn8uevWy+FWsV/MG/UVgZys21srT0n1A3LhFOQtlUZM+p+T8eJi7YdeoW+721D+FttZM0bWepp6yH3lL9dhBqcqr16/TOzJ9F/EHqrspP8r9lDPp2EYxkhjtPS/WC8XPeuq7n83GY3AtzEw7S+XOld1jtBfwQ3DMAzDMI4MR2xBsWEYhmEYxqGSpaukjc3cGIZhGEYdRK8MsltSQx5TbgzDMAzDGFHkw1eEZ30MwzAMwzCGCqGOUu1zeN8KbhiGYRiG0UiydJWUsdtShmEYhmGMKEy5MQzDMAxjRGHKjWEYhmEYIwpTbgzDMAzDGFHkvvJXL+B5N1V59U+/41yGYRiGYRhHl2l/9RHnqo7N3BiGYRiGMaKw59wYhmEYhjFsCHWUqp+v3vpizdtS2677ttiXb7lB7KHKPTNvEXuo59MwDGOkYf2vcbjxbQxMv/WjzlUduy1lGIZhGMaIwpQbwzAMwzBGFKbcGIZhGIYxojDlxjAMwzCMEYUpN4ZhGIZhjChMuTEMwzAMY0Rhz7kxDMMwDGPYEOoo1T55NghZ3RiGYRiGYQwVsnSVlLHbUoZhGIZhjChMuTEMwzAMY0Rhyo1hGIZhGCMKU24OmdX0pZkt9KU1bvMws335JTTzj5bRdrddwZq/dPu30YN/dOj56je9BP3VRZCnKJ+GYYw6ti6jT3JfMVPMJfTgVudvNB70tVFdx+ZIjVlHi9Gp3PiDXTG46uA7Ik82KfNf0ghvz4ZhDAdmLKVvbOmhLWvuowucl3E4uZlWoL6dWXv3RXTrkpE9HozimZuL+KS6lL4THt0199JV4m8YhmEccSpmGYILzfQFWs1tf6EamC+ulj2Km2VeXn0Gac0Xg7gwiYvh/uP7We8HQzlRHrJnuSVNF6Z2+sCVMVGu+pj6jg/xOPcUbRzBM2ajWLk5kz51+c106z2+wXBDuecpuuvyD8lWTH8nSRofvvpJ5ht05S2frAavfj7u/CuXO/8qzJxLF8w7nqbSdJoz7yKaM5P9MAW85EZ23EhLnBxNozK92reh6qyLTdVO+CBPUT4NwzAcC66PZhdgVly7nK66yfVHC86h64IBec0T2qet8v3ppqeIrj2HFsjWdPrg12I5MkN02+IKZeLWR4hucWHW3k101YJYWVrw6SD+lifouhWX0g3Lt7m9Shg/kVcPx9m42MlI5GEhfQSzJ9H4w3A//ZXbLqK7li6UzXrSHyzbf/oAPXztZ+iDM5zHCGR0r7nhE2nFPG0w25f/CV01jw82Bt4E9Z0knjVfnMNynuCw18tJFm+7+Ctupmc21dtAoUwspluvjeNjOrEmmO79tD85vquNF36cbjg1ebX2AANk4B1G+oRP5Mnl0zAMI4sFi7nfWrGeNsnW8TRnyXJ66KfoP1fTqtu4P+N+7dYncIG1jX78yHK6bnGVPmXG2XThEqroe6+7fGl0gVV7NmMhLbqW6OH1G9y2EsZP5tWx5D76iO9rU3mQ9FY8QD926YnCseRD9K5MhSMrfdcf19WPxhe2MP1eJI8ARv2C4gVL7yO6cg4f7DNpRT2NpMpJAjCNuIRYEUnLWbch1s5ZofrGRdPdRj9sfZwe4pO3rnwdDeroMDJPeMMwjExSs8My4+yZTu86/yId4Nes5Iu+c2gBZnNuW0lraANtXOFmhT2JW1x8kbnC+VdjxvF0Oi2njVvcdmLRM/fttzn/RsEXeJ/Cxd8yKGer6TuscIR9Z2PTT665kQtPWjyoW1rDhVGv3GgDI7rg7svcdGYGdZwkty5B44unFD0LPq3TifOj+ME94v7Ysp4eds4hw0A7DMMwjLqAYlM50x0isx18sfjgEze6WRrMaNxIq5ZvoGfCWQ/0U0ueorvW+MF8I93FF2I12coyKLiVv+BSOn2Fj99DK3icaDRy8QflDMoaKyCL/CB0BNKP0nbbIw1Tbhjc26w6m1LnSXLB3RvdPdv0P60W0tWucWrcG2nJcNWWB9NhGIZhVEFuxdCZNEeUEsy+UOLWkq6rCcDsCl8sXnVbrAhgkL71ykvp4WANn6y/CZUdmQV37iqsWcYyfBy5sAyUDbkN5pyNZMFlOiawSVxg15W+m+Ua1HjCce/huo3WKI08TLnph3pPktOPm05TL/pualEaGl84U4MFtc7JTD3uzMQtm+3Lv8Dae4AsoLuRvhItItOpy0GBBbwV95NxDzu8rVRb/mA6DMMwjATB7O/8K4kvlnR9olwIYg3NEj8z3EKreIBPomtPEoOy9JNJpWjqRXfSXRTMmN+0nk7PuBAL01qy7j5a+zV3WwjrMa8N16ms5DQlSoPRW2349+6F7wgusBuefnLNjcy6Y4ZsBK97zH3tr18qO3cmW//HP4p9+ZYbxB6q3DPzFrHryqfMQLBe4Rb9JpDpwAfowjVu4aufKvWD+JKbReF45vyNbrYH/zhazMLiRbqy9oa17OvY7yObLkku3loSnEAp2RfcfR+dzlcgoSw/Pam3p26mu+5+iq565EOBjPrx+QLIm6QhdeGvjirl499T86PtgddFzbo2DGNEMKD+d0iQ0VcdJaSPXf+ZEa1oNALfxsCMv/4956rO6FRuDMMwjIZhys1gGTpK1lBnoMqN3ZYyDMMwjKOALEUI/y5uNAxTbgzDMIxRhv7R42jPlmCd5pZBLDEw+seUG8MwDMMwRhSm3BiGYRiGMaLI53I5qmUMwzAMYzhQ+914DUCeGhw/yyyZHhYHB+/qk7+8D+ChrUbdZOkqaWMzN0OU8O2wjSF54h32TkD+Nt5Cn2zQi94aweEvcxZDrx4MY8ggygL3dUf8vBxmBM8GCk21dxwao/62lA74g9eudeBKNDg7SY0jyNFR2AyjMeCpwHTtzYkXSA5p8MLfLf4ZaGkO9yLl5Puh8BLlW5fYzFA1RrVysx1/w+MTCw+i86/NHwx49YJvcHjL+PwGDDbyuvuGPtQpeeLZKn3DMI4ueKXARXTh0uvlBZL6tu8Yr7g/iFlsf/FYMZvtL1DVJN92nXHx2d9suLuV9CDS9nHC/jx1WypJ6raUY2M1WYLGGczMbu23mBujWLnxr8i/nj4CDVhem3/o4C3jyauQ1AkWNm5/TzaacsRJE5ys0YnY30nqTqrlbopXTHACBlOaVW9LVUx7hiewv7WyLNGRDHRKVG61ZciN0kyc+P2UiVF5ganScfj96df89x8/RebxGricsB7Ene5wfTqRO5Ad1gHvkzJFL2ZN1o9hDGnwskj3Ohe8H+rhK++tnIXgtr1xsZutWMN9622Lg34H/cdivkCNX7SJ2YyY6fTBr7m4mfGrcSM9RHe6eBv1NQ79KUVVCWXpS5RvaNAtankv17WfqTKLZIxe5Ubei6QvJhMN+LYvNHBg8C+Cw8kXvuU260S5kZY8cY7bj+lOnWFJvgG2vpP01keIbnFhVuBV+je5QXbB9ezHJ5aEqoKEidNIxHc8fOV6WuT2D3RKFMqUvLslmtKtp26SZUq+t8vNbrl9lR1Hfx1ff/GrkT5eA5OTrgdRhhNtj/N9T/ASvVrHhfdJmfBKD9lfbbrcMIYarp2ff7bOHrv36FXMoIcPuJtxNl0YvgvP9eEr6p3hTsevys30qehFyu7dT+s21L7wqUooS9+L9fD6DW4baH9f9cXNCZLvh0pfrBlJRq1yI2+A9S9fk0ZfOS06cPiEvSmQW3HysZJy+c2pE2UAJ6enykl63eXxbSZ5nX3wUs6BkhU/fGvtQKZEMaDH76dy1FU3yTLVTjPVcQy048vseLLoT2Z1OZn1kG57ku/US/QCDvW4GsaQwJ2f6YF/QDPo8ubsfkjMfAbvxRsAU1MvOD56cN8TXOjIxQ4t7v9W2yhllCo3eq/3rqXxwArt/OFHHh+Udv7wlXPik4f4KtoPfnLypd7GipdUDuZEacBJWhvMdKTy2QBQN7jCCJUUYTB1M+N4Op2W08Ytbtv/08IZ/1JQoZ6Or1b8gVCHnKr14JQ6PyWvSnc41Xx4jothHE3klkrq/Jfz5raVdc8G9wv6zCVP0V1rvDKwke7ii8KBsn3TU0RL5tJxbnsoIRc7jayzEcToVG5wr5cHyasWxCeWrl0Y3Ir9cEFx5SLdSm17y0DfkN2gk7Q6GEDDW0Rs+KqqIeC2EMu6dUnWGp0B1s3WDfQMXURzZsLNCsWCS+n0FXHc5K28fjjU+J565dSqh2hKHko30XWLvdJ9GI+LYRw13HrH4JxRg37tRvpKvWtS3HkTh19N3wlu1ahSomt6BJktcu66UZnR7bOGM/gFxdI/3MMXO/5OgZFgVCo3a57AmoZAIXFG1jMs81N87or5UKb8FlwmJ+uShAxuzP0tXE3RmJO0FhtoI8uLB1Wto0ZwwdzjuR6uJx3YgwWvg6gbmdXw9SAzM7pmSlHFIKKfjq/f+PVSp5yq9SAs1EXtSxazCV+i1/9xGTpT5oZRJ2vupav4PIjPGc9AZ9AX0tVr7iOKZs5X0pxgXd3Ui+7UdXzuAnbmTevp9LouCsMZpcX0DI8V9a2JOdykZroxg48Ln4EuaxgljD7lhq+0v4K/H2asaWj8FB8WAvPVyLrFQYPkk2WAVwGDP0nrhTsJN6vg87mKB+yGIotfsSDYX6XUVzdhnmQhrp8ZY3krrg1P9pV8BSNRHLU7vv7j18lA5VTUg6LriVgJSpS/juPilUTZb/+WMoYBfA5Um6ENH1FR+bgK9Bmpxbfy3Bl/gXo9fTARR8NHF7Bfu56uTsfPJDmjXJlevHA/mUddHBw95yajnJWP+NA4/eZJZMV5iowpNlXJff22X5WdO5NXrv0HsS/fcoPYQ5V7Zt4i9lDPZ73gL8JLqJFaOaY/F/NV/tF/E259DLf8HiJye2s9fWqgtywNYwgwYvpfWQLA3Y6dh0MO38bArNs+5lzVyVMuhxc1VDfGUWAbbVznbmU0inC9ijHkSPx7zzAMw6hOlq6SMqP2r+BDE11c5v91dUsj7vP6f1ktuJTo7jvtOShDEXerNP73nmEYR4Uat8yM4YUpN0MKvf8q91IT95oPgeBe7dBYFFcvqfvXI5ma76sxDMMwBoopN4ZhGIZhjCiOinKDxbKD+1+/YRiGYRhGbY6ocuNfMDjoJ8GOaPS5OkNb6dM1Qf2/eK5+Kl7gaTSMzJdyHgqyfqv+94nVBf4lZn9hNwyjwRxR5UZfMNjop+sOAr/INmUGPmi7B/1lxfVpDNn3fjReUTEMwzCMocAo/it48kFNA33LdcgFSzjuPeHsAx6L/RT7u03DOApUPjBsCGKLqY0RTomK9HppLb3Y83V6svsz9G9dl9APOt9Lj3YuFhvb8Md+hEN4ox9EPSnXNLag2DGQt1xXcP5n5AnC3/GaER4vPu8z9Kl5btvhb8tFpubtmHhWKDLhLJC7RfAgbutUlZeSEe2H/2K6lV3R029Fdj9pVuDDO6VQbjEk4w94ZsjNeMW356qVAfjZJ/8Xeo1Xu55V3ieXL4viwCTyOeByVJeZyEtFXdZRNpYZ5yV9+yYVX0ysoCdvS9Ujz90mjParqVp2X08+jYoZ0aR8fwtyTZQG59VuSxkjkFK5jw4UN9ELPV+hJ7o+TKu7rhT3K72P0a7iM3SgtJH3bxUb2/DHfoRDeLgRH3KMSuqZdjHlxiFvqU28jXkgHE8fvOk+ekZmfngQwUsuM55ZorflvHmCrltxKd1QdY1N6tHha+6jC25bnBpobqSH6E4XZqO+oiEazDDwhS9dDPdDNqfPrujldXKFX0+aMWu+6OW750IkHoU+iNkwDHTuBaH6t/VaZYi5dclKWuTSRLx66vnhK9dHcSryOchyVMpsoa/Mde8wq6jLOsv2CNEtTqa8++ymWAGS+sdb6N3+el6qWUselJP5V1LwglZtI9lwO/cvDPWzQ6lHxFfIB3wsvhK1WXueiDHy6CxtoZd776OfHfw0vdTzv+n1vmfZbxt1l3dTb/kA9ZW7qchKC2ZoYGMb/tiPcAiPeIgPOZBnpKn5YgUhLypQLTNiSb6ETN4KfijwgPgpeccQXrRWz8PyFtKia3lAXL/BbffDjLPpwiVEz2wKB+mb6VPRs2v0pXO0boMOJvJyzZtpRXRbghWXy3nw8/vrITNNBbMC/b0eYkCzYVBsFjxAF64JblHUWYbrVtQaJLPr+YK7L4vi9JfPesuRkIkXWobHJ12X9Zbt8vh5R/Lus+glmXhB50V0100Dex5SdXl8TOWFsvW0XcwC9f9qjLR8YUmDHk5pGEOMUrmHtvetpme7v0S/glJT+gV1lbazAtNLZR6L6zUIj3iIDzmQB7mQbziydJWUGcUzN8k1N3KlSYv7uQ1TmwVL+eo8oXCkSN3u6PdfY4lpfr5K7+dN4DKg+sFE3ladVOBmLrmxcrBJU0eaty5B3rOfqJu4DcNX9g87/5rw1fx8hE3PnA22DAOt5wwGVY6BMNiyeeR1Go1EX/nRP6rAJ99e7kndJkN5DGMUUCx30da+x+nF7m/Slt4f0v7iZiqVSqyt8Cg7SIP4kAN5kAv5SMcIYW2wijkKfwXXAfNh97bmofTX50N+K7jczqgyiyAzE24a3ytTtd4eDSXD3aLR8P3/y2z7pqf4ynguHee2sxS4mrcC6kzzgrs3kr7ZOrlWQmZz8OZunxZuxbh9tUE+n6DrbstSLgdYhoHWcwaDL8dAGWDZhgSs1K5xt9Aq1jKFt9nY1HGbzDCGO5hR2db37/Ryz3doe3G13F7KHm4HZyAPciEf6dgMjge1U52j8FfwpBk6rwTgzvkevtKMXl7orkIPYSYngVyp30yLopELtxWcMwNVVD5E70rconHuTFbTd65cThecf7bedlhwGSsmfJWdyP9q+lI0IB1Pc1K3nOpN8/Tjpsur/lXB8WtR3Ms+ffqMrGNy7pqIQobXLaiCEym8/ZYhgwHWcyWHUI6BMJiyhchtruV01bI4Pm4rDR69rfnwlffGyv2albLoPMmZNGcG1mal1whtoI3cVq5bHM/mHVp+DGN4sLPv5/Trnu/RjuKT1FvurFBOGmEgF/KRDtIz+mcU35ZK3RLAjBKuOmusITkkFlxPK2RNjk9vJStSbl8GUy+6UwcPH/6m9XR6xSxKKA9rfTYGyqIbgNYtdvtdmGjQ1jUefgYNSlx9acZAwfFl+tIalnfTfUReHpsb1p85wBkPVnDWOBkyyPdXhgwGWM+VNKIc9TCIsiXQfGKRso+/ipW6Q0GOPxQun58nWFlx+ypB/t1sm/xDi4/dipvllmWj8mMYQ50DpS20oXe5KBx9pc5szaRBBvKRDtJDukZtcl//wq9RdVV55TPc0TOXb7lB7KHKPTNvEXuo57NhyC0kohX2jxPDgb9az3/kQ7S2US9dzVrkbRgZjLr+l8HftF/q+Ra9dPA+2l+qa6VcQxibP45OGnMpndTyccrnmpzvyMe3MTD7Cx/j35qqy2ieuTGMkcQ2+vEjwW3JBiC348LblIZhRBwobaON3Y/Q/uLWzH89HYppyU9gM55y5aaKfUgP6SJ9ozqm3BjGMCX5wD29rXpIa9hS/zKbf+WZtKJRs0CGMcLY2PMQ7Su+QsVykUr4d1NDTJ6acuPoTeN/h04e9wHqaJ7FCk1TIgzSQ7pI36iOKTfDFXlgmt2SGs1gzVNigf6hrhdLPbzQ2pdhZIMH8G3u+SEdLO5m5SPXMNOUa6e3T76CFk//U3rPzL+gt0z6PRrfPLsiHNJF+vaqhuqwcpNjq5YxDMMwDMPzeu8ztL/vVcIThtOKx2DNmMKx9FtTr6EFkz9BLfl2yufydOaxl9JpEy+hcU1JBQfpIn3kY/SSq9BWQmMzN4ZhGIYxAF7t/Tn1lrqpVModsoGyMq55Nr1zyn+jM475XWrOt3EKGJ6JmnKt1FKeSPlyW0U8pI98jEa8AlOLfNaLwENjHH78CwXrer6JMQj0mUX1PzASrxeo8cLIepAnPQ/gvVqGYQwbXu9bV3PWJk8t1NE0lSa2zs3c7w2PsnRM64n09il/SKdO+gCNKYzXBBg8ofi57T+idbsepT09WyriIn3kY1QiCoq3s82onrnJegPyQJ+YnCUj623LhmEYxshgX98rVCwVKxQOmHyuhaa1vZnePet6es/M62nexPNF2UmHw42TKWNOowWTf5/mTXgftTcdo8IZKDbP7niUfv7aP9DWg09TT6m7Ij7SRz6MbEapcqNX8vJvkMQCyo104SPBE1rrZUnwqH42mW9DNgzDMEYEXX27qVQusWFFJDBETaywnEJvnfwxOnnCuXTC+MX0jqmf5O3fY+VlMuGNRwgHe3rbGez/EQnX0TxF5AIoLb/c/git2fmPtOXgWuouHWBlJpmOmpLkw8hmdCo3a+6lq/BG5op/g+Cpq4f+D5GKtyEnXkZZfWbnx+HLGsPH8qf+oguTvGXiXhWRtb/fuCkq8goT5zfxQkmYxO00dztneZgm4ibzl5wdq8x7ouzu9s6D4QxZPbfwEuVIvwC0nzQ9m9LlcP5Zt7lq3oYaaHjDMIYyuCUkSkrKtBem0PFjF9GJE86WtTOFXDPN7DiDzpr6MTprysdpcuuJ1JRro1ntZ9KZk39XFJuxkWJTpp6+Lnp2+w/oZ9u/xYrNL6in1FmRhjdIH/kwshmVyo288yZ6h1TjgfwL7r4sli9/2+5nZmfFpbRxsQuDFzXetjhWQlJ/0V1790V065J4YFzzxcoXFkbvjOonbgUVeWW/4G3dyfeDPUHXcb5vSN3Ku/URolui+FzWBXNo4+UuDuft4Sv/JFAUoFC6fTDpsgs30kN0pwuTnWYCKHRLbuRwXu7G1AtA60kzoxw2G2cYBijjNlOeTfJWEfx6e4vU2b2X3ax9CDma1PoGWjDlo6zkfJyVmkvobVMvpZMnvpc6mo+VEAjb1bOPnt+5kn6y7Ru0rfsZ6su4FZU0PHxzPoxsRu2amwvmHu9cDYAH2+h9TGyW9POixoqZHbDkPvqI14bkpYjJl1qGTH3Hh+gCeoo2hrM/6zbEAy8rKNUe5pYZtwpYTyRvx676/JSFtIiVn4fXb3DbynWXxw9+O27uRcmyLTiHrqPltLHaq1Eyy34zfSoqT3aaIfJk3WufoKvr1V6r1HdYjsxjZhjGqKQ1N4nKpQKFD9eD2dv9Kq3b9UNas+0B2rL3BSqW4pmVtqaJrNhcTOfM+gzNm3QutTdNEn8oNp09e+iF1/6dVm35Om3reZb6ZGYoKTttkD7yYWTDyg0WNtUyI5Nag+OASa250bU7c4LbEKnbIEsG/rbkxO2gBZcm3lK94NM6mxErWMmZmVpxq7LmL7OfUJu6zdWfIlcXNW8hDZxN65c7Vw0anKZhGKOHsflZ/ItXIyRnU0pUptd6NtCTr32bntj0Ddq4+2nq7sWtJZ3FwbugWgrtcrsKwP9Azy56kRWbJ7bcQ9t7n2c/+CflZhmkr/kYrfTznJssz9CMROQq/LaVh3G9w3R61/kX0cOPPE7bRbGpvG00EKCcyAyKj4/bKG6fspCu9vvkFsyNtMStIek/bgZyW+cpumtNav0R/Fk5Oj263dOjt60OBSgZkpaXmb6FdBg4GmkahjFiOKbpTZQrt2TPqPDI2VXaS+v2/4BW/Pov6KWdq1mB0QXIIarY7KZ1O/+NHn/lq7Sj98UKWbUM0kc+RiP16Cf5KFQ1MxJZcJkqABULOqGIxH76N+8a61Oqspq+c6V/ieEG2riC6LrF8a0dWfNTN9to4zpKvBBRbrs4dzrPUKzmzHPOfuNmsZq+JApMxpugt6znuDfTokjjWU2rDnHmZvump4jClzNufZweOsRZFFVevxCv65EF5M7NHHqaWsfx7B8fg3tqHdOBhjcMYygzvfWtVKA2KhVZ0Ug9XM+bvlIfvdrzIt3/8nX0s40P0N6u7eyvr0so86ezZx898+pj9K+bvkY7e9dXxK9pOF2kj3yMSuRZNt7ONqN0zY0uKF1xLRQcf2tCb088dH6wELheUmtuZs5cTM/cvdGte1lIV6+4mW5dEu9fxQpC/XBeb7qP6Mo5Ufwb1p8ZzL5gluipRDnidTL9xc1gzUq6la0wvzCy2HbB9ak6W0l0iDM3Uy+6k+6ioP5uWk+nH+osCudz7d1EVy1wMp+Ym5iZaUSaC5bqImSthz8hOr/2MR1oeMMwhi7T2k6j9tw01lJaspWPyBB1Uyc9tu0O+ucXbqMte1+Wv3of7OmkJ7csp8df+Trt6tucEa+2QbpIH/kwssl9844Nfkl3Jpuu+XuxL99yg9hDlXtm3iL2UM+nYRjGSGM09r8/23Ev/WLfd+hAcYfzqQ1epTC15WQ6ddJ7aU/3Nnpp37/T3r4tVOLPQOkoTKG3jPsIvX3KZc5n5OPbGJhzx6X8W1N1Gb3/ljIMwzCMwXLy+POoAwt6S02Zsytp01Psoa0HX6CfbP8WPb37Ydrdu436SuXMsLUM0kO6SN+ojik3hmEYhjFAxrdMo5M73ksdhRmZC36zTG+pj/b2vk4H+vaxYoMnHGeHq2WQHtJF+kZ1TLkxDMMwjAGSzxXopAnvoVmtZ1ELTSR9qN/hNUgH6SFdpG9Ux5QbwzAMwxgEE1qm02kTL6AZLW+hfKkt8zZSowzkIx2kh3SN2phyYxiGYRiDZHbHGXT6pA/QzNb5TsGhhhvIhXykg/SM/jHlxjAMwzAGSSHfQm+csJDmH/shOm7MWdRcnkjFUq5hBvIgF/KRDtIz+seUG8MwDMM4BJrzY+jkCb9F75j6UTpp7GIaXwj+RZWxKLhfw/EQH3IgD3IhH+kY9cHKDVdiTWMYhmEYRi0wozJ3wgL67Vl/SGcdcwlNazlNnkeTK7VETzIuw7DyUmGgBMFwOIRHPMSHHMiDXJuxSYI3S2VpLN6MyndLGYZhGMbhYGLrNHrHjA/TfznhJnrbpEtoatObqCM/lVppAjVRB+XKrUSlZpmZgY1t+GM/wiE84iE+5ECekaQe3WR0vlvKMAzDMA4ThVyBjmmbSYuP+zh98vSv0u+ecAu969jfp5Paf5umFU6hceVZ1FGaJja24Y/9CIfwiIf4kGNkIO+P8na2yf3dl35T8xnGG6++V2x7/YJhGIaRhfW/xuEmfP3CG770+/xrr18wDMMwDGMUYcqNYRiGYRgjClNuDMMwDMMYUZhyYxiGYRjGiMKec2MYhmEYxrDCnnNjGIZhGMaIoR7dxJ5zYxiGYRjG8EGeZePtbGNrbgzDMAzDGFGYcmMYhmEYxojClBvDMAzDMEYUptwYhmEYhjGiMOXGMAzDMIwRBSs3ObZqGcMwDMMwjKFDf8+5yf39lzfVfLXmhj/+pnMZhmEYhmEcXeZ++b86V3X1xW5LGYZhGIYxjMDcjLezjSk3hmEYhmGMKOq+LbV05VKxhyrLzlkm9lDPp2EYxkjD+l/jcOPbGJj75cv4t6bqYjM3hmEYhmGMLEy5MQzDMAxjRGHKjWEYhmEYw47spcRqWLnJ8g6NYRiGYRjG0EGfclOdfMabwhPGMAzDMAxjqCC6iRgoKt6dNHZbyjAMwzCMYQQ0GE9Kq3HGlBvDMAzDMEYUptwYhmEYhjGiqKHc4AE5tR+SYxiGYRiGceTB7afqOOXGKzJZxjAMwzAMY6jh19hUkpq5MeXGMAzDMIyhTFqh8UpObPKUYwVG3IFtyk0VdtL3b55Hf/yjnW77SLGWvnrOPPrqc25zGLHzR39M827+PtdcPQzfchqGMQB2fJ/+mM/1eWL+mL6/w/kbhxHtX+ed81V2jQS8IpNNPrnbKTROwcFnpCGDbXRSVZojr7gYhmGMMqa8n768ch2t++7tdK7zMg4vO3/0TbrjsmvoGrqDVg/3C0inqqhhDQYmpehEa25yydBOwSmxGVlMfs+XaR1OqujEOpdu/67bZvPl90x2IQ3DMIwjynNfTV1wBrM6si+Ydai5rbPsCVn3hfMVbpb4R9VnkNbeF8SFScxA9x/fz1p/P5QT5SF7llrSdGFqpw9cGRPlqsZOWr3qMbrmrCvo4s+dS3c8WU+coUylMqOqi1d0qv5bKlRwRhm1Tq6I1W56T02igaZPONcA4xmh/k+K/vEnbpBOYpo3OQNV9SRLlDXMsyNVF3E5fZnWxh1I6qT1cRZ9/jHnH5M8aTPSjUiVM1VGmETd97ffHZvvh7N3dd8yMwzjsHPqFfHFJ5tllz1Gn73bnaOnLqRr6Fna7PrKtU/ewb/xLMTOrc8SXbaQ5svWZHr/jbEcuZC9d2mFMnHHKqIbXZhVnyP67CVxfzT/0iD+ymV0zeOfpZtTM/th/ERePRxn81lORiIP81XJ+F4Qnvuvb97LF9vnawnqSb9udqymRx+/hhaeyjVzxnmcj28OcMwZqmQoOYAVnJr/ltLZnFFGrZPL8djnN9NCt38VGuhVtQbobPo9KWqw9r5F9Nm5yzjuFXoiY1C/5LN02l0u33wS0ecXJU/kjJNs3vdm0yrJwyq6/ew7aGl4BQBF4Kpn41mtu67hciaVsMc+/02iK93+S5ETKCNL6Y7LkDf1R/2EQLFZuv52ly7KzulWUTAqyumnsgPZibrvb79wBz1KN7owh9hhGIZxWJl/1jXcd22mzbI1m2af/Rg9+jTO17W0+t5raBn6JZmF8DMTqhhUMGUhnXc20bNbk+f6NR9+P6tBigz6gfKUZD4tvIz7vFc0J54wfjKvjrNvp4tZoRBSeZD0Hn+UVrv0dj79KD129nm0cIpuJ8lK3ylw0vfWZu0jn6XHvOIn+fD1OFKoVHKSC4ojxcbwZDXYcz93sTYSpvYJUZ1+T4oqiHJAPOAHDVpOClYorohOovfTJ/hESJzIiZNsNp3GVpyHybRwESsh6zdHSgauis793I30fn+inXoxK0CPJcqZ2A/c1cGyqicbOiS+MrkyKPv5rGhllD2rnGn6q/vs/dfQJ6Jbj9kdlmEYRws/W+vMVZid8Wg/Jefrc6v5IooHa8zm3LuaexbuQx4/l2aH/VFi5pkvlB53/tWQfjHo41IzwUvvdf6NQvppvrB9BMrZWrr/86ycBeNC49J3/a6bEYrqcdXqzIvK4UlKd2GdJp/wjBQf3q5UhEYJtU6uo8sdV6GBh41U2fzKY0SYiUmdCIMftHfS5vWYmVkUyNTOIX3lk2DHZu4aasD7n+UQn70kzue8S/iKIqWAVCsnSNzSkrhJ+ttvGMZQBX2vn611M7B38YVfgFyw8EXY9/niS2dpcIFyB63+Efct4axHeuZZZqfdvmpI/+QUpPRsOJtlfCHUaOTCFsoZlDW+8MJtI6GR6YvsZL8rywWCWaPhh9dbAv0FBBM1lWtuIqUmiDBq6P/kOpqc+7lV7r5wxhqd4FZQZOqYrqwF0kvLPPQF16y0BAu41Xw5MQNUrZzpW1q6IDymv/2GYQwtZNaZTnMzLph9ocStJV1XE4DZlcc/S5+9N1YEoCDc8Xm+kJk7O5r1kPU3obIjs8rOXQW5dePjyIVaoGzI7IdzNhKZEb+DlvJFdHhHoL703YV4PwuKdRa+si+X5RAyazQMSU+8BEqNJ5i5GaVrbBLUcXL1B598iVshz93f/3RonZw2Y7L826ti4Rtu7aQXy/GVy+D/1j6Z3v/ha+ixz9+cUC6wMDm9IC+BLPi7g74ZpatTrRF+GjaxvggnaHJdTHY5dTbp3EUL4w5MOkZPf/sNwxgSBLeLFn2e+GLHranj3ytkbV88w7Cae5Qkeis5XjjMSL+T7Lcnv+dGup0+S4ucnHl3b6bTMmZuwrTkwuhGd1vo1Ct0PaCPf85qTlOiNBi3JIBHjfPOCC4cG5X+Dl2knJDtiGaN3PawQ5bUOJPQXXS7YuYGCo4oQfyTk0ijiXpOrn7wA7ifAnxydv/ToQMEA79v+KJsYCHtd2+nZ4N8Y0o2q0HXDRZW33VaXA42iz5/WnAlkQXXn1vMrHFW0+zUgmL8A2DZ3KDTwe2uuUFHFZAsJytcV4ay59HNr5wWzMz0t98wjCFB4k8byVnb5L51dMWl2PbKjyL/IkrMSnO/g7CJvin1b6kbr6AreDs983xNcNtnnVdsHMl/K3H8RLoZaUre47zKY0cSMjVPmbPfl30iWQ9M7fSBK2OtGXqMDek69qTyO7zI0k2SSk7uvrvXuy22EhqQun/9qW/L1tKVS8Ueqiw7Z5nYQz2fhmEYI43h1//ikRWcV1ZukkrRkWao5GPo49sYOOFv/8C5gNdZPLqtMzfR1I7HudP3tQzDMAzDaAjy1ODwn6xGnUBH8caT3M4nFRjdobekTLcxDMMwRiJZt7KOPJW3royBk1ZyQBnvlgrX2MD4QGybdmMYhmEYxpDCKzSBvpLyi29LRYEAu6HouC3DMAzDMIyhgddZQt0l6adPKI5gt6y/cYpNYp9hGIZhDF38e/QO25N35anB8fO3kumlXoYpf3lPv/7FaAyqwCQNI/qLGvdXcLfTTdWYYmMYhmEcdvwrBuwFtnXiX0w8ypWmQIlJmAhRbuCBHfjq+ps4UBh4JNLAhiInaRU5iXecBJq9Q7T/YL+a+Oog8UqB0FiHYBjGMAZPBabLrkm8QHJIU+u5MUdgkbL8u4rrCw9L9W9DH504vaWqiZ5QDJwdKDZYYDySaUhD8Vce1d5jlH7HiXvYXsWTfs8OXhsgJj6Bkg9zUoP3jIRP4zUMwxhe6Asdzzv/Cnnwafot1f6Wz/fDi7uKVw34C1Q18s6kiNR7AmH6eVWBv5X0/fCCM7yITN2WSpK6LeXYXE2WoHHqe5q8f/P5FXTx5851b0MfrXglprqJFhTLqxecYiMzOCNcsWlYQxFNnhWOKu+gktc3hE+flCcY06E1TD4Bl94bvt3aMAxjmIEXOrp3OeFVAI99/v7Kme/HP0ubz3IXdXhXXOI1M1BelvIFavxevVWJJ6KnnlJcEb8ad9CjdKOLt0pf49CfUlSVUNYyuobLc/NgX4sj78fS903JC0Tv/WYVJWs0kFRkskx8WyqC3U6xGdGvXziKDWX2LD4B129OavDc6ONXEtS6TcYn9PdSL1kzDMMYVrh+zM8+u/fSVcyghw+4m7KQzjub6Nmtrud0ffiyel8QnI5flfDC0b37Kd1f100oS9+L9dgrm9020FtZ9byQWF7s6d+pJWWpnO0aXXjdJdvEt6VEkYlnbESxGcGzN0eqoYgi08/LyeRBTv7qgo28T6naehp5EafN2hiGMYxxikl64B/QjLa8ObsfEusdFw3qJcaTZ5zGF5+bKVRJjjx6C+/2870ip0rXY6tWD1LpGubUMfHinlAcBoRS03/E4c2Rayjhyx/9SSb3hYPX86eRt3xnLrBbS1+96g665q7h+rIzwzAMcm/sT/aLS+/lHY18S3V6vSNuMQ3iJcY7tz5LdPZsmu22jwq4hcc1lnyRMY8jw2UhdsNxekoNIzM3OlsDG57ydTZvj0SOcENJLgjWE+zcWf2dKqfR7NSKfHsPiWEYwx+33jF8I3fUN95B36x3TYq7lRWHX0v3BwuKVSnRNT2CzBY5d92ozMP35436FhRj7ea5n1uVqi/M8vM49kjD1MFhBHST2kYXFGNDNBoHlJy03wiivobiVtoPeiFZNmvvW0Sfpdvpxmg6lht34hYUp3t3cMssQk+yaz5s7yExDGMY426tY71jkoHOoM+nK757O9HnF7mL1NU0O1hQPPk9N+piYHcBO+/uzXRaXTM34YzSUnqWx4p61sQcNnZ8n76Jf5WdUZkHLMRu6GzXsCFWYqqZ3D/c8zxclbM2TrF54Q++K/ZQf5V93a/cx1/5LnmUzvtuxrMKZBqTZa3EbR8oN6yIzF1G62otWBN56b+BX+NkACfHXzFgZX9CXmo/qAgDpWgeLV1/O62yl6wZhjHEqLv/HeokxgBjKOHbGDjh7g87V3VUuWHFJqnUuFtVbF647HvwGDnKjWEYhtFQTLkxDjdJ5eZi56pO/G+pYDrHI3qOYRiGYRjGUMFNwoQLiNMmfs6ND+wjeLdhGIZhjAZOvYLW2azNMAB6irOrGLegGMBDkTg2bWMYhmEYxpDDKzHVif8tJeHK+iljW92GYRiGYRhDC+gn1U10W8orNeVySUzJ2Y0k/fbr+l4WZhiGYRiG4ZAJGG9nm3xCqUkpOA1Vbp77Ki36PCXejo3nE/T/EjPDMAzDMAxFdJV+Psk1N5FSw7vYLpUaOXMzmxWb4Nkydb/E7DCAv/sFM0jeHJKiJa/Cz37hZXLGqvbr8n249KwWnnMTyzjEvBqGYRjGMMUvnaluSsG/paJf2FBuYv+GcOr7Uw/N20ybHyc6bcbReiQdHrQXP50Yr8q/46pab+Ougig1rHBUPMhPgWKz6POnxWnddRp99pKUgiPK1jdpdvQOlORbYiFj6b1Bfu+6hvNaTUkyDMMwhgqlXJH2tD5Pvxn7PXr2mL+iJ6dcQz+Zdhn9eNrHxMY2/LEf4RDe6A+dnfFait+KP+GC4goDvN1o8FTepXTHZcvoiiHynqTJZ5xH59KztHmgCsOU99OXncJRib5D5dzPXRz/tfDUi+n2xBvIuS6+h5dhZjwxOeK85EOl5J0qjw08r4ZhGMZhp0xF6spvpfVjv0NPTr6anp705+z+Nr3a+mPa2/widRa2UGd+u9jYhj/2IxzCIx7iQ46RRZa+Atx2/JybLKr5HyrudQN0O62q9VqDI4y8pfayT9RQMBrFZJo9l+ixV9wL9OVlbqxWfS++5ZS+dTX5Pe9PPndhx2ZWw86teLGmYRiGcXQ5WNhOGzuW0zOT/pJ+0/Eg7W36FSsqO6gnv4/6cl3URz1UYqWlnCuJjW34Yz/CITziIT7kQJ5RD05ncY+xCdbcpDgsz7nBuhL3vqaj/o6k5Ov25a3gDccpMrVeBMeKClI+78r4ltSqz1HlrasIrsNLPkv0uRuPgCJmGIZh1EOJeun1ll/Qr8beRxvbl9PulnXUnX9d1JeKJSE1DMIjHuJDDuRBLuQbSrxsJjRMoLdEt6X0LlUQiC31axCyNkXfsFrzRZRHjOSaG5hltLThbwGff+mq5Jtp2Sy9l+jcWbNdCHBaYhZm8ns+UeW2E5RDvZ13VN9SaxiGYUSUct20o/WntKHjftre+hPqLGzTAbjMo+0gDeJDDuRBLuQjHaMGXoXhupPbUgkVRjYSPg1Bbvuw/Vj0enpnbv5+9VmNI8zheX38ZHr/jaEStYwVl2Ah9ZTZ9a31GXLKoWEYhoEZlR0t/0Gb2h+i11rWyu2laIxtgIE8yIV8pGMzOIpM3iQIa43wnBuHaJk6g6N+2BZHQ5j8ni8HA3xgjvrtKY8u7KXLFrr1LVgbxMpXQ2dyMhZST3k/feKyx+izd8dK3s4ffZPuYBVooQ+Df1Nd8lk67a7kv6gMwzCMo8vu5udoc/uj9HrLL6kvd1CGzUYbyIV8pIP0DEW1FW+S5L1SA6LdouSIQ35HJsk1N/P8WqCBzor4v4JfxYpRJDP8S3n4/JpF9OiiypmX9K0r/et4/O+otU9CNku/ystxpsG30AzDMIz66Spsp1fafki7mp6lIh3UIfMwGchHOkgP6RqomIpqcqZMufu+9hS7/WawO4dvmX59+SO8TbR05VKxhyrLzlkm9lDPp2EYxkhjNPa/+Jv2hvZ/ot+M+SfqbNrqfA8/7X0z6A0Hf4eO7/wdHqMLznfk49sYeMPfXqgO1lNioLvEBP+WChQbIRnQMAzDMAylM7+DtrY8QQfy26MbII0yLfkJbMZTrtxUsQ/pIV2kP6oRxYYrJKG3xFT/K7hhGIZhGJlsaf032p9/lfC0mlI51yCTp6bcOHrT+N+hk8d9gDqaZ7FC05QMwx+ki/SN6phyYxiGYRgDAK9I2NbyE+qhfax84G/bjTFNuXZ6++QraPH0P6X3zPwLesuk36PxzbMrwiFdpG+vaqhO8JybFOxROdFjGIZhGKObPYUXqSuHB/QVKxSPwZoxhWPpt6ZeQwsmf4Ja8u2Uz+XpzGMvpdMmXkLjmpIKDtJF+sjHqMXfjQpNgCg3KT+m0scwDMMwDKLXmp6n3nI3lUq5QzZQVsY1z6Z3TvlvdMYxv0vN+TZOQVfKNuVaqaU8kfLltop4SB/5GL1k6CmBVz4xZ8NOWbTkNmXDMAzDMIyI3YVf15y1yVMLdTRNpYmtczP3ewMl5pjWE+ntU/6QTp30ARpTGK8JMKVSiZ7b/iNat+tR2tOzpSIu0kc+jBRObcmLQ0zwV3D5wj2y2fmjP04+N4bNH/9osM9L1of+fTXz+Urhs27Y1Hg+jc9ThRw8yK9OGYZhGMbh40DuVSqVSxUKB0w+10LT2t5M7551Pb1n5vU0b+L5ouykw2H4nTLmNFow+fdp3oT3UXvTMSqcgWLz7I5H6eev/QNtPfg09ZS6K+IjfeRjNIJXU6i2En/SjNIFxaqI6MPywicmr6LzVt0/wNcvuCcZ4yGAjzuvBPo+KHltgkvj9vVV3mHFCsyiVUTnus0IKDZXPUu3f9fncxldc+/SQ1DEDMMwjMFysLyPiqxclHhMDQ1REyssp9BbJ3+MTp5wLp0wfjG9Y+onefv3WHmZzENwXsLBnt52Bvt/RMJ1NMcvFyyWivTL7Y/Qmp3/SFsOrqXu0gEezJPpwCB95MPwcKV42Dk6lZvn7mdFBC/OjJ8CrOA9UGm//vDvjtJ3RlXw3Gp5lcInotcmcPgPZ7zDShQYomU3foJOc16enVufJTr7PFoYtf/5tPAyosde2ey2DcMwjCNFsVxUJSVl2gtT6Pixi+jECWfL2plCrplmdpxBZ039GJ015eM0ufVEasq10az2M+nMyb8ris3YSLEpU09fFz27/Qf0s+3fYsXmF9RT6qxIwxtVcOzfUtUIlBu9/+cXMsX2yENeZxC9Q+ookH5ZpldsKpQtRd4S/jhez/DH9H2Js5ZW33su3X7+USuBYRjG6KXczAoG3l6UvFUEv97eInV272U3ax9Cjia1voEWTPkoKzkfZ6XmEnrb1Evp5InvpY7mYyUEwnb17KPnd66kn2z7Bm3rfob6Mm5FJQ0P35wPQ9Haxq+6uHZGrhJTi3NnzXauw4woMnfQ6mrvOutHsVHm08Wfw82qx+izl+AWGF6++Ql6fzyTaRiGYRwhWkrjiUoFSjxcj83e7ldp3a4f0pptD9CWvS9QsdTnYhC1NU1kxeZiOmfWZ2jepHOpvWmS+EOx6ezZQy+89u+0asvXaVvPs9RX7quQnTZIX/JhRHjVBmtwqt+W4hCq/4xMjtgtnSnvpy/fdU3ypZeXfJbVlNNoNisncssp8RJPVlzgg/BuXQ4WGS9adR6tCtYHLaMq63YMwzCMw0p7cRorJYVgFkVNiUfN13o20JOvfZue2PQN2rj7aeruxa0lN5uQa6KWQrvcrgLwP9Czi15kxeaJLffQ9t7n2Q/+SbnZpiD5GLWoFpM0AU65Sc/ejOxbU/PPyljzcjg59YpIKYFZhVmYs2cT5o4mv+fLiX1+7c41d7HbvT188yuPEc2dTX7VDjjiZTAMwzCEicW5lCs1Z86olHnc7CrtpXX7f0Arfv0X9NLO1azA7OZ9JRdbUcVmN63b+W/0+CtfpR29L1bIqmWQPvIxeklpMyDwypi5CRSajLgjglMvptvPxmzJV1PKAf75FPvp37LTYQ4R/CPq80S3X/n+hLJSi9mzWBm695tuvQ3gfH7vKK8bMgzDGKVMLp1CBTxYr8iKRurhet70lfro1Z4X6f6Xr6OfbXyA9nZtZ39dAIzbJp09++iZVx+jf930NdrZu74ifk3D6SJ95MNI4fSWQLmBUjMyZ2oq0X84LbssvB0Es4geXXTxABUG/1fw4HYSywqfU5N4no6sr/nygNbLYHZn1efIrbeBWUSfnbssmtkxDMMwjhyTcydSa98xRJi9yVI+IkPUTZ302LY76J9fuI227H1Z/up9sKeTntyynB5/5eu0q29zRrzaBukifeRjNCK37mAHnzS5//3VpySY7oSTTc65mQ1XPCL20pVLxR6qLDtnmdhDPZ+GYRgjjdHY/64tPkjPNz1EXbldzqc2eJXC1JaT6dRJ76U93dvopX3/Tnv7tshbvgdKW3kSndJ3Ic0vfND5jHx8GwPH3XkB/3pdRdGpGTdBw5bM3ECf8bqNEIc3DMMwDCPFCbl36cLiYiFzdiVteoo9tPXgC/ST7d+ip3c/TLt7t1FfqZwZtpZBekgX6RvVyesq7th4F5VHyy0qwzAMwxgY4/KTaW7pndRempq54DfL9Jb6aG/v63Sgbx8rNnjCcXa4WgbpIV2kP6pJqSiitwQkFhTrzvDXFBzDMAzDSIPXY84tLKTppdOouTiO9KF+h9cgHaSHdJH+qCW4HRUT35IC+RwcYnJsuQ/c0Q7DMAzDMNKMy02mk/OLaWppHuX6WjNvIzXKQD7SQXpIdzSjmgrUllhfiVUWdYjqVxHQfyS0YRiGYRhZTM+fTG/KnU3TIgWHGm4gF/KRDtIb9ajC4h3qdsY786LA8DfcGRnZYRiGYRhGFnja8PHN8+nUwntpZvnN1NQ3joqlXMMM5EEu5CMd/3Tj0YxoJ05FEXXFfwL9JTlzE7ndR2IbhmEYhlGNJmqhE5rOpDObLqS5dBaNDf9FlbEouF/D8RAfciAPciEf6RiM6CZORxEjmwnciqSsxTlMFW/DMAzDMGIwo3Jc86m0cMzFdEb+PJpSOlGeR5MrNkdPMi7DsPJSYaAEwXA4hEc8xIccyINcm7EZGKzcmAZjGIZhGI1gfP5YemvbeXRB25X0FnofHdN3PLWXjqWW4lgqlNooV2qhcrFJZmZgYxv+2I9wCI94iA85kGckkUma1ExNmlH8XzLDMAzDaDx5/kxsmkoLO5bQRyf+GS0Z8yf0ttxFNLf0NprcewKN7ZlG7d2TxcY2/LEf4RAe8RAfcowM+lFsgNWcYRiGYRwmCvyZ1XIivWPc+bRkwh/Rxyb9f3T5sX9NV0z+gtjYhj/2IxzCG/3Tn35jyo1hGIZhGCMKU24MwzAMwxhRmHJjGIZhGMaIwpQbwzAMwzBGFKbcGIZhGIYx/MEqY/dgP1NuDMMwDMMYAeh/qPBryo1hGIZhGMMb999wZ5lyYxiGYRjGcMerNYopN4ZhGIZhDCOgyLCJXpypio3+KqbcGIZhGIYxvIBOo1ZkQky5MQzDMAxj2OAmampiyo1hGIZhGCMKU24MwzAMwxj+yP0p/mGTu+9rPy+rbza//qN/di7DMAzDMIyjy9yvvJ8qFBe5VaX3q/BrMzeGYRiGYYwIVL0x5cYwDMMwjGGPV2uUum9LXb7lBrGHKvfMvEXsoZ5PwzCMkYb1v8bhxrcxMPcrS0SXSSsvoXpjMzeGYRiGYQw7oMyEJsSUG8MwDMMwhg9pTSYDU24MwzAMwxg21KHbmHJjGIZhGMbIwpQbwzAMwzBGFKbcGIZhGIYxbKj5F29HPnpdOB5XnGEMwzAMwzCGCvl8vropwBQoD/VFTIZiA2MYhmEYhjFUKLASU8izAsNKTMGbJpgmaiqwYbfcllJFxtms7uQ4ojeGYRiGYRhDBZmZKbCCEyo3UGpEyVEFJ7otJR9RcvKUZ9sbwzAMwzCMoUKk0MhtKHXHig272ZbbUoZhGIZhGMOBeDKmusnLquOyrj327vBjVGHNX9LMmX9Ja9zmwFlNX5rZQl8avIB+WfPFFpr5xdVu68iwffklNPOPltF2tz0YGiGjNoe/7g3DqMHWZfRJPgdnirmEHtzq/I3DhvSrUZ2r+eTybW7vyAKaS97/qSpWbNyGNyMVUU6SB/rQlBVj9LCNHvwjbTNJBUn94w6j3nBAFa5kewziJQaD1D7DGG7MWErf2NJDW9bcRxc4L+Nwof3N/CvPpBWo88hspAsfuXdkjXluogbkocDIZqTY+Dkb/YxIoNgseYruWhMe6B5ace2NtGoEHekFn+ZyfXqh2xo+TL3ou7Tla0tpqtseqlxw7c30zJL+FeL+w0GxWUzP3L0x0R63rLiZbn0innk7PdyPfXWkbRjDioqLzmBWJz1bXnM7vrCITGIW283eLq8+gyQz39E+NonZ5P7j+xnoB0M5UR6yZ4/D2fba6QNXxv5m59fcS1dxf7Fiy/W0wHkp0+mDX0v7DV8S2grrMXn5H7jHKThQfrwZiWzf9BTRkg/Ru2Y4DweUgavDI526Ws6awtsYTvUlGl9/J5dj02BPLpCRRnCyJ29LHfrJno3G8zLnX7nc+St1dRBrYhmo4+RtKc33JzlfYTqJTqFWh+hITskupludvzDYWZG5l9Etdz9FX+lvare/cFs30DN0EV34junOw7Hg+lg55Svdqy8K9s+cy1e8T9HGfo+PYQwj0OYDBX/FtcvpqptcX7DgHLouaPNrnriRf+MLUunXrz3HDdYYuGM5MkN02+KK8/rWR4hucWHW3k101YK4/5SLQx9/yxN03YpL6YbUORzGT+TVw3E2LnYyEnlYSB+5+yK69Z4gPPdDX7ntIrprqZ7z9aRfD1JPUb2MDGTqxSsogQ0X/GHnsTRH/OWXQcDQjECmHnemNLqaDQUD3oJL6fQVccOkK+ekTo4b6SG60zW+jXQXhTIHfnKlT47+GveaL86hq+g+WuvDsHZenUPPTyVQPFhRuPaJSO5aPmFD6uoglqykRS7MN8IBPODhK9dHYXTWIlBganWIgJWf+VdSMFPH+XC7BD9F7gzKUO+syNSLPkOnX9n/1G7NcDOOp9Opv7pOsv2nD9DDGQq6YYwkFizmPm3FetokW8fTnCXL6aGfov9YTatuu5lWRLOb2+jHjyyn6xZXmamecTZduITomU3Jvue6y+MZ4qnv+FCNC4aFtOha7ofWb3DbShg/mVfHkvvoI16rSOVB0lvxAP3YpVf7nM5K3/XpdczOXzD3eOcaWXgNxSs00Fm8HT3ED8BbAgVmRILBkE+Kh1lZCa/Ww5kZaWg8aEczOTwAfoobV/LkuJk+FQ3G0+ld519EDz/yePYAVcfJlXlyRKQbN05u1vJvGuTtm0POD7P1cXoI05113/qq0kGs6H9q9IK7L4vDyBXcctq4xW2nSOcbVy4X3H0nfbBORaB2J5cGV2BP0ZL+poZrhltIVzvFb37QHitn6oDOcs1/5EO0dhjcujOMgZGaYV6C2RmP62PRf6xZyRdV59AC9AW3reSLhg20ccVFNGemCwoSM7p8IbjC+VfDXWRE/UpqRnfJbc6/UciYwhc1y9AnrKbvXMnKWdD/NjL9dJ87YoCe4pzq5i2nuwRP6YOnfCWA/4xYUlf7fmbGKzib1i8num1x1LB846rVSKbKjFCgDAz05EpTq3HLrYwBcqj5SbNlPT3snFU5LB0EruBCxaxWh7iNNq5zzhokbp8tuLT/cgVgVua6277Q7y282uGg4ATt0c0Ezk8pONuXf0HX5phiY4w4cB5zvzQvnglOz0bLhce6DfQgX7DoLA0umG6kVcu5PwxnPdDXJdZV8vnEfUZN3O1hUZDSM/dsVvCFWaORCzEoZ1DW+GJ5kb+Ca2D6URpueyQgky/O7ZUZ2YYOEyk3udSTbthTQnkzWnAzMwnlJbjdEpkasxS6lmcuHYeNwZxcIY0+uQ41P4PhsHUQuEojOv04zJr13yH2BxSbJeuC23u4Zef21QcrJivO5Cuwx912NeoNB6bTBy9PzkABLLauduvOMIYbMkNOZ9IcUUr0vA5vLem6mgDMrqy4lK66LVYEMHjfeiVfkMw7PlL4K9ZVyiyzc1dhzTKW4ePIhVugbMhMuXM2kgWXcT98Iy1hk5idrit9d1HX36yxT6Pi38CIX9/t9yGJV2g8sh37JR7i5z29XpOIOILAYJZea4KB+CvcePyJtWBpxpoUVhCyFhUrOq14wflnywk2mJMrQX+NW24r+SlNpaIjCDjk/GQht4duDBbKah1EHKYOYvvyLwRXOf11iG4qO1jvovE9OrPjjxvQDneAoANZx51uf3WaFQ6KZ0UHxR3PPVyO1ELA5CJxwxiGoL27WVJdC+dvS0P5x3o6N4PKZhWf50n01nbivJB+KNkHTL3oTp35dHJm3rSeTs+4mAvTkgscPyO64Hq+EINC4Pev5DQlSoPR/onSfyhoaPq6NicpD2YOPXR+oFANUxJ6iigufuYGBBrOSFVoQqC4PBM0ajELHqAL1wT/lsIiU76CT4Rb8lTqHy1hY9G/8vqr6npPrqr027i5wd6kCpjPX2VHEHPI+cmEOyN3O8/ncU64oLiBJ2i4Pkqf11B/h4jZjjAfN9CHggXFWo9xGXj/+jMH8ewNN9PSLxnhROFJ3gLVjmfjsPwrv2HUJLEk4LvJtXCJfdwffxrbyTV58ieFxHnBfQDCJkZpHdAjWV+7nq7m7fSs53XBrHL6Vm/yzxAcP5FuRpqS9zivlY+00Dxlzrxe+5mKNYG10weujHX2EUl5aob9LDDuNLHWor+xAbl//ObTrOSopuONRlDWX6GXmJdvuUHsoco9M28Re6jn83CCvzuPvIWmetsJA73djjGMocnw63+xMH8xESs3SaXoSDNU8jH08W0MnPq/L3Gu6kT/lgqNrMPxxhgm6F8hw9srhmEYxtBlO26Rh38XNwZNPHOjkzTRW8Fj7SaXVHSMIUvywXS6qNZmNwzDMPoj61bWkWe4PI19qBErMrEyI3ec2KgVPOcGKo1+sMG/ptkMeeTECO6fjsz1GTXuUxuGYRijj0CZEQ0HXk7J8SaYuXEKjbPUoS7DMAzDMIyhBnQbnbnxtlNucqzAxAa6DkwOO9jWyIZhGIYx1Em+l+4wgGd3Be+uS6bn35UnG+4v78P4OTJDHFFqVKPR7cCGK6HcQKFRpcYZN4djHEbsBDAMY7QiykLL4VVIRhDJdZZqqj97beTi1Bj/rVBsoPBEyk1Cqcnr7A3MyMa/jXqwyoU+ITLduHwDPCqNzpQlwzCGCXgqMF17c+IFkkMaeclu6tk8EYdzkbKONfqMr2Cd5ZaNdOEj/b+4d8QBZcYpNuIWK1ZsYCdmbsTkk9sjme34Gx6fWHjKrn9t/iHDyoV/A7UtgjUMw6iGvvz3wqXXywsk9W3fMf6Wz4Phe98qns7tL1DVzA+fkO4UgiguTH9P93YXhw+GMyThrFLqtlSS1G0px8ZqsgSN0++F8Jp76Sq8pDj1QEP9w0XabxQRKDbOEczcsB0qM1hzE83iJF7OMNLwr8i/nj5y90XutfmHCE4MeX9TWrNPnWS1pmDl5ArCpk6kmic8TrwlePVA/DRePdH6O8ndSbncTRGLqXYCG4ZhNAC8LNK9EgbvhwpfkRKx4lLauNjNUuCdb4lX4qBfW8wXqPF75daGT0hPP6W4In41bqSH6E4Xz73AdtCvPAll6Zv/bxjEjL68Uib1KhZDcWoN2+HMTXRbyik4rMzEio0uLh6xyLuV9P1E8qbZOt7qXJOaik34Ysd+TpbU48dX4JX4N6WUoWonPKZM5aWR0PB1v06R1neS3/oI0S0uTGa6hmEYDYH7xXtujB866t5TVzGDHj7gTt6nR/TMJqccuD58Rb2PwEjHr8rN9Klo1t29+2ndhkH2haEsfS9W4uXM7lZWPbP8F8w93rkM4JWayAXLKTaYyJG/gstHlBq31oYVGyg5MCMVeQOs14TdSyjT06J188ifsGIDzbry/SCVJyArGni3UJ0ni7yuPvVm6JonfD1UiXPd5fHDpDLTNQzDaASuX0wP/AOaQZcX8/ZDYiacLzIH8bLgqcedOST6wqRSZESwIiN6jTPqyLwtlTQjE73Xe9fSWOGQN0c/8vigtPOHV5xJK9xsSMU9XTkBw5dHsoEiVPVkSd1CkttMDaABJ7lhGEYj0DfvJ/vFJbfxjttWNm5xbDSb7metN9Jdg3hZ8PZNT/EF5Vw6zm0fDeRis5F1M9LAVI0zsrBYlBsoMM6Eio5swx6J4F4vLaerFsQnlixEG+SK/QvuvowWuLeIQ8GpXBwW3yaKTdYisPQtLDZym+kQadBJbhiGcei49Y7hG7mjfulG+kq9a1Lcraw4/Gr6TrCgWJUSXdMjyGyRc9eNyjx87+yrc0HxgsukbpZU/BMWY4b9OzYLWVQjSg2MU2i8GwrOSASLsy64e2PqxOrRdSbL/MyLm0EZyEIyp+DQlXPixuobZXoBb+ai4g20kU++6xbH95BlIdlAmDmXLqCnaGO4CLkhJ7lhGEYDcP/8wXrHJAOdQV9IV7v+Vi9SV9KcYEHx1Ivu1PWN7gJ25k3r6fS6LurCGaXF9AyPFUf/n6+6bnLFtam7ADPn0EPn88W1C2UouDMla27SJqHgjDS2LqOv4O+H76hsrA2Z+nOLeh/GCScKDRolX5GsWxw0SD5hMq8E+GTluLcuiRvvKhrgzA2nj79V+lkpLBoe/EluGIbRYORPE9l/Xw5fJFn5Ukkd4BOKBvrb6AL1evpgIk7qjxRfu56uTsfPJDnTXple/KeRZB5Tz7nJKOeCT7PMxALo+hcUA4kf5K0if6MS0VacUcUG5JZ/51feHeFXG+Pn6d/7tvhdvuUGsYcq98y8Reyhnk/DMIyRxojpf+UWPrFyM4qfHTNE8W0MzLv3Yr9uWH78OpsS7FJJ3PkSO+ARmnKJY8BmYxiGYRiGMXTIsY4CA1WF9RbWWWCgu3hFJx9pOt6UVesR48QYhmEYxoinxi0zY+ihuoq33QRNiUTRyUOhiWZsYALNh3+cCMMwDMMwjKGArq8BotRUzNxQcuamVK68RWUYhmEYhjHUgIrCaotTaJJGZ268KcIUE6Zx6P/5/b+AYI7KW7MNwzAMwxi2sO4SG/cHqLTJQ8PRWZpAyXGmyKZhbN1AzwQvOMNLxE6/ck4dLzEbiegzdEy5MwzDMIyBkZylEY+Unywodrek5J5VrNQUSw2eucHzARL/7z+e5iwZ4DuRGkXiVQSxGYyiJW/p9jJqve3bMAzDMIxDJq3IwPBPwuTVjgNgFkfX4BzmNTfuKbmnH3e0HkCUfFATXpV/65KBP8ZaHuLk4huGYRhGSImK9HppLb3Y83V6svsz9G9dl9APOt9Lj3YuFhvb8Md+hEN4ozb6r25ZbKO6S8ZH3i3ln0gsTyd2duRuNH7WZMGlRHdvjJ/meJSZ+o4PVby24NBIvQAzc1bn8cQ6pPTMUWJWaOYl9GD4SgXsY5lrojD2fhHDMIyhQKncRweKm+iFnq/QE10fptVdV4r7ld7HaFfxGTpQ2sj7t4qNbfhjP8IhPNyIDzlGJaK+eMUmMOwdIW8FF0UmpeB4d8OR5whgtmQjXfhI8A6mo4y8pfbaz0SP1T5U1nwx+QLMFfMupfmp91Q9fOV6WuT2V8wcsRI4/8oz49mlFWfSVQtSCsyKS+krdKdLw57NYBiGcbTpLG2hl3vvo58d/DS91PO/6fW+Z9lvG3WXd1Nv+QD1lbupyEoLZmhgYxv+2I9wCI94iA85kGckiRQaaDMyi6NajW6rW2du4EopOHAcBtUmwL0kbf0Gt32kSb6ATN4K3ijc+6vuWhqvMVqwFG8M/0Ji9kXeJu7cyZmjbfTgPXi5Z/BCNPcCzsQbc5fcR7eM+veKGIZhHH1K5R7a3reanu3+Ev0KSk3pF9RV2s4KTK+Mt/UahEc8xIccyINcyDeUSLmBYgOFBr+oPLcF8rl8nvIwUGzyMNjOYYf4NwrcRknO0rhXyc893m0faZJrbmBW0OKBvQXcMAzDGPUUy120te9xerH7m7Sl94e0v7hZ/pyjrwgYnEF8yIE8yIV8pGMwkXIjTjH8K7u49oR8AcpMIU+FQkFMk9hNVGjS7UaBmYn41fQwQ+VV8jENeSu4YRiGMWrAjMq2vn+nl3u+Q9uLq+X2EobZRhnIg1zIRzo2g+NgLUZuMkUGag0cup3H7Ewhr4qMKDUpBadhJF5Nr2ZovapdbwXRtee4W0FuQXBdMznb6MePLCead7y++p7L+qlrl9NVy+K4a5ZdOoA1PdPpg5ffTA9feW+wBudeumrFzfQpuw1lGIYxZNjZ93P6dc/3aEfxSeotd2YqKIdqIBfykQ7SM0SHqcArOTD5vCgyBfJ2oSlWcJpYwRm5JNfczJzpFgAnnsVTmzVfDOLSfbQ2iLvg0xvprnWLI/lL1iX398uC62nt3U/FeVzyFN21xhYNG4ZhDBUOlLbQht7lonD0lTqzNZMGGchHOkgP6Roet144bf5p2cuougq859ql3xL78i03iD1UuWfmLWIP9XwahmGMNEZj/4u/ab/U8y166eB9tL+0yfkefsbmj6OTxlxKJ7V8nPK5kTwBkcS3MTD3qx9wa2304cO6mDhJ7RXDGREMwzAMY7RzoLSNNnY/QvuLW91A2zjTkp/AZjzlyk0V+5Ae0kX6RnwbKm0a93cowzAMwxglbOx5iPYVX6FiuUgl/LupISZPTblx9Kbxv0Mnj/sAdTTPYoWmKREG6SFdpD9qEQWmhmKDP0q5oBmwimgYhmEYRgI8gG9zzw/pYHE3Kx+5hpmmXDu9ffIVtHj6n9J7Zv4FvWXS79H45tkV4ZAu0h+tr2rQxcR+SXGlYiO2/ldcjb4dXO9h+RdpGoZhGIYR83rvM7S/71XCE4bTisdgzZjCsfRbU6+hBZM/QS35dnnW3JnHXkqnTbyExjUlFRyki/SRj1FLNHPjNp1yIwYzN6rIsP5X1LeAF/v6qC+wDcMwDMOIebX359Rb6uaxM3fIBsrKuObZ9M4p/43OOOZ3qTnfxinoiN2Ua6WW8kTKl9sq4iF95MMAbi4nUHBEuSl6A6UmpeAYhxl5kejRfOnlanl5Z/qlnYZhGEY2r/etqzlrk6cW6miaShNb52bu9waD8jGtJ9Lbp/whnTrpAzSmMF4TYDA2P7f9R7Ru16O0p2dLRVykj3wYUGrwExts50vlkszYyKxNaEbBzE3yrdtqBvoiz0oZybd3H31SbyeHyXxDuWEYhlEP+/peoWKpWKFwwORzLTSt7c307lnX03tmXk/zJp4vyk46HP6sPGXMabRg8u/TvAnvo/amY1Q4A8Xm2R2P0s9f+wfaevBp6il1V8RH+sjHaAU1KDhHLvxg5qZcCtfb6C0qMc49MtEBP/HWbTF4U3nwVOB6WXIfrfUy5O3dQ03BwUs6N0bllDeURwrOQrqa/a62pwMahmHURVffbh0jy6yIBIaoiRWWU+itkz9GJ084l04Yv5jeMfWTvP17rLxMpjIrNAgHe3rbGez/EQnX0TxF5AIoLb/c/git2fmPtOXgWuouHeAxOpmOmpLkYzTCWovoLfLHJ1jyIw6duWFL/i2l+xAYlkQTt/6MQNyrDFZsST/xdzp98GuH+BRgeXv3cnropzoDJDM7iZmSfm4DyW2qcKYlVJRUKUvMLg3itpa8oXzFA/RjkZvOj9tevow+mZmH8MnMziTK5/O4TOT4MOnyZs2a2a0xwzCGA7glJEpKyrQXptDxYxfRiRPOlrUzhVwzzew4g86a+jE6a8rHaXLridSUa6NZ7WfSmZN/VxSbsZFiU6aevi56dvsP6Gfbv8WKzS+op9RZkYY3SB/5GI34P0HF+gp+ZY9UDtzybym/4W14iVscI481T4TvkDo8nH7cIN8BteD6aIZFZlnwjqqbDsdtpDNpTo33XN36CNEtVfKw4NNx/rZseYKuW3Ep3ZC6nffwletpkQuz9u6L6NYlgQLGCtn8K4nuWhPIcLsMwzCGPGXcZsqzSd4qgl9vb5E6u/ey24+fOZrU+gZaMOWjrOR8nJWaS+htUy+lkye+lzqaj5UQCNvVs4+e37mSfrLtG7St+xnqy7gVlTR5ycdoRJQZr6P4esa2ajLY8DM3GiAK6NxxwJHHBXOPd67Gsn35n8is0KIGaU7ypvIV66lxD/feRg/ehJd41lburrt8qb4ElKmdh4W06FpWZtZvcNvKBXdfFsnHG+EvoKdoo5v9gXJ5wd131vkSUcMwjKFFa24SlUsFCh+uB7O3+1Vat+uHtGbbA7Rl7wtULMUzK21NE1mxuZjOmfUZmjfpXGpvmiT+GGs7e/bQC6/9O63a8nXa1vMs9cnMUFJ22iB95GM0Ui6XRD+RT6ivyFftvN6f0gU4+G949FcqcY/cBxinB+NDYsWlNN/dWtEZiUO5tZVaALzkRud/aDx85Rwns/IlnwNma3jLqoWW3Ob862IbbbQF/oZhDGPG5mfxL16NkJxNwZD7Ws8GevK1b9MTm75BG3c/Td29uLWkEwV4F1RLoV1uVwH4H+jZRS+yYvPElntoe+/z7Af/pNwsg/Q1H6OPSKGBcR/ecLaE4LpmBUYUGTz0Bsa/HZzdMCMRmYm4bWXj/n4dLije8t1DmJGAYuPeTu7lreC8NoBwQfGWr8WzMgMGis2CS+n0FU4WmxXXun2GYRijgGOa3kS5ckv2jArlqKu0l9bt/wGt+PVf0Es7V7MCowuQQ1Sx2U3rdv4bPf7KV2lH74sVsmoZpI98jEZUsXEvzHRGdRpVcOCfZ+0GGo4oNl6hyRe8KYigEYcs+r2RllQsxIVyEfvpotdDewbN1OPOTNzS2b78C3Src1eygTauILpucTyrIuuDIqbTnHnhrBPn957GzOzUzZb19DCFt91W06oBzdxMp3edfxE9fGXwr7Q1K2vUiWEYxtBieutbqUBtVCqyopF6uJ43faU+erXnRbr/5evoZxsfoL1d29lfH6+CAbizZx898+pj9K+bvkY7e9dXxK9pOF2kj3yMRlS5cUpNaPgDP8B6jd6C8gqOzNzkvRmpt6XwryjMOEDBiW+v4JbNQ+fHa0UaQqRIaRo30IdqLJ5dSFevuJluXRLnaRUrEiHyT6fbFrv9f0J0fmNmdupmwfWpeltJNMCZm6kX3Zmok5lPsELn9hmGYQx1prWdRu25aTyQtmQrH5Eh6qZOemzbHfTPL9xGW/a+LH/1PtjTSU9uWU6Pv/J12tW3OSNebYN0kT7yMRpJKDShUqNf8cvd/w/rxD9EgmoIeu73vyt+l2+5Qeyhyj0zbxF7qOfTyEBudT1AF645lFt6hmEcLUZj//uzHffSL/Z9hw4Udzif2uBVClNbTqZTJ72X9nRvo5f2/Tvt7dtCJf4MlI7CFHrLuI/Q26dc5nxGPr6Ngdlffp/YkerCuoq8MDOcqNEn3rhFxJGJAxjG4Wb7Tx+gh5d8iN5lio1hGMOEk8efRx1Y0FtqypxdSZueYg9tPfgC/WT7t+jp3Q/T7t5t1FfCC6qzw1czSA/pIv3RiiybcYoMllYDVXTi3zx2yE5xqHLjFRtoQYbRcFL/tpInRR/KImfDMIwjzPiWaXRyx3upozAjc8Fvlukt9dHe3tfpQN8+VmzwhOPscLUM0kO6SH+0gmUzqqOozpLScATVXkT70UCR4Ug2c2McFmYspW/4f26JOcSnQhuGYRxh8rkCnTThPTSr9SxqoYmkD/U7vAbpID2ki/RHK/HMDW4+RVM0gug3uE2lig0T2oExDMMwDKOSCS3T6bSJF9CMlrdQvtSWeRupUQbykQ7SQ7pGcBMKi4TZ+IXFWFAst6W8YhMqNfIx5cYwDMMwqjK74ww6fdIHaGbrfKfgUMMN5EI+0kF6hgfKjHxFoYGOg5eAi3ITKjbeLbYzhmEYhmFkU8i30BsnLKT5x36IjhtzFjWXJ1KxlGuYgTzIhXykg/RGPaLQeMUGP/LLFh7sh7VMpXjmBloN3F6pMeXGMAzDMPqnOT+GTp7wW/SOqR+lk8YupvGF4F9UGYuC+zUcD/EhB/IgF/KRjgFCxcbbanQGp6xvBRdTij294R8nyDAMwzCMamBGZe6EBfTbs/6QzjrmEprWcpo8jyZXaomeZFyGYeWlwkAJguFwCI94iA85kAe5NmMTo5oJdBR8VVfRGRu2S2yzyeMHG2nFRj5sG4ZhGIZRHxNbp9E7ZnyY/ssJN9HbJl1CU5veRB35qdRKE6iJOihXbiUqNcvMDGxswx/7EQ7hEQ/xIQfyjDTQUELFxptYwcnD4Y0PwD/4qtswDMMwjLop5Ap0TNtMWnzcx+mTp3+VfveEW+hdx/4+ndT+2zStcAqNK8+ijtI0sbENf+xHOIRHPMSHHKMKop+wruI/0FtwB8rN3OT+z98/W5b1NfIwHPfEP6y1gc1R137kH0SOvX7BMAzDyML6X+NwE75+4YSvLSG8o6tYjA3rNwzUHCUfaTyiBHk3b4iHYRiGYRjG0AF6Sxr4ef0FMzh50WNkj/OUj/pVRjcMwzAMwziKiOISGKexyC9vy1/B/c5I49G9sTEMwzAMwxgiiJoSGPyoyhLrMvFfwWEkUOyWbcMwDMMwjKEC6yhinJYS/Xr9hU3NN2PaI/wMwzAMwxhKRGqNajWOUGPpR7kxDMMwDMMYSmBmRmZp3HZ6Iga7qyo3NmtjGIZhGMaQI1BsMEuTVFh0T1K5CSLEEQ3DMAzDMIYG0FT87I1SOR2TL5ZK+jAcsUtUcg/E8bZhGIZhGMZQQRSbaApGHzzsH0CMhxHLNh5TXCqqUuMVGlF0nG0YhmEYhjFU0H9EqZv1GKfUsJE3Leh2XhQaN2sTKTWBMQzDMAzDGCqkb0klFBwx5GZuxOjMjc7kqMID2zAMwzAMY6ggMzfuU6nYqNEFxaIFyTeKBD+9r2UYhmEYhjE0SOsmotDILSmn2OTzlPvGl1eL6sPKj3jCEb0dnAP/+vJ/1tiGYRiGYRhHmelfPAeKSqSnQGcpl3EHCpMyakczN9GsjTqc22ZuRgo4wvYZPp9DIZRjn/iTJtzXyE9/hGHt0/iPMfLR48wGszLBmpu8U3TE1pkb2S0BYfupnRymdsSd3B81H6f8iCLkbPj1Yc1OX1+0KNnLgyAvK55C8ml4k0xLgL+6IlzK3hFvC3F4r6TBlGBjLVFgI78hybxUGhClpV+RUdUODECdouLzKHdUv7FsrHmSvMF2cRIgrHMi/36dFNZIYSquqVCgAkxTgYOyfA4HKd6WPKVssfiTzxdEhjcix9nYDkEsXasF49ZqBQZiw7KheJLzIP9R3cDt42Lb2ZJHZ6J4zk7K9hIVyBN/b8OgTIEd5ZVli+3aKh6LIK/LD8teYBt14/wgT+NChsaP8g838ptCfVAmcVRsV8BpoPye6uHZIyq+q6vKQBWo6P7DeaqFR1349gGD7TCsd4d1klU/KASK7O3ouGUYDaOF9n0MDOq+Ak4qSDmKl8xD0h3vCv09gTQO6A3aAtqIby9NTU16WDQ5obu7mw4e7GLTTd09B0UUx1aRLMO3P18WyGji87jANuQ2FbANdzObJteHcHpsyyPLIEqMSI3S59riH/kN6hDBNW3YfrY+Oo6+j3J+CTi6XCEHbd7L9SY8j2ED5EkyyIS3ECAwWu/pDPDhkX5TczM1c9mb2cY5jKtznKe+nwjDA5VbmzB8f0ShOHyUb9jsldiGBV9vSxSuA2ei/saZsI58mASJNHRb+jFvcJxwzOCPeuFPdGxYFsLIfjEiAFIjovW1zoRjE9z4J7Xux/GJyx4bV87QD4KdjfygSFEduHxF5UVYbzNRXHU4mfBCv6J1F83MsB/ONV++KA0XLi8nEJ8oGAzFRgcOg5NKTii3HZgsv4RxiSFDHs08SimO2B4kKhmlFke8zcZ5JZDkuNCCtwfBIWbbofnW3MYGeLsqOHjOmS6HNhxtPH7Q1cagBzyKG8ZzCWoeuPF6k/O27vQ2R3aGOyBOS00sPzbooBDOG+DtAJFZjSB+hbykkY+UHSehM5wPrY+gE4FbbMRAVP717gApLhdaje/staPQE58NBgTnrxXkcuLlB4Z/sFPSYZ/Utvol4rj8RsdQDMrjjZZLjN/P/kpYqXEKocHxrV33SSR8Blrs+NigfrGt9Qw3K4soj9su8/GJ3aFRfw2ftT82Xr6mC5OBK2o6175+qxHvygpTPZ7vdVi62u64FTE4YADBxZ6/4EPblMFcFWkkKpbEhCT0nbHRdga3P2AaR8JLecTTpywG5664JRxs1JO6/Uf2C06uWKG/ujl3kRthEMznpALZme6DvczAINOS8f4MfpN+WrYkaR9/nKuZdF9QH7XDaZmr1szgcHnDr09d3fpR2JZ6hztM3+/31J83DVl/+COJVklYfiXur9FPs5GrglCxcdu4MoiVGK/0BMoPjFOA0opQdCIm6oYzkq5rl8mkSSEyMvyZSLxzwEokmUBlJCVly61GHJpdA4saEeevMqfV855KDidk5NSBDp2peognG96GPzomZ8uAAMNbKkGlxFu+BtmUNTcSAumJTA0pHQL3xj5tvVJgN4z4SdAojLidLT8yUAa2N8G2ymZXhfHyUsanX8QVcDyoqFKgSoAMoNgWt6sXGKSJbUmbcVUgTZgNnyeiwMjVJl/EyonjjfdHHJEDaZCZMkGaGkbD6XbSL5G/zPguvPghzxoTdqSYRnWZRHz5x0XzPpGRj8hOm8qwEt7tU2Vat9X2frC1jcAUna0m9k9sOxm1jE8H8qU+fJ6QMBv/ifzFhCT3aTliObodGq1r70Z7isCxl+PvQFh/zJyiLY/ZgA2lhpWcvj64UV41UNJEDNoat7FCIccXib7NseGPtDWXDueCf+RXtiRNyRu2nGqjQXgX54ZtHdDZuPpDEWBLaAmIbxwXccSbw0VubzSUmNCtODe3wShPYkK3M5IHNogR+Et6Pp+RiffzrzOoa7XVeP9s4z8SFpYjTCfEx5Tf5K5M4mYQNogkcpydAWJnBPfJie0LHhnZ5ey0RIcPMyBYRigqEpmSHVHN39Pf/gEQlSc8Tmp7xR+WKjh8QQCFxM/cqJKj28nZGXeLIrLTbr+tRqeK9ITUssUZ0YblTGa5g/1ZBp12MAhGIgI/NSG8HXml99VHIt8JEX6jml0J8iz59o7IIxufttoOPrhyMsLPeeuWdqrpwUAM/J3RzlpNnDzHR4ckdezEyo8MmRyWNwMjnSU6PnzYgY82Ou1k4g/7Bx8ZvLwtBvF5j5hQhoQSo/LUzjISTuRgMOkTg4FFrpQxoIiNAaZEffDnsDLdivTY1rQ1ff4Rox92oi5QQX7DOf1VgrRz5yflyaz7pJGOW/w1DxjgVBFzYVw8ZMfHT3x4O8qnGLcpx0m3s9CcAgSoDIT92k/4/aHJRvLiwni31KOzE26pa2/i/fE2xw/khQafqL7EaHiuHqknHzVpKtttwt/Xc5A+3LzHGbj9tnerEWWZirwLxvk7OWqrEQWmyG2STbGvl/rE3SszOeLP7dHHlzOND4DeEmIlh39Yz2FFh3fjvBTZUNLZeJsN6kPzFaknGp5tLiFbMC6+3++M5Ne5o7gii/PtPlIWv4/zoyHi+grrLnbH8jQPgdv5q0lvx36JsK5vEl+W5c+TKE2XRDXj2wtvsQHeTqJhsNeHZZMZlD3lhNGtCNnOjMCk/NNxHT5tsV2e9VeN4B2RR0yGV2ZWszOgIXWPt2uRDuG3s2L2J83td/2sErgrChbvUwXH9ck4by750H+7Sa88/ZUBm/CKgY3eg4ttH5m/kTuM669G5NYADygJgobjTwAgssRmGc4DfkrkiF0S2BlP6Bf5a6PAj7jcRugOkXwExsvSfGHDE8ZTWdVk+mgi09VpVJ+QK0bDac70g28ky4v0WUDd4eNt/ogIlglhIk+C4YzXjgkdoNS3q3c4xa1Bk8dWxbBM+RHZ0onguLItV6NOkdB1KjDYh07XpeM6VzWwkJZzo1MKjOTN2T6fkWF/RGOXxnWWgg3f0SFfaiQ0ZzqKE9maLYRJlCdMkz+ioHMF6O0nbd+6rTIQV2VwaGnnsZEy+U4ZFQebw6HDxh7NC0yAdNywsaH7JCzHi9oHI8eDjYTAbnXpsUrE1bSijy+b5AM2/wZ+laa//WoUzRw2xZ/T1oHE123s1r38izrCtoiAG5HFmUC8nXE/3mIbxxyGZbOHpOODaRD4skFg7wF3bDRm+oOgtdyAbUmIjXioWy/q1I18qXKN21F91NNzkHp7e6iPTW9vLx8vxJXIarPxqUBGTi4Sodi42XDeg7aA+tbzUutd6x8xfGyVqe3QyRUv/nHnpCSHD9qd+GM/I/sDJKCrQ/VQgzp3BscxBKLkuLt9elz4g2MFWS5f/oOvykJ/ouGRrt8H/Hmo5WfvUBbCIo7sQoSU4X2J26rirXKiKoyAh6YtaQXRPPCWePyj56Ya5E/8sEtDslFZ/qNf/PBv5HZ2gMZ3tk9DnM7t+2o3lnh/iQFRKjYOH+2P9+HX152vx0RYNrpf4wDek9ivlvhiZ8ItuHgRkrb8xECIOiJnhTwGUeQ4I0/80XzoRArah6JhZd93//ezkvcIbERC1eYfjeJtEDkckiBsoh538vb2qO0brDZgNHiXQdgsp7mpmZqadbEYZoEkTcbbmimJIkTeFZlgXBhFD45PXweypJ1Gyp1h+EdtIGn4PPlyozziFZDy4PjRYInOyst1+yDA15HPs8p1aTBwu1yInwyscqLjYMe3T1igC+FCQ1aQVmSjYYidd2ultCPVKXFsx52Kr7Oit5FHDOguvwL2qStOg02UJn7x5UBSLtj4QIZsq1vLLIFEnpTby3B2JJcN9iOsz6PkXZRxLYPEZeM7oCi9MF0xOpOVl4WbblbTy+A6gRv4ssvtBncLzBuUSNdKcJqIB58gDc2LyvP54R0iF/h8ISzcGgRhtRzwQ31r3rnesZ/jYZ8HcZEPj26Ly9mJJFPojur7FS0HbM0XOhlE5dy7uM7mn9hPibOqMhQ9Rknj/WEhHWwD8YC+yHLdcZe05CtpqqWebiuysV+3nI+PzAZqQgy7OZko2XAfPHW3+CJvvi5goND0uVtQYqNfxMxNb5/YHMrHjMqltsbHEgFdE4mZ8SapX+3M0UeyQbtEetiWP74i506QlC+2VaymGNnAJYz0/HnOCYgtBh/2En/vxyZSKqQNujbt5CCc94fCIm0Zici2uhPhGT1+Kg85lvAOlFHqQJZMYCG1O0L44TghTlwivsAekR/HkfR9YFcb2K9e/OPkqp8Pp2Db15Wc3+E2mzAdfHR2iY2rk6icbKe3YTw+7Ui+pIXc4Ud+2Q/70AbQLpBvX5csj9OVcD4+G5GO/c5WJVTTRzxRFKSNQWZ8nH0+WQQDWVVstfxPVAfydTKi/Gkm3Fc2GCcDsFAvCnYiLudLyi5GxyzFy+M4sXITeMo2EwkPE5GfwFb/CBYgig0Mn8Cwizi55UT3VzE6IOpAQDSmtZVax7SyPYaaW5rFDwciRitF8sk/skvy5MPIHrc/jMcHB/G4ImQAFjfs+ICm8Y0JFRe5XVqwNSXG1xpkSt542++U8LDxxQ/iqmxtiM6GpwsHIFLy6a5gog4kSsMFAojDbg4Ch+zHttxSkjrADg3r4/oyaHnc1VCB3V6hkdkK+EG5KWi+fRwOr/WWNDi2uMWDBqcpwHJ2gPeJDo8rh89bVEaRxR4ou4YQf0RXGfCVDd3mL+cYofSDsPyNTlBXJsSM8sW25B9pORtxxMhuDCyoBx1YdDDx6YkEbcfSntngeLEMP4uAcFKHMDwIIVrc9twqf5YJRQkKFPa7H0Fmxfx6DJYvnRrCskFZMDtWlLVFnC4bHHM9Rlp2/KilBeJSRu4Y+DlnQNIrI4wrfwTSDYzG0fMObk3W2wpyp2KSccWk/EKc9IS/ynXnJf/4dDR9tcXITu8vDv5Fm9VtH062WbymELqdHcwAxPng8rhQ4uX8+7jv6+ELvB7uB2GXuL1IO5Hbo9r38UF2x0flIaa0W3ZjIMcFn18iIOer7OP2iG3YbNCWuIGgSJITEaZf/pGSC5Ir9+POiGhb0k4Z2cOWbCMgbOkXRaz+yBcbLrz8apsrow0jfSmjntdSxzAik3ERwn2hPID0pe2jHqR/wj63ny0nKULyDhGOwCmyc9w+EUS34fbbGk+jwwP5gb/K9HL0/NVz0isdsfKhbT9hUH4599HfOD98IJB/dMBWo55RsiLPH3c99i7jDtmPtGF4P+KrfDhVihbNxYv2w9YwyJ/YbKQsMCJPKiLKi0Twchyh7OQeH08FwO3TgJzIrSHEr4IgLbg4RhQPBrvDek+T++59z3E4lyCSSachcVB53sluseDh/f1OpU+uUqDc6JULTuxI4ZFZHfjzFQzvQ9rt7e3U0dEudisrOj4NL9MXRvOJ3S5d/EggybnLu4vkbMTRQYfDuAaGhiYKjx/UArSRQH62QXiNoo4wb/hwKA2HL9sysDp5sRsNSEJKnEic5NWdCC6vPp8in92QqyACEtG0xQfxEQ4DHj5wYx9s3q9lEIfkRTsMHWDDzlP/9qyasE8O8SVP6JhxO8p10MgTBlmkI/J93UnZNCY6E80Pb0p+Va76uW022Eb+2RK3ixCFdQ6F3bqHbU5TgvPHpyVlEcVGy6bRfGR2OeVBZmDYIM+oF8TG8YFyg3hNeVwxq/KkcAgOD2Ud5UYbRnzJNsrCH6lb1KusYWuSWP54wsZ+Xeema918fXkQBnJlASoPiAifh7LFx6WJDfyxX8LgHJL4DqlIzgUs5FncnD/sk59sJKxDjmWQn4gML6D5F4dsiyipiwy5PgwjpY7ODdjaSYUG0RMynC1gA+FkqIZcPjYIL4FcuZEPyUvgRhi3zQeT7UDJQVQWhXYgTpfdyBZ/5E0sRpVVTV+3NVRZ+r3ugwfZdNNB/PUbYZAmwrONtoe0cS6hbeiggjqAgsPHGrPZaCdso71E+8XN7QbnqYRHG4Jyw0o70pcv8sHopjocUq+wXZ7FxteXAzZ2iTfcary/+PEnBNKxT+uaP7DRd6GMbOMT9WOog2r4XSJeU/Hpo61oebGN88H544PEPexGeuLkjyaHNh2KZ3/2CONCtsaDL4jlwIrC4TgERvLljw2HSfTbrg5g/PGGLJWqDl8n8tEdjDogU5Q69Cd8vFG2KB67JEfs5+tBcbmWMD6ss31a0bFIhvHKQnw+shwvOxYvP2Ix3ht4PziiEN4d2fwru1yI0O3J2IhCID5bki6yJZmM8XnNfc8pNxLcRfIyIjQs/0g0teEntroRwlnS6aoCo0pMdzdfveAKpqc7UHTURtpjx44V0zG2g8aMGZNIS3KGfMFwQ4GPT9eH8WjzBWyj5TI+nig4fED1ZIOt28myQrY2VsjXAxwb/nHBkCsn2xnvByQ8PmzLCehPhEC2NxKX8XL8iRDlE/5s48RAGhwJoQNnnK4uLESnqUqHNGCUkz+eqEycH3kuBw+aMvXNg7icpDiRkFcoNyxYpCMNtkQR4AEd8qVDxrYYTY+Fxyc8pxXlC5HdBixfXyiAL7cPH+0DsHgH8hDKg1t+1aGWVIaC8d3Xub/iQ1yR7WypWzeooFxyrEQG6ibHgwkUFNySwiCCgYPjIh6HUKXDKTdsUAchiCPPJ4FyxFfeQG7fQSFkxRDtQOocz+7gMGhzviwA8vTcccoNjhEfH1GGOF86A8ppywVEr4ul9aSdp+ZTyolteMUhxJUAZQvhTQkX1ClAHVWi7UlcbEEUtiQlJzcUr/tUlhodLGSwivzY09kal3+cDStOAzaOG3f68EE9IigH8MeLj7Db9rY32GYjUuBmy7kFbkRIQ8TCkg211R8p67a0GxgkyR8oLkgDz7XpYtPd1cX2QVXB5PzXssp55M4ftI/43NHzEG0Ez3Yp4LY9tycoNBqGz1WWIbejoNiwH+cCueJ03YAs5YksBflyTskySpC2sc9vc6DoeMBfImFbw8g+3aFyJVmU3dU1mh76BnbLQC/1gmy4OnbhgUvBOzQt2H4P15vY7K9KBM5P5AFuxHMRGY0Duc4P6SCIS01nbjSOpuO3/T5EURsRozzqDukbtW/Ri0BRQHBccWw4TDjWREb6Sz7OqIAQ5A0fqZvUPgby9OIT575TblxYH5pT1rzjJ0UoW4yMC+54oM92YZxD6lnPQ7Qv2L6+1S1h5at2mqz9ofz+9qsV7wv2MrFLSW8DVwuoj+996zkXu5YQrbQokv64AssuQQ4+A6WlTxQctXGSq3Kjxs/aSMfMSUGpGdvRESk3IBDLB8OfGJpHSRc7AluBDb94WwZ3HEwcVDQyaXTYhkwYF9QB2Xpw2aCj8W4Y3u+DIy/eDk0a6YycLOm4QnlsOJLKdPETJwT82BaNH0YkMkjHzYAoLq6rJ1U2VEa0zaGkdlwecDJioJQZBNeR+pNTO1Dc/lC5MPwj+ZBbIU623BLhD05cyEdcFs42EorrS+ILfDyc2+/Dj9o+jLfhglvj+PCwIVus5I/KcPt8GaSsbEQC7xeZbPs2oZ0vlBsdHIDUAdeJlwET1QMDW9bZcBvWOtZbUdwPuvRUeRHFkesXoN70VlORA2E/1znvgy3tAIaBHFGeIF/iFFUWwqKTY7comGx6cZsDecDg7No0blmhiHHnpWXlTGrZ4ePKkSDwUxfyE/tJHgNkG7uRdfXhYuFY6bakJtFj230lrhYZNupX7diPDT5sS1QnA/ujwQY2Wzg22MG1DslRGqgLBJAPbDk3YLxb97GDfzHYSixsshiv2Oh+5E82kT/ngI2k4SOdP9wS3KfhZm74wq6bFRvM3iBSVD42ul5Ow8NWqSKS9+epGTM2fLyxJlHWmvBgirVwUG64gXIYVYwhiz04eR1YFbX9loD8saXhYcuvpip50m3/6/OpHkhXzxHxRwjZr+cL5Gq5xeH6jrhs8A/rBh4ImkZS80lGDrXD9OGWCw/sYyOWD6+ljOLJYUQY74/fqN5it8SHLW5IgVscUV7jtLndpvoIGOz3fa/2Mc6Nc1bqwUuK8XWStQ91q8oNFClXXuQH4V2YKN9uOwShIvncNrw7qdy4X/6qcuPqw52XyINss5GwPm2208ge+aqtfu438E/uj90gc1sdnMFghxBuaw3IL6rk/n94XuNWRAqJq81HFCv2dm710JmZ2ISKDRYb61WvXpkic1BqOqDcsMH6G8HLlorkjzsoCio6cklYteEJl9owiBIrNu5Ec+5YYXBy2fIHFAcSBxUy/YGF0fy4wPjKNn9g+21n4KFKjWswrvHHJhIjDsTRkyGZT9H4fUOEXLFdh8zb8Ak7Ev07tI8PeXr1xCm6xutOUJldwCCsAy3y5Aca7BcZ7iSAW29HaX4w+Era2I8Ph4Fs1LmvN0lTqywCbqlHuNngdPH7JSzEij9+4n3qy0C07tUN/+tkiiUCtIzqzZ0iC5KPiGFb6kbL5RPRaJp/qSfEZ8O/br/GR7kQX2ay2MCPg3FcPb5QGmUg4s4ICgnkor1DCcRMj9Q/D1YyOxR00AC/ONYqW4+7Kp94Qivslqij9LfGkAd/TDQOlFsuGyqTU0c5kUltOzCKbsPhrXif5gTgGDq3z2MQTbxcud1eCI4sSVf8XfoSjj+8X+JIW0M0tmVb90s4FSgJQXH0DmlXCIMjI4G8zQZBeH9UZv5IPaCdYjsyaLeoHxBvSzLsUgfSUVvOCzj5R3KI480fPbfZxR6QgbA4R/Dp6eG+Dxd23OfhAk9liQCJg/DSNwV5k7RhMf6pvN7GTA0G1ZzMsqLMmLGSyhOD3DoJ+huLYnivKIaK1r24nC1O+VFp+ME+NT6cuPmLsyLe72Y2RTrKwb/8I+cGPtwuffnEX+raE7tEsEOSRJq6FW1rW+FzTGas9BzV/QjgQqvliGXIr98p7Q3bev5pufRYantCDCiM8EaBtO4Qzis2sYKj+fB9vJ6PXEbYOMZyXmp/ofWUJKybZH2gnbi0nEH6GozDaxAtIfsj52kQSmRLO4uNH/80jIP9pL+DLG9S2xIWcZ2dJmt/lrvaflC5ze5okx0VBfU7dYf8okr+L5QbcYk/6qgK2BGlIGSHLatCA8WGT+6kctMt29oh69UnhHTImpsOau9wa26cHLVQNP7IJv/ADtLlKhcZ0cGQk133wCCedvQsQxqbO+lcx+JlwgUgQw4mOjM0VojHRxwuYcmTdyJvEKC2KhMqG9sqixtIJE9lqYGAOG2JL3H9iQEZuIJ3J4VsIzTb/Ik6cHQWSBduDG7O1mlvN/jxfiSnA76ejF6pkRMHV4aJvOm9Y5mVYXk+X3Ls4M9uyTvSkkFC6wbx1JaseV/51XyzbDjxg6I4h/i6SOLtfoGUGbslLBNYmh4MwrsOCB+XD+ySeJDrZIvNBuXwSoCGxwDAFjorPlbIjz9+Pj6IZCAu1y/QWwaoV2ej02MZUHSQqszEQKnn8EhLp7TdYAUB/of3qWx/PMvR1bsMcmzQtnBccCx0loeNk41ZUd9+sNDb5xtllIxLbrQc2Ke27or8Ga1rty11A8vZ4SCJH19fASJLNBIn1eUDIiI5soHOE2504qgLTZkr0YVDPKTj3NjntuGWc0oGI+xHm2WLf+SD4yvpavuH28uAH1dS5Kf+sVvywI1Bbc4OfuTLfpxhfPy5hG0sdEU8OTY4dnIsiqLg4BY8+j7kVeWLKD0mvK1Z0HMKxxv/RoSnrLmBUsvHXGbvkB5uT3K7Qf0gVzAiUeoabcenEP4CtG0UAOEcUh6UwW2yjfiwpb5RNhgcIPXR7bThD9KRGvQZYNvXufSF+KB8vK11jiAaKxvIdrakDxfS5zLzDlUmYPOAz/5SNIkjWz50Ylvzy/E5XV2vxNsufrSN9oQ4bLCN23zYFBmu/sKLF8lHwrjbUtIGcDzVji+E4vL6nPk6yaoP5McrNjCcGw2B8BICcjRfks0UCCWycQyCdLRvQfsLUmS/EabcrJMzWD24ALAdsXjgtthyWdONCPZ1m/p3R5zUemsKVy6RcsMnuxx4dzKj4rCQWE2bKDcqxgnzFeF/nbffjg6CNEo2UQlwINi4g+qVjXjQUDuWz7A7Vmq8XGewn+0YxMUXchEVdtyofUOWhuEbiMiOjat1JpblT4wonyITCgoHQEjxUwWDneyBcLpfOnHMEEjdYj0IZgv0tgtkIv/oJ5APrFPQdSE69Y0TNsqXs1UJ1bh69aHpwJZ8uPxIRhAHGUT0oFyaaxD7RmG9TyKOEsXTQqpb4iEwtp0E9vPAKQNv6Mcf5ELrjePx13e6kC1tQOomTlOjo+P06ek2LMiCyx8btC8g9YcOz3VyqGPvRhhdm+MUeo7v79ur0gvJkojIlkGZ3cgafkS5aW4R08IGaetxYZvlyQwOKzdQbHDuYR8UHW1DKKuWV8osBG62ZJ9uMbELxPWLfLLld4d5Zre0Kz5vxN/JjpIDvIFSeXEil/fH54az4S822iPiIbBEUSKZqCeM8breRoPorVTskI+cEzhX4IfUsY3dWicKBMKf/SQ95+8UG8mDs5E/IMeXncirlh1tRWcvpF7Z4N9sfXJM9PY7/v4dpQUb4SRdH0fXcuF44vjBS487zk9VbjRdDHa4LeWVG7RvySkbFQvJuqXuCNmhe1Bj6uQfFzjaFolaNm+wUyykKZtabmzALelI4lo+bEvZUBZ85FjgfOP6lWC6rXjbA7mwWDYslFt9xC/RXsRGPUCGZAw5QgI4YOKW/Kuv1Buk+Xgim22tWz1/NSyH5vgIK7UhkRVd/4I46D81rjeQ5c8735eHxpdZxOGHN31diIF/BM6XLOUGkeQrSF6l3JUgrK/70Ej/xfnRMA72i+rVm9S2hEVcZ6fJ2p/lrrYfVG6zO9qM/bXAwbarAflFlcjMDWc69sSvCtNoLBoOyZD3h594Ohu7nc0f/YusTpnj5PYzN91OudEK1gONBtHW1kZtrNi0s93S0iJyFJUpaBbFC2mIky1k1zcq2AgoWUE4Njros0FDg+0anbcFiSBR5ABmGrfPxXBADqLDV9NJyOZtryzpIIZ8JmXG8pwsnATsiGyRqcqE5jf2k5OFhww9cXydBwYP2ENnCcN5Qpp+MEVdqVKDkwYdqFuUiV9X1/72h97u4LSQRlQ+PzgwnB+N6uMHZZN9bpt/4NJ9yIduSzyfKKP7EVtdYmRTw/igYsmG93fS+YtkPXJ82Gi9aWeLbT1E2g5VAm87G2JFXiQfezTPAuI6GwMh6tMbH0+2+ZhrR6eKjVdutE0gDUw1Q5Cm4jeQZUmVbVy5Nze3yrkBBUf343joIu9oDRtfRMAtgyT7a7vxtpZfy4748iOyUCMRzk9AOSInXNGWy6Zuo5wgEQZyojAubefliigOqQfelitnEaN+vg41kkbAb3SkJJsY6PSc92GkWXIceZgk2ipKJ2m74w7ghh+2vR0ZwDZEejcjAzl/kVekJR0+nO54Y9uXUWSykVdNyDGHgqP/DEXa8cCiKUt++IN+059zyK8oNe7cxMyqpsPlRbsSpc6X3dlski3ZuxVsqa/6o2+SrWQwt41Q2McmOi5x+GgfdsJbC+IsLb+vY99X+P5LbfZjS8K73xhIF8v/iO3rHm6vVER14sNFFjvky2FcOdmldce2DNpocxxXlBQ2+tgInI8qNy6v5sfXrTweAv0mZMAtspzhsF6x0XNPy++NtAFGJIn8oK7EYEcM0j4k5SYhW40fB3F+SBj5Zdh/WCk3CTejlRo5Zc1N7McF4F+JIhngD+TC7Yz4u5Mx9I8MPsGBRGcuig3+NSDKTQ+kR6BBjGkbQ21j2sRW5SaZaa5T/Dpb84MgSAs5jhuX+1cMnzfagajBMfQNTfKI/MFGQBWFWPILeTiISCw6wNjkjzhSSF44rlpOPhvIB4ifVmzQWCALbokjIRkXzzc8dbMtden9tF5FuRG3GzRxlVjkQY7NmGI3LW3bRsfk9ZbJ2q4mun9Xa5T2/PYivX9cJzW74mwqtdI/9U2lSRz+vxS20ZicdkbVWNvVTA/sHUMzmkv0Xyd2Uls+KkGCThbzYncTPXagjQ6glbH50PguOmOMtoHXigW6b+943hd3Tu9q66Jz2g6Iu5fFfv/AOJpYKLJfp/jVw791j6O95SZ6X+tuLmNZ5DzUOY6eOdgq9cXVR9Ob+ujjE/ZTu8s76uiB3bqYHT7tPHYsGttLp7f20tg8DzSurnq5DHtKefoVl+s/ulq4DHpcfRtEvI917KIpnGfP2p42erhrrBvo2J8TQId7ER+DM1rj8+G1UoH+Yd8EOsDyffuArOOa9B9RP6Up9MvWWXo16dsGG6/YwJzXtIPe3NIl4dP0cbo7+3L0xN4CPdXpZhr4c8kxRVowVushDXz3FXP01IEc/Yjj9fAxRVseVyjT5VN7aXJTdjzPb3ry9I3X2l1aRDO5zZwztofe0FKUukK1wv9gKUc7uT0839Mi9fWRcXu43Jjt6J8ujrusawq92tes5wyfJ29s7qIPdeymFhmYtS3dv2csPX+QE+UwMvsnX6RelrZ8dkc356uUyFcXl3dnX56e7c7Tz7sKNIb3/deJvXRsIfsceZ3bwz/sa6f9XGeaF+13oODAntZcpE9MQRquQaX4dWcf/c3Le2lWa4GuPmEcdTRpASDrR7tL9KM93OehL+G29pb2PH1oUpGauS0hj998rYX28vGd0VKmPzjmoJQjTS9nez/X1zMHm+nHnc1cPm2/OD4zuOy/z+ezPyfSbOptose72umScfuoVWZPiZ7iY/Vo1zipK/ygPlG9Hx67l05u7pYwu7lO7t/XQR/k9n5scF6EaP51ScInju3mdlVZv2i/nZz3X/cgH220n5rlnEP++Uvvb9tLb27GX+75OPC59J3Oydy3sELAYXBEF7bso//UvFv2oz2sLM+kX+UmqdLASk2k5OBc5vByy0oOk+urHTJzgzBu9iYef2D0tlQ83qgdKjdOpP8RP2/4R+vSgXQbpdz48USNjicSRn4Z9h8uyo2TkCBdr3LmSDD3oxbbMO7geGXFX31iil07VBhdV6OGO1hWXnCVgnCI46XKx8kVpOLcoMAnqz8ysh9BXDAFFYsocSX78GI7WSJPlAjd5dOL0vVu3YmvS8a5ZVvD6P7+Df/gq7bIYjgDaBBikC/OU7TNBvn3MyjSeCK3+uvVRGiwX22cVFpWd1JDaZCUVfHBAAoFR/LkwHHo7cNx6aYZhW46tyNWbDCgfr+zg7rkr/s9Uv7+wAxOT7c+Sl7qoArc99L8tj765MT9NJmw3qpbZhVieGBmGVB+sU/28yAQ4tvcQNA4/jaAWtpedXGnfwx+WEmoox6unx4OM7NwkK469gD9p/ZuVqxixQZAWZrMHfRC3reIFS596qzmH3FnUCdNzCXzezzLa+87oP+a6emig2y6u7sqynUsK5cLmvbRQd6H/QivV/iKztK4fxuijGykrCUotmrQBqqBckxvLtPFx/bR+yf4fOMYVo+Doo9nRea3x/PAd2wv5Vhx7unl+kNbqXHsPQjj6+js9i76o8lddGpbkTqcAgFgQ0E+rrmPzmnvpDcWuuqSHQLl3pcHx+KNhc5IsQFo729u7ZL6w3kg7YDDIexvc74uPxb5KlXkC214Dg/67+3opRObte5r5Q170NZwDuJclAEFsxQQJgpB7XJBts66xn/xB+g3FozN04QyXySiHbFBGh4cw15Z09gt9V2NZi7PJFZIF7OC+SfcxuexMoD6gCy894oFuZCVII3fHCzRDlZEPLPy3VTgNoG0fX2OKx+kafk4D6/05un1Hr6oqFF27CtyHqR+q4RD+0VbnN/WS1dN2ktva94n6cGgD/HjDUAxpD2wTLQJHHfcsg+Rh2G6/gXnEconF4wsB5Jw3LQ6OEcyFsJgEzmM3aERP79Pnf4nBffdzpWmmv+hEOeAXZJXtzms0ExXy7r4xz9U+PAHr7op2nQ/epxgO4ODHdmqfaIhSWOAX2DQAfMOCHK4e89QfmCzieCjiAFatFKnAfNmlAaMCxYccVxlaBJ+vyoMPPizgQ9Hl32iOSOABJavI7Ud73BpScbU8r6RO4A9NKpLJwNRQJy8hOHIYmVG1CupNAjONcNx2HA94+STE1QWl3KHKJ1qn3Q2Z7TwgOquwLZ0l+kX+4s0iQfq35vMtv47ma8uif7vvjF8xYtLPL6apD46vaU7Unx+uL+F7n29hX64p0A/4AueH+7Oi/2L/Zwydwjj8iW54m9hZQs8sovonleJntibk4FlNp7HyP5t7B7DA/7a/SV6cxuuECW4zOz8x74yHZRBQNsPrujf2KqdFC4snjuYo5/uL9C/7mtWw3nCbMnJrUV5oSCuwB7c10bf3dNG/9Y5hv6tawxt7C3QlHwvvamV64LDqJw8beGOGR04OrSOnOYdnT14BXW0r0ht7P8xvrKerI+nkbr71o4c/Z8dZfo3LtfrfEWOfWO5yrZy//30AVXiZW0Hl2MxD4Kz+Mo5BGls6+aBoRMdra6DgkJyGg+mM1tdZTugTD3PFbObBwN0uGd1lNhP5f2mr5W2lFuj80PWWrEsOb+4XOjET27qounuqncHX8V/cUue/vm1Mr3UVaYTxmBGSjvVKTzA/epAL73Ww8e8I0ezxmhFbO8p0f/6dRc9uL2HVu0pclnzNL1V92G2Znt3kTZ19VILFent4wusDGj+n+Tj+DevlOkHu3L0GLeDx3azze3lP/ahqZboTWOKtOQYtBW0NKKfc/ivv5qjh17P0ZpO9uSTYQorXhCHY/XIvhZ6/EArG7Y7W+kYTtuXC8f/7tfH0qN83HHMf9zZRnu5LXultoN66Zxx3dSh2Y5o4TPmGW6DB/q4rXE4hJ/Hx+D9k+J8PcVt+2vbSrTitRKtYTfWb03hURX5epbrcENXkf7ffqI1XXmah/p0afymm+j2bdxWD+SpG/0OGh2np6cx//AXx21Pb4n+dVcf/XJ/H53BjcifO/+xp5f+8le7adXOA3ws+dzi9vVbk9t5f1yINs4E6vKZPaoYz2jJ0enjmjhvOT6XyvTT3X3UyW1hLNfVWeNwDqrsh/j4f21bmR7fXaatvTk6js9LnJMo80ljoLCUaScf9z1cL4/vzdNzXTk6oz0+N37OZfryjhY+TgVWqksi35+jzVywTVx2tBuvbGO28818vNG/9XC+0H9s4nPvJ/vytHp/jk7hPgBKJFh/kOh/bSL68Z4ydXH6zXwU3jaOov1Pcvv5witE/8r9zoaeHE3jc2889184HsdzX7GP63Mzn4d4x90pfL5DeQdd5Rw91VWgLu4bMU6hh8YM6NxmVQiR+5eLHbSzhBMdF5Sw5Iet2MjJor7ODRuO+EJVDC44nX98zN244OzkeIbwzh2S8oDM6CKXxzdNQ6Trj8jAj/xWxedDHRn4vEEIZAUm3D7aaC7DQoRuzZ/88k8eCos3OHFqGhmAnGIjfjh5vcH+cJsNPrB9fHTqGITFjg0653Dhsf+XFRQi6bhdnDhdGN2GgULl3dFsE6cLNB/JKpCSy8Hym6Hb2YAjSTwpD9yxLPXHj+Kjqb+G1LLDRn4CI/lEfjFAqYnDquGf2IhUDQenxGU5vsxxXaAucWsqfYXCgwaH//DkMk11gzZuLzy8J8+ddcldWburJklPgTw9Drjy0StjhPFXWMlZGIRXJauLw/7TziJt4E7Tg06pnQdE5NuDtBDeK71QPCAjJGoz3HkhP3BjUA9RfxdOwiKdOG0gYbAGCTbSYjfXtNur+1Gmuc19PJipXy8fj8d3F+ml/SgrDxysmKzmAeRvNhXpCe6M0dGjjRZlxqCXxvJV9RuaNW8clYpOPPrpN3PHK1e3PZi9Och2d6IuMDhjUGR9gRa1o/3r1XBYHyibznLhPMEVKy4YkL4eE4QNjx/ajh9wUIaH+ZjgtgTAQHlcKy48ksccTqSDcr3e2U0/2tHFA4Tux+2PsfmwjcXxUBY5Nqh/xMdMgHOj7t7Mg6XTkWgXjy8PvVak3d0qZycrTP/MysQdrIj9phsDuMZDvsXwscV540F+/T497nFayNsJzT2syGvecCsDxwJM4ON6yhjUmc4QIo9QMON8lWnFzh7axfmCzO0He+iBVw/S7ZsO0gZWcrUtwiAu2k8Myi9t2OVD8oc8i0FINmLzMWITHnuA8mlclEvje3o5HmY+wJkTWmh2c0nakKzjEV/EL0tb0L4yff5r3rp6i7SGlai/3cx1jqsCBjrteROKlHd1rud18txA3sTfyX72QJn2lbTHg4J0SgvqlPsG9BPcbnBR4fQqep0V7JfRx0hclZGA8432i/0+78n2iLi91M1hnt3bQ3du7qVfu34FMzn/aWwvjS9r/5SMpxfVaI8iF+5038J1jL4UxwhHReOr0fKzEZGckH4DNAziRLZEQRx1S9QUIgPjjd+CIym4Ci4dSA0F+02kKR6VVPMHPm6EesRx3D786q5oz9FFMsQ/PmOSLfmJnHk/uOIEEMMHW43rWMTE/pFywWEjtxiuEBiWlTQ4udAZ4eTFwMKdozTioKPghifKDXfc3Wx0yhgDru7TBcpV0o3+xRP4Bekr3k4TKDVMso1xfLEC28sUuc7fE0SWvRLMxeF6UaXQGVfXKEfC+PAwTr6kETpkn3OjvlFeMVqfsEWWC6WU6eyJxFfumkmMVSv3lmnNAe78o2PgB6wYyFV/7ey9fJkpEjsZXjpol5c+DvO660CBPrW1cmpaB1/thCAPaYagnvwA7W2UL0TrwJXfmXAwBBIG8tmgnLCTqKIFOR4M5u87pkDv5rqbhitCzJJxXntZ1oM7+ug7r3KeJV9af29kZWGCu4e1nyv5yX2xrOktRJPzUFqccsImLMcOHuCfP6Dh3zw2Tye0siLCMtEWPEhLb0tpZ61KjSuPlA/lTtavrxv4b+0uUU+wP89uaYeBH44PZEqZ2DRxt+/utLOiwIMaX137egqicUS0ba0L2MiP1o0eF0j2HMOK7ken5uitY0mUJVVmitxeinTPNsyeoO3Fcnz+Q+K0sF/DIF+4ZXpqG+fbnY/ru8oyKwcw4M5r57iclm/TodxjmnP0e1ObaEEHycyeL+dr3X30t5s66T/24PaNyxfKFMSFHL1AcHniepU+kf3FoPw5+Y38+EcjM9jGuePbOGT4KkP/8eOd+6mTz6nxTXk6dwpfJnB/iTryIKjWo+YvIZu35Zi6fTu5PKtZaffggmc2K+V+v6SdAMc2Pp5buK1udXUKjsM6JdJ2OKXQp+eK47lObjM9mjaOMfKitaDA7fsMMXLhEuznekSdegMF7d93xUr6BL4YmNuCfOPYx/mGXJ3Vhlwtl9R5CG9zKFFsoiTFT7tzBHfNSOGNaBtREDZt3EcFegPCtTaB7R3RdkgcN3IysW+w3wFX2lRD9nGePZFLdwTbcZghAWcns5bjH/mVmRvtHNCAtRH7Bh4ZOVFjt8ZB40kNyCnDP5wIfzh83NFpI/e2rt/RK1Cs18EVqV6dYiBAZ4HBlfMjjTTIB4wbZHXb2S5/kr4UUQsbutGOoNSoYuMVHHjADkHuYblyOJniqzucUTS6C4M4bLziiJNUjOTV1TNvxyauT/5R28uSj6IuJ1dOS3SC7JIye/lxxwhmtebovZPyMpULfr6/RD/azZKkzvjE507Ady4h75tYptvn5ugLb2yiO05qoS+d3EK3n9hCC8Zj6tXlNUDzrv5Ym4LZGg8nSXt5YOSdzgdZ1PDIrxzHKjKlrsRoB5UKEoWBPORL6hN1EAB/3wYhR2+fup0MZGDfSwd6aRfy6cCAt2RKM/3pG1D2Vvqz41vowmPz1JZHOsgP2jI67T56Cw+Kvo5fYUXiJ69384CkiYzn0fbMcXkZVGVg5XYd5hHpP/pqFysPZbllcM7EPLfv5NUo8u0VGwwkqpiiPK5+ZGBI4usLdTNnDFGru6TG7YLXeISQcyWsCEbrosTtJk8XTmujMQWd2oACtnZXV2b9vn1CE935pjY2Y+hLb2qVtvKlk5ul3UHe8/v7JE2AHJzYXqCPz2imvzihhf76hGa6Znae3tqB/WgDGJyRD5RJjqrEC4kvpBAe+dFjMa2pKDNSAMnhVuNzTmkEc8bkae4YtBett+f380VVKl+XzhxD/+vEDvqbk8fSZ+a00VmYTuO0fBxtq6m6Rp3h2PC+6N+FyJv7RFP6klRGeZx8LU/l/s0Huunnr7HWx5w2fgydNq5Zjn2Ezx/nK31s9GIvrieYzdw+u13bRJvAIuS4PpPph/Ws+SzTLw6UZVYM4LbpSVznyM+JrSVWWNW/i7P33AEcQ42n8XWfR+VpnsVw3YUguOTbGdTvpq4+uQ0HcL7hNrfUd6peZcxw9YG4Ki1GZKOuJG/JfVFYlq9Hzh0/sZAS4iCqxk0aERmJcFZSRGBnE8VKIt78IwnABbf3dv6hEWB7tyJb0X6/V6QpyeAa1oUPf4cSkqP4h/KqNXvDDcGdmGq4sDBSqKAwfKL6e3Aw/p4g/p4XryLH/UF3jxAGsBw50VimDM4uHVFyuGMQBUcUGu3A4a8dBRopN16XF/k4W8W6bYSJ/IP8MpxTl1/NTpx/7076ecQdbAPZRPhIZtIocT7i/KHcyKPmE2WP9+Ekc2WReBI1wl89g8Bb0PAaTz4sIwTrOvz9d/Rnr/EFnw+C/KbzUi9xWR3YZtPBx/8DrBDMdPP9SBPrdFCKMA5vRfmQ/GekjTA+CtpTRNVspvIUIvKRTmVHJ7AX1kTcv62b9vieOwAdKZSd904qiLJzqltwgTqfxR3scW7dCmY41vBV/q8P9NCrrBB45nU0UROH9e0+mYcy/Wp/Dz25W/9hchIPsm/FoBqE8ccpUmjE1gFRjp8LF4L6xqE/uaNA7z2mOZrR2NHDAzsP+uljOL21QH/z5mPp7946lW4+5Rh6Y4dqqFsPFumeDfukXgbaTjjX9PO9fMW9m8/zjGhY2zGH2+hHp+bpU9NzNM5riHIsq6WTrBdsw8IaGqk2Bnl9dj8rN/t4MHQDOdYcnTK24MpQkts0T+ziPicjGZwzx7dBCWujPzmujcZx5cm5i7p2g2sF4p21T/1Q3WGb9kh+XP8G0en6Rb+x4pVd9HpPH41pYqVz1oRIkfZEMjLT1xx4sbu5nft5H7QPrLPTOsmOq7Fj+8XOMl+siFNmOE9tR2ZKNI9t19XQdk4Da21CsvKmweHvTYDkCX1TbDr7isS6WUSrKMSVcoEvkxyzijC6jTy5LAveHfmxI328BC/bGb+tciE13A4IEkiIzUrDxYUsL3dguPA1ouku/k2HQXmcc+iQzhO2vHG/7ievWjOUGlUkvLKjJxrb+MgB0gMsnaVXZOQZDGrkYVPuCar6LhT39zVRfNDguQfjuPj8/+29C9hmVXUmuP97XbjGwgAikUmnQ6BNl43dIS3tA7F5HAx0NFG74mSYEG1jpFVMQ2zNBcnEOI5EMQ62OkYT5klSj7EDmSLaNq3QDnmCPSHWJEHJhcYAAkIpyK2q/vovs973XWuffc7//X9VQVXxFaz3+9bZ97XXvp519j4X5u4dIVYakH8sPYZiE6s1lCUGrURxWTo7oDJ5BAD5BTF7yAG7lC7YpYTBbOI25Gz6fmF3npXIw/yYClAZafPyQr6RdsSJwgX8cUvyA2MalkfndHj+stE+BCZMABPiy46eLGcc2ZWd0XGwOG3aP/72Unn73+0pl/ztfHnb3+wmXfp3dgX5KL5gjMck+/lcsGm6fOj75sp77Er8rKN0EyaAq7wvP6Ybx4eIG/H0NBjk8YAKXPVaGN8/EXH7keAOZZqVQD+ZBOxI53FE5tlnQ8D/tscWyq/e8UT5vx+c11ZOVF6Do6xw52+a4Q21YPOPj5quN9c+sme53P7onjJv4+l24xU4cd1U+YEjTQtayU6wvHGixYkHJ9YfMWUEN4sG0E04VnySp53jVAytVDQDpl+Wd79gqnzw+2bLvz1pphw36/LZmfwPH1jgI9SoN4yDtYCtqN+5+1E7US2oKvkDuoJ8+eE95d9+7fHyltt3lreC/nqX0e5yw7ehQOFG/4ly3QN7ynvv3MX7lr5jdeT6Rg+nrCvlnKMtNucMkLeV5xioTwuaHWMX4aiz07n6I9xjeiIU+bt3L/OG1wBu5N1oigrSI/a139xd3nPHY+VPH56ncss3BA/wvRumy7nH6k54hK6M4XWJ/uzyABrfZnL+EtTnra+ugKVZjrod5GEOrN7citUbs3/vEevKaUev90CB9WG8h+0pF/JEHNmPMY3Sby3j3IAdZKYfIZf8FQZCGR9anKj3vgB4eOAHTNk/wS9owHO7XdDssV7Zza0r+1qVOcammS26vDseG+3c4tkQu9HzLWx1oHBu7UEVgl/MtYxHgh99Ktos2K74cSzChEsXLByPoBUIvyZsZTbm0Y9HfrSM5PDsAgvuFcF6dj+QDtU6SYWmUWqk7MQE6g3lQAdCRxXpDbeh3OjbN1BuZuXmWxz9HQDstOqc0ZLgCt7IR0u5Rri3BgoO7PALmXodyFJSJjACT3ADyNHJ4FkxSztUcjk0CWlQaPDJ3ielBSfZR/BzdzeAPZJBVRd12MmvsrT125l9cohdsFW5SO5BmN3zt6IoguMum+R/54ElPh0F4Er5FcdO8mTLNsI7HlaZWDRhY0Uu3uegduVHHEcoKwEM82/bieW6hyfLZx6eKRNUhPVeihbBN/oK6y9g1iWTi/6IY3HjPRQVVk0RHu3IPFgJHVA+vZMiytwPx50lSCcZJjkpf/Hh5fL+exbKu/5+sfzqXYvlMzuWysPNJf4xdnZ4zpxNtKbon7YxThWlfNfsZPm17z+6fOwHv6uc91y9OwfA9s7mo2drPr1GMmDiv8+udP/bd6QQPX+9tVHvaSrvOz4u6MN+BBvaXe2/GnARjZtBP2hl+rtdVvfWJvGF6cA3TZn7ha99p3z+Qb0vBDhyerL8+IlHlPUWn+/+gPxo+yav6Cvqf1BELY77ab6Ae6rs2DNRfv+BxfIrd85TUX7fXQu8Odt0ioqTTAnjeGzSDoul9jR/k0NtPlW+x6o6bpgHXnjERPnN758rH/j+9VyBCWyy9vm+jdYnPQ/U24N7Svnd+3aXX7zj8XLJ7Y+W99z5WLnx2/M9xfbk9VZ+M006b7n+GFUZRX15Mc9ZXPuzflzePpSA7Yc47gYiF6uJcsN9j5Qd8wtcLfln37W+rsQhDfs38+73beXp8iGOmSdZv5pzZRw3st87j/RB/fTMmekUFnX/V7sma/3gXrOXHjNVV82wDX3HboxZ5amLYdS1tZeiVHBM8z0zXi8QNhDlIonH860dNpgswILl/415lRFy9sByW3rOb/1w+NvIodmRxiB/Zg+/FnIjnR0xFp0wCFu3aiVaDmbYhR5b5uX2Feh4BNcBq2cN2mJHbbTUHHjsrdyIXKEwqg1nUVH5amx1bHXWTrnByo1I38CBH+Kow2LAIS26jSM6gXVO5IV7cHgfQbtyY3LFErD2jSV4IGQKdJ0K/cU7JvNVPAzOoRn21t/+Tp3djnKHWcNX8kWYAJnDHEGNfxcH8TsEK/E03nFORD5mj/aAnRMb6hurHIjuwIvb/mbPXLnliUkqHQDeF/Gvjlkq601BxYkqymJiVMA9ZSc/KqquwIYiizbmpNTk9J++M1l+8Rtz5ZfvX1+u+ObG8qFvbyxf2b2eCu/M7ByV328tdkoAHnf9blMOdJKV0tG+3AxLzw8toR9JBipWlj/K2QJ1ADkZDpms/A8tTfFqFMCS+4l2ZQn+IpscsbKoYOKb8/pA5T89Zrb8/AvWlxM2QEmXsg7aOTlTbt01rceWK9AGWo35bjw2sg849ci58l3roOSpzgMsA+rZZLjpoYXygMkDjrGdKMjO3mIHnFeiv6j9NM4CaPdfv3em/Pu7pss77poqv3L3ZPntByfLY8toRyPUq5l9OVRP/2nHnvI3j3erTv/QlLfXnbSRYWyLQRsgIdqAZWBbWhwQx/9Ued3xM+UnT5gps6h/hKP8Fv+Bhcly/UMT5V5TeirAi2nFB3xRtgDk1Rti/YQIu9E/3rDEp3/2BtTpi45SXf/UCevK/3TC+jKLccCxozH0TTthXvfgvJ30O60LVR3KkORp681kRt/ECZztIAqonZQu5G7rHYAb4SFDhNLffqiPB6xT/8mOJzgf4jFxnbQlCcLjjbmWiP4AZfP6BG2yMfdPj+60QDzKjZctavyozVowPf2dB+rbynqXpcHTUACULGxJBe42ZembNtYRD/Uc6XFRNEo2xmFbD/I2QljIvs7s/9yUqHhMHX38r3er/fGKgMCRZv1uU5IlL+oac4sHGtCsDxd/sam3J9sLshnhx9ztj/AWSAN0czjUJJgi9RTYGQuHBu7usyQ8a4fSVx6VDSwtJQKsje6AlRtfMYFpFDcpiuK+l476KzudAsSGIEtY3E8uI4UE6Mc44kPlBjwjH6za1BUluWsYwzvlS6bcIsnINAiDXxPepenMKgvdXdhIYjyvA6OVfEQqJdD3a01Rl1Zo7QZ2ePX4GGRwx49XGkaYEDEpceLEBIKEDvjPmjLy5V16B0zgBTNL5YKjl/RRxikpK83oIk9NTjoJzkzbiR40Y4qKEfxaIP2MfyJAnwqweG7O0j5X7l5exzekAnwM9Ri72raTPeTbfMRUefERDCLuW5gq37YJiPJZuLY8tTJYi2em5JMCRKXa5PjW0kx5cLEr6xl24vtHeK+I8TjBrvzO3zRpE6WY4N6Mv7EJEuUBr+fPTZZLT5oqP338tJ3UZ8o6SzNnsn//ETPlRRuZhPiGTazfWp4tp2+0+vV59Vt28vmVv32iXPzVx7hNA9r2QPdCM9yz88Kj17GOhicR1a0pUhOz5U8esX7l/gGe+NC+RnGClBnuocI0oXqBgua80Q50oz28XXAi7YA0s2VparZs27HILazAGXZC/OfHrmM9USlq+5j3lVCEcbJhe1i/IlnfPfOoifLLp0yXH8X9WOvlv8HqFjdPn+jvBkKZ8ZZipNX2NkifHuiAE6JOaJHHkTNT5Xv83SvAX+2cKu+8e84Uu5nyjr+fMprkO1UC37t+0vqd5WNy/fDRU+Xd/8O68q+eu45yIc/1lue/fM6cyaW6Aee/eFzbscN6BlB+yovyW33yRIkaYjyQXyBafpK7OdMaeFESygNMpu8AJRr80V54/xDugWqBfBCOdoYMLcAT7TVnZfon1obYovxu7bAVPND3Xx6VYsH+z7bDClVXPvSz+hFPI/SPGavzeVP4/3a+nxeALnO7jaca1/qb+pwuGFreqCeNbY3rkeHmh3F72lFz5W3Pny3/YL3CsWp08+PTZfeE+sDXF2Z6c8u/PGqpPMe0IIyNF25cLpvXdS89vN/G7beX51jPyAP1h7lUKzcGNBbazH6aj7txEPM1fqPm/qA2zSggC2azKjoelZNZWnuHnqMDvAdBdFK+0Vg9ZEzQExCOID/6YeI/fOC/NsU0Gxxe4ap4a142gpk2MKMTRIfoqIurBsfJX0+gPPH44+XxJ4zM3Llzp+XhHYD5GTU8OJCsM/NT/yD/cJw+/Y+B18+XuVa3hVF4I4YpXF/Ea4H83eayhF/Pbj/xc4AtfjW/IISZaQYUMpQfShjqoEPHh/HJRw7+YJIiTPH7sknZg8JGpQ+K3gJuxNb7Z4LmlnaVnzri2/UV8X+xe6Zs2ymt4bunl8q/3vhoOdI/sYDVjc89sYFxnju5UH7qqMfri8lWw/+3a7pc+8h6vrL+wqO7zy988Yl15U/ndXXP1SMrAsUnuongh2YfL/9i3U4+UbUa8Br7zzx6RHlgKU5sXR2dPrurnLfuEa7IUP5dR5fb5rX9E8oikpwwtaf8uJX16Mm2HfrAdshnH54wZQL9qpQXWTX9BF9p7xFWwb0Lk+XTj6zjquJPH7OLb30FcOP0p+61SZQyw5iwE+RE+dnndUv2f/3EcvnYfUu8gfbFRyre1+3Ee/X9LCXTrrOx9sbvXionNS8E/MLj68st80dwjNgoZBYIZRrUr5X7/PUPlxda/QD4vMXvfOcIfj4B4aiXSviZ7KivVx87X15kyh+A7ZmPmhxx4/CZR5byKlMEY/sDT3P99gPacnzzCXjxnvxXw9d3T5SPPzhjeSyUf7Jx9XYAEPqVXbPlPz1hjWCFkxKBkIly/rrvlH/k5fq29Ql8puKxZVSoBHvhzM5y3oZHKCdOrtc/tqH8+RNTtYyglxyxUP7Ho/QOFvMu1z88afW7ZHKRxaqAXF9+ZLFc+63FcoQpxD93wsyq5f6W1fWnvjXN+67YcnZAPaLvo92wgvjTmxZXHWO4qfx9t3+rnGQK+L/7/ueUI6ax9bNUfvvO75Q/f3TBlAA70dsFwz8/Zrb82CabE71d0G4fs3Z7xE7uJ5ri8sbnLo/8/EILvKvm2oemy1/vMmHQT2eWy0XftXvVdLgw+u3vHOltgjpcLidP7ylbjsIcID8A9+Nc852N5eElaz/vm/iEyf9y9OOrfrYCKzCf2KFKfcOmvX/WA6u6Nzw2W/7fnVp5RGzk9JIN8+XsjfOcG1YDVoO3zW8q35pYL6UOCinIlEoqdlA07VyC9gJXneuUVpDCwxa2vxRtXXjATk+HRcORJtIoTPMYiKHWN+PeuSEhDudTk0W8kcaFIW+zgxetbjYY8tMOiI2HyM/jkZn9Y1UyLppJrA/ZPaaOXeIKegVfM2mMsK8WDqx0m51/+8Ef6RnexSFUCdU6qZUabQeRYmuIpsK0YuLbRYznj6Q2YcFHKyuwNyscXpkSmCJSOK2quOlxmS54xAmc/I34eDjyj3xjBWUQD3K4rO2qVEddGuUrP4ZVXkbDco7kBYLMUDg0iYIAFLcjL/OA7NDVB4lJDbKoQ6Fjwa5BF0qcOp5OAjzh+QDAYI1GBhA+O7OuzM2uK9+Z2li+vHBUfToEk8DLNuyyq14bRIOrptUAfnNzdgVvV1stpuzqCXmAZufwoccwsUqA1Rxz25Xnny0eU35353PKHQtzZddylx9qDRPul3dvKNc8/pzy7Ul8SFWrCyDw0JVp/8wCJZh5QAn2q0PEeaCsL7+z87jy30zhenSp25ID8C0jrNZ8/Fvrypef6OT764V1Zdtj68oddkWK79jU5jBAkdphE/Z/NQXjd3d+V3nC5Pteu4rEm3sZbhl8dZddsUJWXrFidWu2fKvMcpsjgKfITt5oV41WjwG0neprPetv2drrlp3r6tYaEG3LSZjbKJqYuRVhJsofExAAO+vMKVZs1A5qC7ihiAaUpqvzP981V/6i2YrDE0M/+pwprri0ea0G9FfUwX8xxexGOxndu8dO1k2bA2iLr++ZLp9+7Ojyn3cfw36oOtQqCtpTJxqHJYcfrtbZ5sb/+9d177bBd8XuWtpY5lBG9B+nv19aV57wvKHgnLahmFzryhcfnS7fmJ8wuRhUge9K3WH61G8/sFyuMwUY22hYBVi72DaOGAfjtI2oExXHqfuMAuKg76JvtPHQxmiPddY/1q3fUG5f3lC+0Wzlqd28na0+VgNeTPmQKRL/z+Oz5epvbbQxiHGs/sp0axQOZVIeGi+gb05sLA+astDiThvXj09pdRKKWNT/Wv0leHNOWSUe5qxHTHH6ys7pcvW3jyh/Pm/KCfqI1Rf6Asxbdm8sv/3IUeXv9sysmFseszngv9nY/b3dx5cdZR37vVbIMOtpXkXekUrdAUfM0Ha0g6idrztiPNq7uIAbDuO/onij/AzVTxyCH93IJ+w1B/gNf10MxbKjLGb0Qwhau7RCE75XRNxBmkFZ+uFD/kN3HwgN+VpqDjxOXPW//We1C5z8K1CVrUpHp+wIbmipsIeJyBEGrRYneGmJUBx2PvFEeQK084mya+cuKTsMk+lZ8QB+Wp7siJO6myLkK6KmiaSE5AhSSJAdzYiiClZalNkOLDfMcDsFWERwNMso0paRNPpQ5rr04ktYNEshK+wDPi0xMqHE0u61aiMFEAoZFDi9J4iKFl9YJWUMqflYvl1t8sY+8OTffubuKXVGUvSiXfAVcaTxOqZMmrCrfF4mKnPmVtvoBID6ULDKDjvvn0L9OH+YCLAYNZ5xJi/mgeRmSm6d3OAHeWSTARv6mh1Y9+BL+YwnuMAuxRPlU9uwDmFauWtZmYVOQNHX+EVmMwXI6W3Muut4QAmmgm9ml7/FHpgA7ENq/VEUncwj3Ps6TNoRH26TCHXm6QXUoxPkdZN9EeIrBu0xDlH+alp5rHSqT/5xMEI6NwHmCdkoI6zRNxjqaUM28IZhBw+XgfjqN1TSebJR/cfVM85P4hAHsDGLEdkxX5iqN4TpgsnaxspjFpWFMoCirGE3AmNz9+sDp0Ozw2DGHQ8AMmFO4gkcqymmxC8t6E288Y4u1KVkQX/D9q/1JaO4GR/v84p3emHFlf3JxyPHBoH8VEf4sPCG9abcbNjIfNn3LB7vk/SonXQtVM+KgMqyP92KBzvrMNK5m1frVLIY6GnCVNk8QwJ1w7EKNHHdpwL1rbpB+5CTpcX8pvoPqC3gBilPmeDbtftK/hHHw2D6uNEYUv3rohD2mLOM4A/ePsZUHqTreEouzDOSDbyC4oJF0ZUmyhQm5SJbO5hXlJM8w2688UMJYlUo5gCmIScAMYwP/zJbdLydwNfM6OuKJAOgbKwnUdQFTQqN6CvTBRjGv8zqJ4vsjek2oXU3nmFVGWKM1gg9UEI/TPzGez6HmGSgBJEIhXNbRGaB4Q67Co5gFpx/NH40EjrAkik0O8vOXUam2OhjgB7mQpI94LxXKjRq3HbpL046zNdlXraBS2lCtrDDpL1GrWBFwZOywOgqD52X7AlZurIbNY2ueoiO33Semp/4i1/wavk5nwEJYhIySQkJJQcTI060ptCYO+4xQjmQHHLxsXzIR34yMWgxiSKN0iMtTgjGH5OlmTEZML7b1dnhF2Kx9oyrhVn7YJJAO2FSZIjHwR+yq91NPsqpuhKcDw8hoxSa9mQedSJD4ajOOmhRB+ALb8ZHsL7Jo3zRNqg3xaXSY6Qyeb6oM+9/6m/IDESujM+TCgl1FwqiFBzkAUhG8HQTPGhHmSw//Fg2QeE8uj/qm66mDiwc9YKojGl5IU4YzFr5qx7MDlNenZsO+KsdZIc/yiQ7YzMMkVeB5UkZ2TesbmCFPywOWr1OFAgD5VBkrnRY+TiBm58UGy8nI1skTw4JISug8Wlxve3oi/Nl9DHvZywTy6HyRZkYD27EqWksjqeRaRFRH0ogEzADW+VandBWEfoAPybsn48BL56wEd1MzVl+0Wb9i29hR3wzF+o3x2Jc6x1ESIvio442bNhgtLFs2LiRKyEct4jP8UrxJB0PAKRVhYMHEQwNMb4iDPVOk20DN2xWt+EPP+cX9aC+TqbVj+0aPORDP/UppeV4pSklLtoHbQDUNtKh8yNvtTugvEZD+UMuzCWQQWVBuWOOoqID09qDyjX8Ec+I/dplD6gc6ifof5CFypGlj3MV0iguDRQLRzfFQyR3jLfKl3YR5I95dXXlBgbMTs6Acam8SMxL4wHujpEsKrtxQtub2R+P4j9I0oNxtQOPHu52oPqvFq5D55Ytjr1yeFiEoh4Cqg/7/++/er2FIjJ4IWJEHgCR3YIyqqCyK4wH/FVxGNSoRDN37fYv2e7C24d3V+FIvfzEr+so6izqCJjEMAFimbtb1YGfeDkLnhAsjXdiMKRs5A2zj1YWlL3raCANNJVKkCyQQ2Z0BnW8KHvHI+q2X6/ih/gtDxLK2LgB48AygB8nS69XrNJgqyzsMThYDrPHIIZsHHReDPBFZ8VkzC285moR7YY6iPStPCwjeJlfZVZNtVsMQJiA5IGJusSVJuonJjDIC9+ublBOlpt/+4Gf/aK+6UvTbG4GQukLnkpvAXBbXmpb1V+94rXIcLMNLGqUF/WlSQs8VJYQE2WiMgNecUJC/aEeXbliAXB0ESmLOcBfLuVFuxn0iXL5se0X9KEJP7poIivFkV1AmeRg3bp/+Ck8whQ36oUt4/WkmDgoTh84wUAQyUd7yKXQSCyDgA3hiB9yG1n9oj/q6hR+6D+IoDaJdLRRFlrZnpFWdYUIPgajPCgH7ZDDfuwfboc/+kETD/0HdsYDeRrYLIAZ4GeJuSWIG+a5cmOEfiDFBisyUG4QnbFpctXG5qyY26DQLGDFj/fKof/EWIQcUm5Ur7pA2bgeio0UHNycj3j1ARDIpr/yHQXWj+qx8nZ7z+SYgxuEelX/Z5sYEA91yPHkdRH9QyyY0Hn42IHD4zBVTQtvq13ngShd+yA+PeyoPMFVLslCuNyjgHhRDgB9DPJjflJ/M7Kw1l9lRjqliXoBouxVPvvXcxUvIsGHMRmfBorB+DDFIwhgP0V9eD2E4hHl7Ss3lsba0FkRiINMyU0sK5Bn8CKhT5sZY6THyNDK1o0t2Zl3D4PEyIum8XaTBo+Gxn+1cBo8GnpuyNuQj0ViRMHhmnjv5X9kMZAAvJSARiSsGLoNKLRbCXPA3U4QsHP5lQNeS7C9fHBomKAC1fHQoFahzQkAgD+fmvEbjeHuCh3pvdN6hzUfT28H/R3eUQck2WHHBN/FBtTQxhGmD4KYkGEXj+isqjOzefXh0PAza8tHvFD2zg9AetjAjvJhtQAnUctDKwdYtdHJCPEmsPxBXsbHKN414ewI8NYJHqsNNqHaBAvecdJHrpChlaedAECUTFkxnHHMockxMtNAks1+3ilVT6KA5ENeoOCpvJUvPckb4York/Xi7YY+B3/Ew7/NK9pGSpD6p2QAL/Fj+TBZmYlJC/6A4slEOl5hg7gKZLzAz+oO4SEXj+RrdjiNjHsNb+MBigfJlSbyrnEQbOkJyMM4sNMKg96w4UcPuFz2FhifNPHr9VnFhb3l0SHClSckgpxoH++p9lebwN5lDUtXLpFOOKhz8fA2N16oJwLlch6UyR0wdTLx/mjpGMY4aA/Y1S4qh/zFw/293bRliXaEctrZzWGm4sCuvMHL5LaTDpSauLcEikqn3MwjuurETJQJfQkrNkiHVQIqJRi78b0uc0tZkVyoA9WFXdCZIoWVm40bN5Kg3EAh2oOxa6R+TLFUbgIebCAH/N0Nvm5HHgDHF8Aw+Ud7IF3Eg9n1F5ny53GEXaaguJQVdWqIMViJcocdkeGUHZxg7+BxGnS5heySoSP1F81V1h7WFqpr+Fka9D2mk18LpO/LacoNlFbMF7wYQnykY2wcHEgjWysL0NYl+O5ducG/4404yJA+nTdRZQ1iPpEH+rTHk6E6Cap10tm7mCNAuWAabzdpxJH/vukhOq7qdh/KbMTxKL+uzIOCGybe88t/aPE9EePLTtvAVJhMwdxu62B+yNwFwATBG4Ex8M3EPQnONf4NcFLAgPJKpdl0JiM0MJaBYzkYbnUMEdLxnQo8OaHTWofwTm5/g1eCGbBZkpoWpAmvM4fo5Gtl7GRtZVFnRSrYmXwFIn3HF7xE8APAC1bwAE9Ofmayg1r9Dq/0cI8NePGkQb7Gy9yAeKqeMbnGlhQmVpSZ7eZl4KoF6s7Sh6LZnog6frKbN46Swagts3FFtiwEfwyULFE+uOukgry8XuKqgUWAO+LQhFc32YK/Oj7sCkM2wwkU5bWj+SOJ6oNRaaKcaANMWJqsAE4GBio0lpe2D1RnLe8+lH/LH+Xq0JaDLtrhkL98KleWqXN38Y2Yt9UFf3CH30owBuSF3crFNN7fuzKYH+JUFq2/bFVGM9X+EA7caOBIkzKDv1kQV/GtXZGCdW2E9jYeDPd+J/5dfm0dw4h+znHTlJ1thT7h8ZVGq2oka7PFeg9W2/dx0aD2rfdoeZjSssOQ7wxWbnCR5RdbGEvzu/W1dig3KIxOFiif5MScNDWtsmLccux5P4pxSKXH8uE2idcNtrSwYiPl5ghXbmxOtbgLeKsy5GOtoH+GDfKqPntu1rrqnaaHRzTWfyW1AYM8Atya4zVPom7A20JqOCjsNP1oEtDGPgdhaO/cfYK/7IyHtLL2/KtnhXIDaLMD+hPk17wCmqIb7aB5VxcxILhjHmvRuSWbS0TFs67eGCkaeMns4guRT/BDOdr+1fZZi7WKchNADPPjX2aL4FOJ/VrtBlO8Gm7Gv5t3jcLt9jURvFqeo+yNKe9qcWO0O+SvsjsoVXeomPhff/EzjBWRR5vG1AxmYhaG0KQnw3WUqUkiyAcrll998A4boPNYeZIBWn5oYN2BL0LD1wYzE4ORnYydYXXlJuxI1yfk05kdZI/BrgERA0MTEPxr53SZWCtMGmYDk6HtSBpoHc9W5uAl2dDAmnjpNhMnWsRVegwG8Ozk4oCN/MlTj63HhKp7RdBpXH6Lq3SSR3yk5NCvOelLVrmUhfu7DyUHQ5ZBkG8HxI2y9gaVmSoH/MyE24nsPR1Z2wF10vFWwDJWsmCyfGaakycD2kXBk2yRj8sAO/PxdDhoQke9dfkxDPmGWUEh0dCQ1Hm6nyFs9EJetMsXBu3tMjQy8kTg1wJyBEzEVVHjqUDccmF8c7dhlZsKRyg2LQJkxM/rTGF2xN/TxRFOlt9cNNmnom95X0N5GUfhTA0/MSHPytcM9U0o8cbD7IxnZC1EC0/CKpzSWrvBRDgnSqyY2FiCMkEFH+GWhiuYbo+xhvjgzPzNzgsoJygfmON0D43uudE40VykiwOUL0yfK9CHzATvqtwwb6xKed0Y8Z1AGzaU9RvWU8nBE04Y83v2SDZu95pYLH53sB9qOwC/zs26BtxkX3OzHWfV3+SgaW7N65AfeeNlj5EWtmE/Rr9A3gqnnJQPpjoq2wT1aybbCXViP8xFPnzljx+S0t75KaeAuygLyOUxg0oM7SiXt4cJBTtN+DeKjYyuDgSXwdFfuYkbitv0kj+g/DqeLLv3AZYbZaIfyqU+AL4xTlperWxhtghePWKflt0OrMcAeLDtPa+he02AnQ4y6dfw34fwJmSFe4XsjipVTzyT+Vff9QceCwlka+1kjX9lKJOkABxpMsyOnPghBDp/2DkA0XDozKg0HnuStXUXduTDQc/BhBP4ZJmbmzXS44W4stYJH3kgHTqDJpS4ootGsoPydMALYtfyGHESq2YMPBpEnGSVj5mYgMzddTyXxfmpisAAbvEQ4ACPPj9N1nDLj3IjpplVNgwAK7NujFVeqB/EUbkRv5NNA7lWqEyDFBpNUtzmYh1KTtjBg5My5KBsjXLjckcZarUyrZd1RJ6AhTKeZGJE5UGCs6kXM6f8qgoKFeOMiE82dkBdBDhZKEAyef2R8LOgcFdePd70oH9NZzxU36gr1RdmX4/JYx/I3/m52UOTR6RHPKtiuVG3lh/YgBNlxW/Ix0D5aKFzDZATbb2JwgznYBY3DfKTm95dkIvs7WU2BNE0i/iCvxluRr2SrJAw4wSj9kUcM8kTleAS8SCeIS8MjH/1U1zIxMSvOPzBw8ZJpOPYCbL2W+D8pHHAOYZtChNjK5QbI8xBZtrBuGr8xaQPE7LzaSlexO0pC6Z0SOnBo+w66aGMqByULeoKfGABV4xD5MexCP4cZzqpYXUAT0utWycFB49uQ6Gh/FSQUD7n6fx4NEO5AfINN+WRhQbaAWDbmJdIbRP+8IQpRcwUOV/5VTiP+rVpaFHOBISCQflCzqYMMFHPcsgNu8sfceFgmP2csyHyw192DCH5q58yhOVQf1M/Cz/5A8MyuDGAths7BQfKDXgoDH8K3aDLR+Eqq+aSKCvdZlos9QPrX+jjYtiiy6vm2aDj1/FFfnXcw/S4AGRSvwY/tX3rXhvg2Tf9L0ReNc9B+F7cIX/U0xC15F4PU2ef9Zp302MIj9mvKmTU/JgZcu+7pc1jsoAgmEgUDm6sLA5abzDrDLDzpGxuhSmeCOzFR8pNdwNXe0MxZTPTUjRpIb1KwBj1EPF59IHSyc8OYGYMNiHSSaa+GXawEQ8m9PR0W1oalY/D0impeFBm8OsCKm+YPJmSl5lGJik8yZFy4Bf1RwYMYfwgTuBIS+XTTLhtgrRiexyU35IhHQxHyCGYA53dPDUpKi5PBuTZyRj1KUIkpIeBH/j0SfUpvhxYsPvgop/1EZ4YQe6ngYgwnORgWnwQfuBh+XUD1nm4qT6oPhX8I1/Gp6woiiQGoiws9bLFY56hVFuaygOm86yEOEpjR+ajCSRk8nSUX342Bat+4NPGo13+KqebeyE7kCSf6lp2d1NO+OmkxzQuC/NsKOJKwUAc8e3yczvimcm4Pu55z4NP3KE4K55M5lv5oJjhhmG8wMcIWz3MH35Mh3Dwk2nM7B/lFD+s6EU8Wqzu2NJqYpn0kgfPzwbNMrSwH0Dp4TuxcP8alQ2Mp6XePIUbj5GKedtPl3igTlbJpbKzjvAOF0sbChLec8OXmpqig29qqf9JdqU3e9N3VA9GMOlG/bifx6HJebfrk5FWfh4PpuXD+jYT0xDHuM8fKAzrxI4oD20900PNQDlpofwG3hcEt/xIOggWl/EAxqVFUe3QxDQoPI6ejecZrxbAIeTsTMYzUnNrfLfcmVfnNCgt64v1GXXbhYljH2pnkTKEr88s3cHRxRW5d8OXfGp+Q4BXSzJks2MvDcZDP6+h+8ljmNcQLlvFKLf8+m3QB7Pwgyk3PyHlBgWhZRSCsVG1ovFBOnG17lBqYokVYeRvtYOO0CoyMcnhCqwOsKZCkRkVG580AAx00gwGmt9QjAAelA9/XiCeQCED7B5HkSEv/EL2kF8mBm6Nh6MdxDN4yxTRo+HTEkNoD4TfSl5iiB/+AXhHel5BOj96GZmN0bv0AorAeGaPewmotHkboV51tWqEsltYVUzIWGnFIHiLu0y3m3+9sZa8xIP8wMbixNWY/eHyPFoYR2RBq/LRxByTNtzKawVxgoGJk5xPMHD7j1yrWzw4WWNSIpm/peNkjkw8PkCZVZFmyu1VQ0Jc8kJa68848ZAfyXk2vOEP3q0pxQsEbnArHtIQFEXySFbFR1kJ+MkmHmsSTuzMpbrNkOkED9ohR8gyiiyM9Yf693hKBxNpw92Vh/GcIj3sfcUQ5GlBlBXHTk471LmEbU6SP8xe+pDD0nObEtH4A9Sesloby3B4P6W/TPrCbZ2B4wc3BHPFxh/ntnkK4ysUm/h0CGVjOiP0J+Tv5WS56ZYflD6sBMT9HHxJnSs5eGEj4rAQbZpqOs8VdgtnPViqXl0rXWuq/juK9om2YTk41nWxFKoBeEsJhik3a4xu2TVTmS3CcJSlB1S16tmIETom3Xj0C7GGGKs1TQgEAaGgAuLGCHaUysq2hq+bgPs0JLCMdmAfZr2GKc5h9qHwaAuCLLtcVKAOiu/t1+PZz6cftgaMveqzhdxgEfmI+u69I/i2/Ad2slktHFjb3VUPLCtlog/k/ZVf+L1+ShbAvBrftoOx0cNNUudCGP3tV09w6HhGyM2y8lwxOWOw9CusrTfm4XmBx4JPHJhAEBH32uBbP7znxjpWp5AgtQ9k868dgoMt8vGM6B95yRwSlQgFE7AiecjdTQhG0aktUssjYC5ngL/LYOAEU/k5+UBBLPIEYDZ8+Rhy5GGE8mOIstyervKB3X5WS5wU2C5Iw4lYBL/IhzmaqUEbBLeujFsCUAcAeUIm8Ec4ffuofspEfMIkIWvl3ZooC9uVdphMLfcIirqJsgJDs8J5hZ0HpPc2C0WN6Rp79TNEPUX9Aww3UyyVA2QLRNoKjyOr2eyPMpMLs1Z+aFOEMTbiuX/w67jK1nHtgDFDk0dDpIXZyAF0/ByR9ypgfOODGCFTBdKCP/OwH+ot3E4A6nKIWj4zgy23pezkH4pRPdmhryMepHETbm5BwY3xYz8+rYT+z3HQzTPVH/GNJ0374Y8D5ETfijEE04MqOE/NzfLm39kZvQen0sKi+jTktvbE+OIchvHJsd2tUOMBCSo6ptzoBmZ9PwpZadT7RQzcMFk+hfJf3bL3gDp3K9smXGFv/QB386kuzssqC4PQds7Pm5F+0aZAawcojcu3T4T0Yfe0K4A8q7UKIrlotaNTjFb5KQJi8ge/Bh0vj2NuUIz9uFBfAcRzK8B0MTebu5YNP5joB+4X8cFX+SkvucNP3MNsUXkHoc+6vc75cMtW+XX5mR35UN6V/Eei4QdL42K+rdmP29lrOGBWhEh+Hx/o8ABFivLLXs1f/Hf/l2KZh0cxajPUAXnRFxlQCHp0fo2b4SRNMAHLTvl4JanyFCI3DU/T8dGqjQ0iawzwwM17sVSLSUHxIh14RsMbgTfyoclQz0duyAwYB9phkg/+5McQugnnQSsM5x1l6eSQTDUvHOWQyX+k69JH3AhvUWU0xvx5PvgzVGuuSscl9xgI4q/JuFsF6yZb2WPQSJHxwYqrYk6wulEuUGWBiLTKPZS5hxpkESljxMcULRnp5+3WrxuQn/RgZzh4RVgzIE1+ilPbASZt9F8BZktm1d7GrWX1eh/agag3KTf99ETk4dl0YbCEpyHiwcoCyh5l6IfTsDBw4aGLN4B4wWLk8do0VV7yD97uaIC8Vd+KHukRjyY9VwHZRfqWzF8HhntE2iIPGeJfZTXohAIlQH2XK4XWz7u5xynKSDv+UnSkxNhJ2i+g8GQn3juDN35jjJAPTza6SAtFjMqIhXfKkN/Qz3DIgs9wmDJiCg4UG9hxkzHi86nRPQuMo36jlSeOT8tG8uMpHMxzWLnxlerGPmEmoBJhDuyUcF1ghD3kd0IKJOIBNbyvYEpPKxlbQtnBT+1IG+2tuzV7gEiNfKMuJto4FcEv4FYZnaPGaWWTBX/505TbWrdxe1iDKNcK8nk26qiH4IW/xYkLNbL3+Ch7lFMKrtyMZ2A66zPtyyB1nkO+jMF4LaLORGirvokscICBzDp+6uPsy3BjXlMmFf0swwK+biVad9iHJrBWmMEcGtvwV59DnpJB5aeLdne/8+2/YyxaLojeut1ljMOkAVdrDzTxInSIqCQ3RiDSGA+zsjDghwJZopgMYJJJzRMHFAyd0wvJ8hjRDqv8kEz+ZvREVJ40ZTiGbgAO8SA7Q8Tx2OaPvEYQOg7DEEl2gOmcyUo5eGitnnc4+mHIR09raLLVEromdD0C3je7QdOYmFTNjpOIBoNPPtbJOLHBz0z413KpUBJiCHiHfHHUf4WdbKqfHdDc1e1hftRJwpUx9AtDVxfRGh3a9DDCXfPsQak7fkDTLhY9rm5g1uRtBMCMlnNlZZB/F6GLNyrFIBLaw4IgEdpBfjIANQdqziywR3yYiMi4tBG1jzINfXgE5E8LJz3wiYmY/QBBihl/xg0/pI304i+/CBsFF4+H1o40am/0VykK9YTr/VLwchqUleyIR6WGio2ecMI7akjzptxgtQYF9FUgzjuWX9w4CoVGL+JDOigrE/QHUTHx7Sh9Z2xG7/siWXwzI27IrwsPyW/ia5WGF3HdTckYl9z6NFmg1KBYVG7shxuMY57ESaDWBfhFGwWxBhzV0fgznvv07H0/usysbYqf2aP/0K/xpxvJ/BgAT8iFdhNv58+sGFr9kVZjDTw13vrcgMbHrZ1Pk2AQJukGno4aJ8qEMU/PQXyXXTIjPjwRf5hWdgJhZqB0o5VRAX0gXhyJ16FgzhMfhIbZATyGCk30DfUJxmI82KXQdPJVBcf9JSXKQcMxyJTohFYegPLYN5MWdwMqR9unTSIKInlH0C+89ZM1+erwjHiwYy3L2kkZbVS5idXSDv3XzqNDZATTCgbTCti5BRQa/vwxSCERPgqUwA8ovh3t0DQAj4ah2xBa70gTecP0uEgXV4nqbEEI67hG/DY97EzP+EpPpYYTooiKDN+GiqccfFL3yRnLy5yIW4JiYyaVG7Nz9QyDAyY6GEwnTKhSMESUbb+xSpp9YKUTj5fVBvyKRObsfOSo7miDMIfhK9x9oKwiKTirxVsVXlerpttLeLQ7OgpN9wuEfKijiNMjRArTEH2TV2vIVX8i+PDkYibSo/1jJdAjMX7ku5bbjvGvqLIbbxo8Glo3DpYo2hsmZIIcmvywpYSLoUgtUzLAlHKDFRq9h0sKx/ye3TLnd5OHoLTIQ2MCSofGQzz2HcoKPuSpcCkljA/T/Hbt2l12G1+YeB+OlCSNLdi7R6sxnqDcIJ0pRkyPD5X62PITmpQawaYNjUmrI9WBj9Fq+pxiJtva6xKgDX6NGXFpGlFpaijakoQf61QVy5+fDLs4Xbgd4l9hLHH0+c/JfKi2NW7mbb/efVbk+eQgyfYHlgJ9P8plVOUbRUrBYkd8kcZQdSOemcBIPk7oS3hSGB8uXrcOTwvH01miIZAm2l7jAnzUH2qfUETaW0UGxP7WmEA/H8Rz6yowtji6fQ2Tf8kR/kBYQ2YQxgrypbxmUV26rOGWctMxGmLDb97ttsThBO+yiQRhQ91t2TcSCaAdE4nDC0e+54eoyHTKzUCxgb/HTTzDgIG7P799QRs/f4fXr0Xr/2R+BwItv6f7tz9o0437bxTa8HH47Q/adAfilzh8IcXGyVeahis4E7/w1t9a8zIuVm42lZ+gmUgkEvuLHeU/ui3nkkQisf9o55Cj3/vDrtCYIjM5emsqV24SiUQikUgcNuDKDBUbmCsVG7jXVm5y5S6RSCQSicQYgQ8S+OsfdLOzFBv7S29ZLmsoN1Rs8sbDRCKRSCQS4wM8IVnfExWrNVWzkeayxspNKjaJRCKRSCTGC3q5LFZt9M4nbUtpuyoUnNHKjcISiUQikUgkxgrYlootqd62lIcDq6zc5KpNIpFIJBKJ8QPUmLjHJoirMo2CY+qO2wJDdyKRSCQSicS4AHrM8BeKjZv9lRuG5KpNIpFIJBKJ8QTvrRkQ1RfYaYZyAzf9UrFJJBKJRCIxvtB3sYL8e1T44UNUdNeVGyg1qdgkEolEIpEYbzz26KPlscceK48/9nh54vHHy84nnii7du4qu3fvLvN79HFoU25SqUkkEolEInF44FFTbKjcmGLzuCk2T+zcWXbu2sWv7e/ZMx/KzVpIxSdxIPC88rrlf1QuNnrDFzfRZ/MXf4Duix86pWymTyKROPzQje3XfdK9ngl4+ynlDYNynfM1uS/+2vPkkXja8Kiv3Dxmys0Tptxw5caUG67czGPlZs9qyk1uUz2zsan82EM+UFehUEISicThiFXG+GF+MVEvipa/r5zjfolnH3ZipcaICg1oHkrNfNnjW1KLC4utchMKTSo1z3zsKH907F+VqydAD5WH3Hf3jfe731+VT/zIDvc9EPhG+b2DwjeRSKwAVx2OLycd0x/Tf3LjYinHbCynPZNWWA4WPnhn+YTX2+/9jPslxgbdC/wm9IZif4lfPC0FLaa5oTiRGIVu2Tmot6pTl29/oLzua3FVJfePvd3j7NPSdZNPblUlEk8eL5wuc7TsLnc0FxPbf+Rr5epP7XYXMGJ1p7flssrqz962ZT75fSvT9OaD/hZPtYMOxNhfkX8/b6BbARpQlK2Z14ZpK5qtq9yqOrSgUoPHv02pab8tBd1G6k1VbhKJUYDCcWw51mwPfUpXMV+9vZS5c44fMZinyob7HuyuEM190gf2dekYk6jyKbc/VK4+9s6ynf6JRGK/8ZcLptYAc+W04Yn3Z/7WVyIw5vqrOxy3px7bKBjtCm83/hFnzW1ry6NNc/XPP27yrDIfGK8T/hTxfAX5mI3lxU9lSxyKzUVQ7XaXrzJ/8EXe3YUVFJuXnDPVxLm/3POwwvYdNjd+YCOVSNbfD3xD3olDAio1deXGCZpNVW2WU7lJrI7NXzxKCsfDj5ev+tLsjX/qV36nHjW4olksD27TVeL2bbvq5HrCPiyBf8/XNMkinz/JSSKReGr44J3lz3iB4YDCEisMobh88liNORupsbpTx21v66q/enPaqfKdO0FrQ6uiXT1xJaCU6XLUcBXELmakbO0uj++3gjGEyfoqX7O68aFyI23fKPdBITMc+yqUfVP5nhdBsTHc/oTH2V/M9i7Gcqv90KO+2wa0tFyWSEukRdDiUio3idVx7Ak+CbSoV4Vr4IPz5Qm37hU2kZ7kE2YikTgw4BZUb+XE4Ssjm18w7R4NhuN2xL07WpVdG9xmWrF6su/Yq+K0KubKRipsfTx0XytzF2f3fXudyUbjVJuzRuSTOHTAzcN4Mgq0y83du/W0VFAqN4lV0Z8UHHU/fw28fbZscOveYRNgTL5PdUk6kUiUzV/8vv6qKm+O7bZeoDxs//qCHC0G43bzBet8rPfv3Vkbzysn+MVKt3pyqDB69ad/kXYAVoiwwhz3Lp167DPrEfjDBFBu5nd3Cg6fmNoVpsiUm7yZODEa23/kkboPHsvU5/ywqza3P1L+6IOyDnHOG30ZutnOWhUPL5SHmmX0uXOOW/0GvkQisQ+Y5j0m/Rv/jyzH+WrDQ3/6jVJ+5iFXdubK93q8qsz4uO0UoNhOarZ0VkWnPNQVmE9u0BbOQceO8kfXSumYO+dYv7+nU7Yeuhb38u0of/8Vn2tedOSTu3n5/vmy/Wf+VvcfGY69KB9LP9SYnzdFBuTKDVZvhpQrN4k1gEe4taR87EXdnvvoG+h0017dl8fVzX7cGLz9Rx70yXZ/bkROJBJDxFjijf+9+160TaR7XHCzsFZzIh5vsm1v6LcTePdwAPgcVzbeP2I1twfw9W2ouNfnh02xYNiBhN8s3RBXUHAzM1dVIhz3xiyWe36+e6QbW3ZUTOyi7SWM4/f87Sdu/IHYbrO88gnPQ4rFxUW+z2ZhIcyVNPELb/s/11y62fAhncQ2lZ+gmUj0gH15TpyYQL626mpO4tmNHeU/ui3nksS4of/kWN4gPJ5o55A7XjNrx4kyOTnlT01NlqkpI7inpmjPlZtEIpFIPHtRnxzrnvhMjDfal/gF8T03NPGouPl53EQikUgknvloX74H4pNdufJ8OGHCNJfJqU6xMT3HFRwoNoiwnNtSiUTi4CO3pRKJxFNBO4f8/evWa3UGZJoNPsFQV3PiBX8etwF0nZYSiUQikUgkxgMT1E2WuEKzDHN5qSyTFklLRlB8GqQyk0gkEolEYoyBbadQcIyg4EixWaJis7zkXwWPPapEIpFIJBKJ8YbpK1y18Z+v3CyZUhMKjm9LpWKTSCQSiURi/DHBxRhfuTFlpl3BgWIDJceUG+g9Hi+RSCQSiURizCHNRQqOtqXae2+WyuRKxSYSBCUSiUQikYDGBloAADZDSURBVEiMCzodhUoOvg6OX6vcwF+IyIlEIpFIJBJjingQylUWKTYg6DnLZcmI21Kp1CQSiUQikTgcgHfZ8I3EA6pKj+k0E7/wto+tqdls+NB9bkskEolEIpF4enHfT6/j1hMwUoExzxEv8euQ6zmJRCKRSCTGCZP4MCbfTNx8giFWcLB8A3OtlRvsX238Ta3cvPHed9FMJBKJ/cXHT/x1t+Vckkgk9h/tHPLgvzmSKzexeoOVGN1343bdczMaq2o8iUQikUgkEk8TpqemypTR9NQ0zUm4J0H+XanR35ZyxSa1m0QikUgkEmOGqenpMm00NW0KDu2m2ICo6JhiA9PjElzR4YHORCKRSCQSibGCFBpXcKbM5ApOkK/geFyhKjWh4aSWk0gkEolEYnyAlZpOwcGqDRScdvWmWbnp1JhUaBKJRCKRSIwn6n01Q5oI+4SUG6ozqdMkEolEIpEYc0xAiZnAI+Ch1EyUCTPxaDgeB6eSs9Y9NqnvJBKJRCKRGCdUZQam26ns+MoN338jFaalBqndJBKJRCKRGCN0L+/zlRus2IRSw1UdI4+7AqnXJBKJRCKRGDcsLy33aVmEx71pt99I5YaKTWo3iUQikUgkxgxLS0uiZScqObC7cmPUU26gz5hfo9ikhpNIJBKJRGJ8UJUbp6Fis0K56ZZsehpO4gDg1g/OlhM/eIu7bikfOnG2fOhWdyYODG59bznxxPeWQ12tD1z32nLiz24tD7g7kUgkEgcPWq0JxWaZbio1VHJkr8pNqjJPHjy5mbLSp9eWa/XN0cRhg1Q6E4lDDV74tXNnXigk9oKlxaWy6MpNj4YrN3XBJvHkccE1Zfu98+Vep22XXVcufnc3SM94u/m//Ux3JRKJRKKU+8tdt19RtrVz56kXls11lTuRWImq2FDJWazKDVZu4gbjwXtuUsM5UDjjpVeUsu3Ocre7+9tSA9y3tbyhvXIx6q0e+HbLte0K0YqrG606tDzaOGtfHd1frv3Z2fKG67b2eKy1gjFyK4bl8BWrvZQp0l/byrWiftYu02q4a816UllXhsP/peV9ZnvfBR5GeaJu7mcs4mna/koknnk4vrzqY+8sZ7gLeP4pryzl9q/vdZwnnr1YWlwsi6CBYjNYuQntJhWbA4lbv3R5ecVHLuoN2lVxwpbyiebKZftHXmkn2OHJ8/Lyx+U3Pc6Xyju2XVjeVU+4fmK+7Es9Hi24cuRhK9MLn33zneWsJv1KGTo895U/Tx6/30S4deuF5bOX/Xx51Qnm2JcyWfq7Xupxbr2mvOL9L20UoL2XaTTaerqrXF2G9XRyufjU4KlwXSVikrV6Mds7trlMudKWSBxi3F/+5HPXlXLqC8pz3SeRGGLklpTRyHtuEk8RdqLeHKsBRhe83/2fBJ77Qz9eXlG+Uu7q3bNzRfm5Vx7v9jPLWZeZMnLn1+W876byx9uuKNv2+WQ8SO9olbHRMrQQj/d9KVZbbik3W5nf8dLRMozkd8E15ScjwxPOLj96QSl/ebcrIvtdpkBbT8eXl5z3yvLZz92kq8AVPE2heeMVeZWYSDztiFVau/go15TteWGRWAPLUGCa99vYf8USTSo3BwqDe26wKvCjnzu5v52xBnrbRmdcWD7r/vuEe+/ce/zBNtFTUb4CZ2zBassHuA31wHUfKO9rlRXDQS/TPuC5z39Rtz1InpeXC5p6OPGCy7vwRCLxNOHM8jafO7ef94dl8z5sPyeevZBioxWaoKGGs6Zy02pBif3FYNVgDUAJuOD2RjnCFo2HHRBAsTHl4oWx3WK07TIPeyrgast15Y+/fAuXkl9x3tl1Kfmgl2kf8cDdXzHF85TyfHdjZae9eVHU3/NPJBJPH7jKmxcciTXQKjWh2Eiv6bSWtVduUrt5Cril/P6b+yf80cDTAqUX74Ev/+H+rVqccU55R7m8/Ifm3hLuWwe4YnFFOauewbWF9NShbZ3Pvvml5eJt7XbQISjTPmHQBmdcVK6+4PJyQe/G5VvKh+pV4gvKye3WGHF8OfnUdgvv/nLtxy93eyKReErAhddglYb37vUuSBKJPnDjcO+lffiZCcAOmHLjX9WcwEen4iNU+NqmPkaV2EcM7rk58cSXlr/8yF3lE/WEvxpMQXj3NaW8+eSa9l13vmg/VznOLG8z5eKzlcdby12nNjffnvHOsu2ydjvmxlIOxMoNQCXEcNk5zerHISjTqmjLOWwD3DR8V7n69pd6uMepSlgoa56nK0Hafos0by3lvCvon0gkniKw+oub+ut49BXfj23Zy0Vh4tmMhYUFPjGF7SnTXvxr4KHLSG+ZuOytH7VQBMMTPnag4iPtZ/1V99J8473vopk4PMBtofKlQ/DED24E/EA5+dZP6ympg4hDV6bEgcbHT/x1t+Vckkgk9h/tHHL3T02XyanJMmU0PT1t5pT5+mKM7zhxW0qKDci0H2pA3epN4nDE2k8uHUg8wBuJf7y85CArNoeyTIlEIpEYXywsLvA9N7EVRZ2FOowpOK7jVO2FfqRQdIxyW+qwQe/JJN+OedtBv0tW97S8440HZwn56SlTIpFIJMYZiwt6eV8oN7qtxvUW124m9+zZU/YsGO1Z4D7WomtEeiGOr+8kxh79l/TN78O9PgcCenzzYCkcT0+ZEolEIjHOkBLTwG8s5sv8lvVCPyo3CyBTcKDcUMHxVxrjOfJEIpFIJBKJcQGUGzvIsYy//fylftBdoMNo5YYkxWZhQd9skHKTKzeJRCKRSCTGB/XWGftBS4GuUlduQItLZbJTaGI7ysgCllwLSiQSiUQikRgbxKoNDegqAwVn2ZSbeJ8N3nHDm3LcrWfG82mpRCKRSCQS4wPoNK7XOEmx4YKMKzqTocTgMapWqcGSD+yJRCKRSCQS4wZTZ5ofPNxujkm9lRiKTH/lRis5qdwkEolEIpEYI7SqCVdqtFoTJiymx/RXarobdYBUbhKJRCKRSIwRoL9UK5QaKTT46c9tKV+pqas08SiV0eKC+yUSiUQikUg8/aBiA2WmJflyTYYLNP/233xwWas1jZLTrNwcdXX7vdZEIpFIJBKJpw//fUspU6avTE1P8btSU1PTUnCWlvmkFEw+LSVSIgu3gFy5SSQSiUQiMYbgSg0MX7Wh4kKfgqUZLthc8nMf9q+Cd4jIeNfNcz7+EP223GiqUiKRSDwJbD1nq9tyLkkkEvuPdg65418vc+UGXwafnsIXwvFVcOku0Hqg+kzic+EIxLKOSMs8iIzPiScSiUQikUiMC7gYgzto7OdrONBs4Fsh5YZkygz3r1zBmZSSk0gkEolEIjE24H00zX6TFmzcKpspNzOu2GAFRwpNu3qTSCQSiUQiMS5ob6MBQqFpV2+6fafOr2LIIJFIJBKJROLpxER9sts9iL4SMzk/v7vMz8+XPXvmzcTXwWFfKAv+Ic1EIpFIJBKJccHk5BRe0kfik1HUcqDsdHZTbqDUiKTY7CkLC3vK4kIqN4lEIpFIJMYLU61i4ys4UGkIt/eUG63cgBZMwcHqTSo3iUQikUgkxgexajPpn47iak1dtREmqcQsLHKVJmhpCYS3/C15tEQikUgkEomnH3jYqSo4WMHBO2+g3MAMf92Cg5f2uUl3oNOCEolEIpFIJJ5u4B18eqLbTLy2xl9dU2nawqDVhGJDmFEVnNRtEolEIpFIjBFaZQYKDldyjPA6G7yUmG8tliKjFZuq5NBsd68SiUQikUgknn5QsZnU6o2osft7+7qVG5j40Q1a4relEk8dO77wlnLqFdeXHXKV6684tbzlC3IlxgHby0fPObV89Kvu3Av67ZlIJBKJQwneU2OKTL2/pq7kaNUGX12YhGJTlRpTZvTBTHwRHJRPS+0VX/1oOdVOjEPa1xNlIpFIPLuhC746f+aFQ2IviBuIO8XGV26mp6jYzMTKDahdrcFTUnhianFxwVkl1sYlZeuNt5fbnW7+pXPLVRd/tGz30E0v+3C5/fLzyyZ3JxKJRELYfs1Z5dJTttb5c+spl5azronZM5FYCT4C7qs28c4bKDi858YUnJmZGXx+QcoNqSo2RougXLl5Mtj0gy8v55bbyj0Pyr32NsbgqgXUG9i+ZfKF68tbapy3lOudtzCCxzmdcrVydamfPuS7/pomzlqTy4OQZbQM2m47BGUaAZajjV/z3Js8A+ylvgK37Gt9JRKJ0bC55Lc+dW658rzN7lHK5hdfUsqnbllzrCee3dAj305TE74lpVUb0sx0mcRKjRSZUGoWG8r33DwZ7PiLz5cbLnp9Of8491gTm8r5l3erPrd/+spy7qe2rNjWuurmUi6PK5uLbiiXfqRTlnjlU64sNwePq21yaHHamzr+I9ITN11a7nmxx1lFhorjzi+vB4/PNdPPVz9TLr3pkvL6l2F96hCUaQhTSM76tdObFbSt5ZI773F++yZPxYGur0QisQZOLye1c+VxJ/UuDhOJIbAIQ4qFGSfsPpEsbHLZFRm+wM8/uQA3ApkgsQ+4qmxprvTP+rUb3P9J4Lgzy8vPLuW2+3qn0nLJa7ptLV7Z3HRPuYeu7eUWXPm8ed+3vfrpHWdfWV59mttXkaHF8Opq+59dVcpFZ5bu+qvBISiT0E6Im8ubVtsK3IfytTgQ9ZVIJEbgwXvKU5gtE89SSFdZ0CIMlRzdI4yXEuMrC/O7d5fJumqDtxSTkECrONSKEvuA/j03vNovW/Z9q6K3DXJWufQm998X2ORwm1tXx2Bb5mJTRJ4qTnt1ufLsq8pvYRtqxNLywS/TAKe9SSssr+3K2VtJ2S95DkJ9JRKJleAqTSKxf9CHvfsKDu8TDuVmfh7Kja/aBPmnGLhyk4+CP2kMVzZWBU66F99Wrvx0KEY3m9LgYQcEOFHbyby5YW+vWzz7hE3lzLPOLTfcbGXENtzZLy9nxtLyQS/TaGy+MPIb3NS9X/IcrPpKJBKjMdiC4mrOYKsqkWiwyI97u87Cz0XJXlduoNzoo1N6GXEQt6O4K5XKzZODnSD/YI1tmgY77rutlFYxePCW8vn9WeXglkj//hduEVXcU+4xfpe8uJOkH/7ksellry+X3HRp2fJrN/S2mA5+mVYCNxO3KzWbTjjdbfsrz8Grr0QiMcCI+/fW3OJOJAx8uhsPQwXRaO65MZrkW/74bYZJPl7FZ8eNEBvvvUnsC/r33HDbA1f+F+59eG562eXlynJpOSvSfuSecvp+rXJsKue/WTe0Rv63lHalYXN509WXlKsuDtmG4U8Fm8uZF8G8pJwZ958YDn6ZVgJPqN3WlFErNW/iBLl/8hzM+kokEkNsvvDmcuWd3VjfcueV5eZ9mDsTz14MF2XKhHQVqC50w/4zr/lVU4J0j02840YhMv7BH83Q3HLjFpqJ8QdWMc66+eXl5kPwbp3t15xafut5N5cP8ympg4dDWabEgcfWc7a6LeeSRCKx/2jnkG+/cYM/Bu6LM1PTXM3h09/QY2LlpnuFsV6MA8UGO1K5cnM4Yke55eYbyrlnnXnwlQC/kfjlP3iwczqEZUokEonEWAMrN1im4foNd5o6yIkdKL4Ix5Ub8wXFkk+qNocH+i+v05bYwV5JAbZ/7tL9eJ/P/uHpKlMikUgkxht8mpu7TX2KXSiYEz/7uvcuazknHqfq0z/cNkdmuZScSCSeLHJbKpFIPBW0c8gDPzNX6tuJJ/EBzSntNvGmYm1NTdZXGONbDSSt3GBZJ5FIJBKJRGKcwEe/sSCzqJf31cfBQebGwoweBedHqKTk0I5f6jaJRCKRSCTGDIt8+bAUmUXsMrk9XkAMRWcSSzhaz7EURlyzcYUHSz2JRCKRSCQS4wKt0rgiQ8WmU2pk4ttS2J/CPpX/CFNucIMxvrKZSCQSiUQiMS4IBaYlKDhV4THiV8FxZ7FWcLSAgy0pbFGlcpNIJBKJRGKcUBWaqszonhvdg+PKTSg2JF+5wbZUrtwkEolEIpEYN1ChoRKj7al2xSaUnMnw4MqNAffc4MkpvPFvZmaafolEIpFIJBJjg/ahJ6kvBJ/2xn3DF7363fSOx79hhGIzPT1djv3kIwhOJBKJRCKReNpxx2vmeesMn/DmC4gnPcT0HFd0fOVm2T+1AFICbEnNzOi7UolEIpFIJBLjAK7FONoFHC3QGEGP4ZZUbEvZHxF1vw1Wb1K5SSQSiUQiMU7QLlMPPY3Hwv/nV/7SMjQdrNTwNcZTk2Vubq6sm1tX1q1bV6Y+dA/jvvHed9FMJBKJ/cXHT/x1t+Vckkgk9h/tHHLHa+fLpOkyXKXpbUuFgjNR+AlwRjCKJ6RI06JEIpFIJBKJscGyv58P1DwU1RKUH6g31Hyo3Ey6cjM1XaaNEolEIpFIJMYFocAsNa+ykYLTufGlTKztaGkH5IqNVm9SuUkkEolEIjE+oALDFxBrBSdWbvRSYlduoMTMTM+IZmZ5EzEeAccKDlZ0EolEIpFIJMYFocBQwfEVm1axoXIDRWYa77QxgmIzawoO/HBjMVd1EolEIpFIJMYErRKjlRvYfVvKlZxJ3Fcz7Ss306bczMw2Kzep3CQSiUQikRgjSLFZ0j03zb02UHLiPpxJ3Fczw9UbbEtpawrKDu6/SdUmkUgkEonEOEHKTbeCw9Ubt9sfAVi50Y3D3J5ymoJiMzGpSIlEIpFIJBJjAugnE/j8Ak285wZ2vc6mfpKBj3wPlBs8MYUtKWhBiUQikUgkEuMCfleqKjh4Tx8WZGDKTkWnv2qD+21m6v02qdwkEolEIpEYJ1CJCQUnlBpftakrN1Rqpkyp4Uv7pkhYucGr/VK5eSbj/nLtz86WN1x3v7v3glvfW0488b3lVnc+3XjguteWE392a3nA3YlEIpF4dgDKjFZsQrExwq/6lTKJR79xIzG2p6DtALopRzfoJA4tbv3grCkRTh+8xX0TiUTimYnenAfKi5bEXgAFBgswFVRV/GmppaWyuLhkys2sKzfTU1zi8ThScCxi4tDijLfPl3vvnS/bLnOPRCKReMbi/nLX7VeUbTbnYd7j3HfqhWVzXtgl1gCVm6F+E4syptwsLS1KucFj4Fy5oTakSPFK48Q44JbyIbui+VCzJzTclgn3tcOVH24nhd8a20r3bS1vqPFEbX6Bu5BPxNnrFZa2vlbl2ZNtELaP8gTWvvqLLbitrMd94ZdIJA4Fji+v+tg7yxnuAp5/yitLuf3ruXqTWAPYhGoRu036iCZXbngTMe6zmdSNOe2qDczEYYRtF5a7XupXQLdeU17x/peWEz9+StnOK6K7ytUXXF4uWO2K6IQt5RPN1dP2j7yyvO+CoTJ0efnj8pse50vlHZbfu9a4Z+fWD55cLj71S5XnvduuKH95t8eH8nLBV8rVt3qYyfuXF7y2XHufgvdNng6x4iUaLdtn33xnOWsf+SUSiacD95c/+dx1pZz6gvJc90kkhtA6DA6+IBPEbSktzEzCS8qMvs0AjQcB8ca/xGGEC64pPxmXQCe8oLzQjHe8cYtPEseXl5y371dEz/2hHy+vKF8pd4WyQVxRfu6Vx7v9zHLWZaYw3Pl1d6+CNr8z3lk+4elv3Xph+exlP19edQKdVGZ+7rLrysVbRytfo+VZDaNle8VHLqpXiPvHL5FIHFxodfrEE+2CqFxTtr/9TPdPJJ4cJqG/cDnHtR3sVS26opO6zbMLva2dM0z5cP8nizPerhWUzcFzP5+22i95BttYF7zf/ROJxGGAM8vbYlX1vD8sm/Om4sRTBB+P4soNFRztVS0Z5crNswtQJC643a6YfILhtpaHPXl0E9Zet8UG2C95oNiY8vPCbZHXfN6QnUgcpuCq6rY7y93uTiSeDCb7qzZauZGZ99w8fbil3Pz+Ul5xygvc/YJy8gWlu1/Fwn//zde5/UAATyxYfuedXfe5H/jyHz7FlRvcxNuu1BxfTj7VrYYztuCeoA9099iYgvIf3v/KcvUWLEfvpzz33mlhV5Sz6l2Jqr9EIjHmwIXJYJWGW9YXnFKe7+5EYp/hdxnDoHLDr2ty1WaxLCws0oQ7lZtDifbJopeW9132pXp/Cp8oeOMV5bNvPtnDbywnf+SVHnYgYPzffU0plf9sededL3qKKze4x+cr5QLnB+JKTOyl44bhbS8qF5/h4Vx5+bTfg7Of8pzxzrLtssubvG4sJVduEonxxwlnlx8t7da1zxMfi3sFE4mVGKWZxO3F8Qqcid+4/Npl3Ui84IrNgramfCVn9v/Q4uAb730XzUQikdhffPzEX3dbziWJRGL/0c4h//21e+y4zF/BAg08acViDb10Q7FWbbqVG25N5T03iUQikUgkDhtg2UYw5UY3D2ulRltSUHT0duJUbhKJRCKRSIwfQpXpVJoOk3oTcfek1GLcUEylx2MlEolEIpFIjAHivhqi5+gwqTf6dffY4DFwrODkyk0ikUgkEolxRNVt3BzCHwWXYhP33Swu4qYc3ZiTSCQSiUQiMT7w1ZqeZtNXd/xRcG1N6d6bVrHppUwkEolEIpEYE7iOAmOgrkzqfptQaPpbUfo4VSKRSCQSicThg7pyE6s11G8M+EI4vxKeSCQSiUQicRhhEvfatApO/x7iVG4SiUQikUiMEfZBNdHKDZ6MolJjKfjXqs3kBL+rmUgkEolEIjEWCN2mNUnQX0Bm5z03XLFhgCk0k1NGk6QJo0QikUgkEomxAjQYmlRrZA/TjIlffuvvLPPx73jPzdJimTIFZ3pmukxPz5TJq+5Q5EQikUgkEomnGV/fsmjH7hNRvKMGu1CNOck3EfuNNrEVhRUbmJPUiBKJRCKRSCTGCVie6aydQ5h458WfNEUHyg1UHv7L1NRUmZ42mpouS7/xN4y45cYtNBOJRGJ/sfWcrW7LuSSRSOw/2jnk6z+5iCUaLczQpMH7h2nagR/OhIs3EU9OUrEBxb03iUQikUgkEmMDaDN7gW4oho03E3fKzdSUbipOJBKJRCKROJzQrdxMmKMqN1BspsqkmYlEIpFIJBKHE/ieGwDbUriBeMoUnNiSmsj33CQSiUQikTjMYMqN20yx4VNSvh0l6t99nEgkEolEIjHu0BuKzcJtKb/vJhSb/LZUIpFIJBKJ8ULsOAkwJ8yLptMkXoSDiNBjsAsFpaalRCKRSCQSifEDnvSmsQKTocRwkcZ1mQmoQIlEIpFIJBJjhmV88Htp0d9rY/rKCDLlptuCkm7jkX01J5FIJBKJRGJcgE9GLS0ukajomM4igl4jc1KPffvKDRUbbVORUrlJJBKJRCIxRuD3MKHg8HuYviAzoMl4OmoC99eEguOKzQSVnEQikUgkEonxwBIVG2xLgdqVm07R4bcxSZaAug2hQCo5iUQikUgkEuMCKjBuN4TuIj1GLr2lj89QBfFvQOImdWIMsaNcf8Wp5S1f2OFuYccX3lJOPWel/8EC87viepMmkUg8e6H56KNfdWcPCsO8RBoxX2y/pgk/56Nlu/sL/fT9PNbKN/GMhOspUGTanweRmlcQe7CHQK3JlZvDEF/9aDnr10q58tO3lw+/bJN7JhKJxMFCKB5nlUtvcq8Btl9jYadsLbffeDtp6ymXlrOu6dQXXCBtufPKcrOH3/xLt5UtjQK04wtXNOm3lnJxo/x89TMMe9Np7k48OyBdpj74pF0oHOTAnTawKV53MPjeVeLwgSk2p158myk2Hy7nH+d+xFpXTdvLR3El9IXry1si/Jy3lOsf9GBP21sFQj5xZUVl6oZSbrLJqk3bxiFW8okVpkp1shvI2wszOO/r2/S5cpRIPE3YVM6/XErHJe7Tw4PXl9/61LnlyvM2u0cpm19sMT91i88P28tnbA655DXnGydh0w++vJx70+fLLXUeKuXc553ktpPKSWffVu5hmM1fmPMa3olnPqSxGLnOohcOh+4ic5Lh1d+VHANvzFlK5eawwZqKTXvVdHO5svSvmoCrbi7l8nrVVMqlrx0uC6+C095k8c8t5ey46hrmvwqoFJ1etnqenBjvvMcVlJgsnT59ZTn3U1sGy85Xlc+Xy7u0plxdcYi24RKJxP7i9HJSOy8cd1I5t4SCApy7Ivz0ckMTXsoN37jHbfeUe24Svx1f+K1y2y9dvm9zTuIZBaktUGzcbab8hMnO6oqNHXivjtESHwtPjD1uvsIUm6tKuej1Kwf5g7eUz990Sdl6YVzZmOLwGrtqqoqEsOKqqTfxHCy0eWwub7q8k6GH484sLz/bYt/Xk7i8vm67bS5nXtROfolEYmzw4D2mpqwBC7/Nrath08suL1feucVXareUcvWbbNRjxed0zQNczc1V3GcLtP0EoktuONwPLn9ayrUfkCNXbg4f3GBXMVt9daO3fQNwYrmqbImBD4IidJNd/XiUFRhx1XTAcdqbytaLbiiXvraTq7cy005Wa+zlJxKJMQdXadYA55u9ob+ai/trtGrzaio53Jr6tMJwP0+u4j7zIZWlWbmRIZhns3IDKDrut8HSTa7cHB44FwP8uPPLh13BWfmU1CXN9k8QrnxWAa+kBsvEBwGbL+zkwdbWVXGTYN1ii/Cby5VnM0kikTgsMVgJ5kVXu1U1uJja2xz04PXlili1YdyO10nPW1OVSjwD0K3cSGeRW/74Ad3KjXtAsdGWlCk3uXJzeMEVnPJrZ3UKzmmvNsXgqrKlt6JjVzprLN1u/9yl5YazX17O5GSxqZx0Srvls6Nc/wdXuV3YdIJddw1XgoZ76niioVl9wc3E7UoNeTh23HdbKTV/A7fW3J5IJA4v2Lz0eqzSfq6bg7b/GbbRz/QLrM3l1bi4+YPm6ai/+HwzB60E5qjTuTVl4MpPN9fc8401N8ESzwRUvcVNpxpmBj68UF2wCVBw9M2GxGEGKDhXX1JuMAVHW1RYzr252a8GbSm3nXVm7/6Wqy6OsFP1SGZz/8vm83zLi+FXlHLW4JmIUKAY7k9LxYQW205/dlJv9QX39dzW5KmVGk1W3F/HTc8R9pF7yum5cpNIjCni6cYtBZc9MZe0Fy+bL+zPQZxj6n2AGPMf1uPhHs6HDVa7B++rH2X6V9dHvzeXN119ep1rEHZ5vgbjGQ3oLdBlWsWmU3BEE+/+d59anpqa4icYpibNnJrk9xrqtxvefyeZbblxC83EMw14FBw36GkfO5E4GNh6zla35VySSCT2H+0c8nevepzbTvrwt/QX3COM3SbcTgPTwk3D8R+h2214Q3FuSyUSiUQikRgnaIHGtBaSVnBkYSgOfkOx/aHGLMfPFBtoQfpCeCKRSCQSicSYoCo2owgqDd5QLCVH8BUbKDVa2knl5pmPzeVNN+aWVCKRSCQOD0B5gSIjTcYVGldqcMTfHwUHcc3GlRun3JZKJBKJRCIxRuAKDUxSZ+Ofhq/cwBswfaan2OR7bhKJRCKRSIwVoLRAwRlFCLQ/V254v40rNrzbmIqNlJxEIpFIJBKJcQFVmKrQQM9xU4E0/avggK/YLC81lMpNIpFIJBKJ8UGn2PTJDlR8oN7wq+AA9RgoN3hKCkRFJ5WbRCKRSCQS44NRik2Q6zbtt6WkzPApKVdsUrlJJBKJRCIxVnAdxrSZTrGpuoxM35aCIoOFm1BqfEsqdZtEIpFIJBJjBCoyVGiqizqNlBxau22punLTbkuldpNIJBKJRGKcQEUGpikzbkqlCcP83/Pvf9f0GHxLaqks4XtSS/imFF7gJ/OIj6327ehEIpFIJBKJQ4t7fnLRv4epb0vh+5j8HubCUlnw72L2n5bCj6s28aRUrtwkEolEIpEYL2iBxlduCLPoL9evv/N3l/kV8IVF03gWpP1w5UZkgbzJWC/16xSflrjLhT8yst/UtDSpqanpMm326WmYIviLl/ggr/n53UbzJMihtCJ8pVz820Lo/iBA22iSUfKaP+TCj/qZ4kV8yMgviYKfmZBpZnqmTM80MlJ+yRp8gxYWFpz20ByGQyGMepEMjRlEBbKrgx41ccmLUsNNi9dBUxE9DP1Xi/fMgUqofjc5YX0F7eo/+dMo69atL+vXryvrzZydmyvzu3eX3eh3u+fZjuvWrSPNGc1YH9i1e1fZtUuEMTE7O1uJ/aJp8yXrw1jxDFNXEN14gkzT1sfAF/1sZma2zIHXnPhBwBhX/Fhtrx8U9bU9C2WPmXv27FEZnVA2XalYn6S5qLT2099N8jSQp8LZx6rbw2SjnQaPQPj3/VS/IQ89HV2sDu7Xi9c6wzYibY3UhJkVsqvKvBwgjC/8huPM/SNdMAkbewv/nTmsa4YhrhmRrrM4FLVaWrts1SJ7DQq7XJ3hlopwr2YCQ6EGbkbdS5wV7j5Yh/oLboGhsejj0cyof55D2C42d8NuhCvvIzYeUY444ohy5BFHlnXr1zNNHc9m2oEi44g0GF8xzhCHY8sJY7KeU/bsLnvmbdxwDM3TBKMpfEnazi2gRRv/exYszMYWSH1DpCJJTrrM7M6TRjbeo3+QuJKgstOkXeecrj46Uolg8ChXa6cl3C4H+zPmnkXzlYSdeZDRZMP6OARg6S0r9odJzfOTZqINhys3C02/sF6jhGw6mDrIk74t3OVRVNFMKX+AknSNR6KnN5ShxqbF80XHx4kiJiIEWRKmJR95iJfscURc8Kj8YHhMdaDG5NFAnk6oMFZSkD6hPoXOD3d0Sk/KPKLsJrcKIAFoHHQor8RKtG2O9kGfQmfHZAAgTAOia1c7VKpuh5q2ae/qRqAIBhBmh44PQiUPTOvjdCtEsZq4EAE/H8SQs5WJGTX5Cm1eQLiH/o7gEXxQJvdg+egVESQrCXEJ2Vo3wmlr48POWF3M1irpcGzlbNwrrN2PdcI268I48dm4xcQXF1a4eCHN2EWMuePiC30gxrXaxhVVnxyhMNIOgvJq4awTwlKhfD5v1XhOoWiKuvDKP+xVKR4oym6nOYLiBKfKbCp0jNFKqT5BC6Gm5EFtQnsEKE6FpWGvQt+K84X5sf1jbLdj3MYQWCCO6s/azNPBU7xghb+7lVPNHvLEBXHl7f0s3KHIUJIqszh1snZtGIsIte1HkcfnBTzMWt6Q8FmEaAtSreCmrlHvHsNMKTcA60qVxt+g7qrTLAhHBMSJim7jgz8yp6kD7fBtwSQ4WGJ0KnY6NiA9nUeXlqazkB8sbkKqRg5G9UjVlAOcuh/cTrXTVrKOG4MDPEAG5FHLHfkyBGjtBx7M2+2t7dkONg3J28qAdkF/0iSiiqMia5MSJyK0K9tW6du+gJ+q19uXRKbwhMV/sssScWDvA/6M35ucQMiYURpIBio2ISfjSKZI6UwrKLXLvoIlgHxhVHJb+Msqd8/PA3qkpIS54QUPlUv2GsGM6h2gG1I2koazkiy1RHA31PvBDbK64hWdKS9cfY2VY6zMxuosw0K5mZSkJiD7iikWUDxwdV6vAkOxiZNilMtQ07nCsio536G7r+C4UrOCGn+c7HjC8zYa1uu4IuQ0c7TI3tbRjmhi/gSZOjI9+LDurQ4wtgFP283fPn7AzIB2Qx1CUVDddZKEO8an52KAIMYHvBuek+hDOD/EBbCHhewha8gZJHm9LUnetgNFttuNaOJHesgHerbCq1bVjGNb7zW4TLLCjVj53lGi8mBEIyuBHWkJM+IASONWh2Wno6epJgznzXzpcKo8LJaS80ADiPCeKTnIS5aGryA2kMEIHRSdkpq3d0woMRE+IE/tAE/xVV60NrA0MoSatM+nla2HxttzQXH6GJFUssIMu8tRgURDcqnaND1S+N5AHgOq8PZQIZo8R1DFID7AOC4XJhq0WV2S5NWTK6LOKfqC+rZPZuDnLFk28MPPTUF5e+w+nF+dYAyUC8dI7ulANYxQmiHZAX+GA5ILFro6GWkP/w5K5fA0waSWy930Y8QOnmt37A7C0N2i561ydGUbyGZQORsM48AxpL0BMkTZjOJiRCcgrL5KkZnGFjkJJ6TupMS4rBcvjOVJ+b2Nqcw07hqOH0yP056Y6slphR/6jtkjvptxIqvhQR7eu7LvnQQtfzMl12gKGVcjOzSk8pN0qGA1NwSw1rzu6OcB7hoByxN8kZeBvNhmzsc8QEKfh1J4ehxD3gEilXg53/BFEiYbkZZRFBdWHplWfGgnxfnC+5iTLkC6cwgTGpBN1HW0W9eeUHDNrMquFFwpv/CPME8DZTjSOs+uDSOzhgZgWVb9jcBeeIrfvtEBgeVPMWiyFQewcqD+fUxPnX3mj71blafKlSaJ1EGeDglxRMP1sLyiQdtGD8IWjyYa7b9q4KLBvTEtb5yEkEtMSDhpQdAeKJKEkojBS5NDe2UcFICMnOiwVD0zo/snsEzd5uNloRZuRJ4N79q5nJRGhoD0NEbCuHRlcPmDOMGFG4EVYRdT8qddeUX9Dynid3nA0RGiaEB6O5mHBq2XnzwclCkgBgy1ODW/SghAEuUb5UKAomAy6CaCNh+2H+oaeXiGCI/JBAoN2gwnqWlrw9qOzg9ysl8hP+TvTGaxJeFX71CEsM/OrQfrf5AN/SIUJMiP+3C0LaGlf4Txyo2yolwqJvM0Yjlr//N2ZLwYH6hjlMNMKtV+gjXqEPVDzkaqA17Rc2yCTBbyYwJGU99UXPtXHtGuYmdu8hTnFoyLn5lVOYAZaSIBGMEPFHHYT5xHzzTyZCswKoweOKAEDrdWH1hacigp5HHZgvzHCIwEVAvBGBYX3mwbtDHJ+IU96gLxlIhgGwdBILAhK0SgRfbqJ28ZA/8ByLHl74Rsqp3x4A4T/jBjHtFY6in4DdnB/tFXxUg2uhoZ6TAyHxD6FH4sLNzuH35uyo66C9k6gifCeXFiY29ubs7GMWjWxvYMclSeAEXytN7XyUNisq00ftUfMU5i/NLEOYbnNY0hziUYe97Gxo38AclkshnJQwaActCJ6GExRFlZXhBiMbxDyEyxqx1kMpkJueDmHAI5Eca205gPZbltW+QPux3cz8hlkgguRLXTIoPUuXGo8cFSB3c674Y/09bEe6e1f2ujhrtlAiIYQYY4L4AC0RZT/+KHLng3Kk2KTVuBiNYWpktEmLdCcIQ/7AqLzHiyMLNTbKRIsNGYlxQbTtxeeWDEjsrOp0mll9cKe/AyooKEDiFe6BAAeHDiM344KeKECMJNncgrOjLSRBl5YjDiibnpZDUvI8rr0hBeBxA5GgKIOoQBO9O5nX9zB78IjzgtyLepa9YNZW2pPxGDDQ51MPAoQpzoHFQOOKhVblBActFSTWdQeTA/mAj3Y5QrytbmB3tLiu/th/jKgJwYBzKiD/nN3lJspk1p0U25KDfEQlpMaHSAhXPhjbzTM55+ktsOoTAgT/Y5lJmy4EZ3TYaqN8jsckpUGeaWv8qK/qarMrN7WQSvI8ZVv47+DQqmrBvKYA6IT0J9mCze/8AX5Yk0yIF5Iy59LMRl7fHXvw8kgL/ny5MWTMgKGplI8RnP81HcFnAF7QUeJWKqDF6SKJAB1iERnvdQppo9rfpVuB//JKVBXWkMwK26Y5i52zTInP0T/9rGHu5xJILbcVAEN/puoPoBYOmktjVi2zfEQMauaOPFBQX6S9sfR5IyEo+WqYkEuVAWHFgmmkPSuIFd6cIuwlFzsvE3WWBHOM4FGIu42X7Ob67HvIyLlyEgFdMHH5cTfDhfGa/IHuMFcwDue+JqBy6eQ7mxeujmIKTzRITJyqKE3MjF86kH5V1TmYXx+aejyoGkSh1yi9QeMmn3OYjy1TDz87qSHbJHXJuTYDdSJrLjpwwj175ssuonObsw/APBp+VJG/MzMLnSr02K2/IejbUjRKhxdJtkQR6a41yxRbjnjT4xddY/O5/KjVZsVHEsFMuhgjENfs5M3l0cFqJBZMhtAyo2fqVtJxa4kQ+1aTu58CTieQLIg1e1SGsCwq1smKPnTQ8dzZ/y95Qzi+l2gLJbJwZPDCRcxWMg4WqBlYI8nA/slSyNeKGsojafyr+rfR7oHtSJ5O74rEkeL8oIKI9GNhJ9Bn4iniSRJ3lanbAMxqLhq3ZCG2mSicHOk5wRIHnMtLJKLnoyTPkoPkyV2dx2RAzUD9vB2hhpIy7yirYNAk8OZq9XpFeY58OJUH0ISg0UlVBs5uyKD0B69Cc+8QAOZCJCuyMtlRiTIfJB3wPixAigzJQB5bQ/fSGIhwGSSX0KJZbyAbKyUn7UFUhJdcIUIU3bxxFBdaMwoEuPOjR5OEZAFp0CMBohmRQfiHakbMi8xcAJN2RgXMiIdC4niQk8EcvShY3kvwJ7C5fMLVB2t4wKrkAQpXM52jom+U+R8Jcs9GUcOGSP8sOs9YEw8EQ6Je1gmVNOymcH8iI7xacj7HLKaNxMuxLgyx/b36idf9gfGMncii+gz8IP8dBPog+jT3Z+K2glI4O5KaZJG3VgbsiuekMfaevc+wHSwI8G/JUG3NWHXSazo36p3GAV1girNnHRyQtOZN+glZnyQUTLgG3FvJQvyhMXzSSc13DRi7GJirP0IXftv54Z/aIs5IToo+Z4IdIqb9l1oEUc+Ifc4AXZYFebVEWG/t5OlLMzq5/Lz/Ij3HOQvTEbUGaI5fL15HWiW7FlAQuyM25B+Lm9Tcv0a8Li8EfrStpH9KKGbFYvyJ8r+TifWF9SX/QxDKoNz4pWx0NiO+DPghGWQ1sokYIqENWjEx5Oww/4AcpCjcb8zL83yYK5p2+ZSh6XjTKOJnaQIPsxZ+PJSR8nSZ4o9bh3DA7GdXlkd9N/yr+PWgfgwTxgp0cTuDrIz5nWnGqeKiPDhhkTnl8FJEC2yJtOwdI6F5k4NAwjzZDsIDLUdM6jpcimtQkW1/LRYEU6MjA0vEfkw/I7RRJFiT4Sio62F2dmtYrDvmO/Np2lYjrKYjKgv1GhhpKKeITnHfmy3emlvgi+FoX91dIxvcVBHqwrxCEP8emAvN0KIIlTTFzq/0YMZAqL2CSSN9FrFwflxY9pBXLgJO2DvBlTHTk//NyvG38NRVxw9QzEX376udvDV6ILQFk6Yqn7xAqSw0umMo4gOyCa4rfw9LJWSxwojuS18jZ1xJOt9y2urHHSdGJ9WllHFrJXE/zLGBV3JSAjf7Vc9m/LWKmZm2iXW/3I/XwuZ79yO/zpV9N4GE34iypvyOQHuRxRLjdp5y9M2RUoHs5Nv+BP5hbLGMV4rnM+0jKdwc02bcwlQLQH2hFAPCoBTm35AeYX7WnUpTfCeQH+0eZNe4P66PwrH6SvfalJB/L6CHjxDV25RGoTyL7ynhvMWaK6KACTZcR8pHQ8f6HM3q7MDGR5eZZ9INitK8ICq/lH0dYiwurCbT2M9FwbVrJaV23dCV0bcAzDW0GjSuB+EcmJvjwM4AVCUdSuMHFlqmAk6gRSY6jzKYxpkcZ/kZB250G7x28LNxTHoxORXmYbshrAzTmaAfkiH3jQcHT2RgZa7NBG7AGS+A/iUKxwO8XP5XWjgZc7svA8YVRZIyx4rjJgkUondG+PGCTBx8IZ2w8wWnEinuK2sFi9/HqpkJDEdDA9RGloxIHeSIM4zCt+XSLmoXRu54QDu8rNtBj06HccHCoj+JKDxelNcDFxIXuLgqgx+TCtpyOYL6WQRbYOSO9Moq5A/ZMKfh450PLFkXahxqIFPMh+JQ8D0te0ZiE/mENqfgJMt4Nl8KfZyYx814Z4NNwMne1Jg3UXc4kRTghhRzt5f1a7IW6Q5K8wUdp66E5UTtYnQumppp2Uo4/UgtHa1p/Ds0KezNfzp10BPTA9+UkekclBuWRnvgSYGSexlXsAiUiG1YNu/cN3JGp90TRq6rHrvxpLYe/16yY+RSVTN3msDiGEaYWqZTUMhTV3G8xs7KD+YCd+5G0/tmvbpmg71CV/ShiywgNzR7Rv1DWCQtjwH/IEhZJcCRfSXKXqLqpbYjq2aT8/IOqOCmrTt7XVJiWn8/c4aA/aW5J/F9fnMQtjHm0jWPaUA3NolMvnRcrWiff0wevF/m56u+AHedVQTaEc1QcJZVSKYx8oLdmiVmoDxaoIEAKwMr3CY1AIXfrOkF22sINXx0/i4BB8BkCy4Ok/YlR0BIElyfgP+MK/c8vsvCBP66ZPtQueOw4hj9dP1FlHHo3BijMKIWeV2YVg3obgMYo/gOicANguPgDYLlrGJRuXQQaYwWJAOhg4Mm7kqiiMqkMvGaPTiDRKpTTIR7/wIxjVYpKYbCWYT0McnORqZH3OEmlgGw/2P5FFNfJB3Jy0QEiLrBi39luQeRLBn0ycl3s5GBUy89BR5A9njVRhvCpf8aQbXgBZkKPSE7LIrbAOYoLkLFuYA7KDx4ad1oaP8++s+wHmWG37n74PJEc5o+8OFZuOFK561nyDX82fxeShqwf0m9ofXJFxhQbL4PWEhH5ST5D6rQoKLKr5B41A5RgyVRpxAqxHZ2bGKmyVlhblYR5O8ushmLDuaKj+GuKYIlldu70dW0F2MHZDczRCjFEi9TAy0GVBn/A+gIwQNdpMpDZm2S0UIiIdLfAx/3YuIDwMULjav9dXBooLdwmc4uWwIt2uwa0VzydWfQK1nkj9MmllR/Z6T9FeSPNXZ3ZzmefjFYV+wfJ5uUJG9nXzx28cgNao8suFhrH/RPn/AYmXFIq+s6sgAAAAAElFTkSuQmCC;" vertex="1" parent="1">
          <mxGeometry x="142" y="40" width="567" height="596" as="geometry" />
        </mxCell>
        <mxCell id="DRRDU8zETurhCZoYTLGE-2" value="&lt;span style=&quot;background-color: rgb(255, 233, 38); font-size: 20px;&quot;&gt;Ulangkaji di sini&lt;/span&gt;" style="text;html=1;align=center;verticalAlign=middle;resizable=0;points=[];autosize=1;strokeColor=none;fillColor=none;fontSize=20;" vertex="1" parent="1">
          <mxGeometry x="370" y="240" width="150" height="30" as="geometry" />
        </mxCell>
        <mxCell id="DRRDU8zETurhCZoYTLGE-3" value="" style="rounded=1;whiteSpace=wrap;html=1;labelBackgroundColor=default;fontSize=20;fillColor=none;strokeWidth=9;strokeColor=#FFE926;glass=0;" vertex="1" parent="1">
          <mxGeometry x="142" y="60" width="568" height="360" as="geometry" />
        </mxCell>
      </root>
    </mxGraphModel>
  </diagram>
</mxfile>
